<svg id="Layer_1" data-name="Layer 1" xmlns="http://www.w3.org/2000/svg" viewBox="0 0 198.63 189.31"><defs><style>.cls-1{fill:#d37b79;}</style></defs><title>Artboard 5</title><path class="cls-1" d="M93.41,159.61a73.43,73.43,0,1,1,73.42-73.42A73.5,73.5,0,0,1,93.41,159.61Zm0-133.87a60.45,60.45,0,1,0,60.45,60.45A60.52,60.52,0,0,0,93.41,25.74Z"/><path class="cls-1" d="M93.41,158.25c-25.78,0-46-31.65-46-72.06s20.19-72.06,46-72.06V29.88c-9.83,0-16.85,9.36-20.17,14.94-6.48,10.93-10,25.62-10,41.37s3.57,30.44,10,41.36c3.32,5.58,10.34,15,20.17,15Z"/><path class="cls-1" d="M93.41,158.25V142.5c9.83,0,16.85-9.37,20.16-15,6.49-10.92,10.06-25.61,10.06-41.36s-3.57-30.44-10.06-41.37c-3.31-5.58-10.33-14.94-20.16-14.94V14.13c25.78,0,46,31.65,46,72.06S119.19,158.25,93.41,158.25Z"/><rect class="cls-1" x="86.6" y="22.18" width="13.62" height="128.01" rx="2.42" ry="2.42"/><rect class="cls-1" x="26.54" y="61.25" width="130.02" height="13.05" rx="2.31" ry="2.31"/><rect class="cls-1" x="26.54" y="100.4" width="130.02" height="13.05" rx="2.31" ry="2.31"/></svg>