<svg id="Layer_1" data-name="Layer 1" xmlns="http://www.w3.org/2000/svg" xmlns:xlink="http://www.w3.org/1999/xlink" viewBox="0 0 591.55 289.94"><defs><style>.cls-1{fill:#ea847c;}.cls-2{fill:#f7cac6;}.cls-3{fill:#f7a39b;}.cls-4{fill:#ffb4aa;}.cls-5{fill:#ea5045;}.cls-6{fill:#d37b79;}.cls-7{fill:#f79d94;}.cls-8{fill:#f4e9e9;}</style></defs><title>Artboard 4</title><polygon class="cls-1" points="87.32 224.3 43.66 222.97 0 221.64 23.02 183.15 46.05 144.66 66.69 184.48 87.32 224.3"/><polygon class="cls-2" points="143.31 208.82 107.72 229.36 72.14 249.9 63.86 194.48 55.59 139.05 99.45 173.93 143.31 208.82"/><polygon class="cls-3" points="64.28 177.14 42.38 161.97 20.48 146.81 58.35 115.51 96.23 84.2 80.25 130.67 64.28 177.14"/><polygon class="cls-4" points="84.2 153.22 107.93 132.38 131.67 111.54 144.26 149.82 156.85 188.09 120.53 170.66 84.2 153.22"/><polygon class="cls-5" points="160.36 181.53 143.81 203.13 127.26 224.73 100.23 186.87 73.2 149.01 116.78 165.27 160.36 181.53"/><polygon class="cls-1" points="94.57 83.05 116.61 98 138.65 112.96 100.74 145.12 62.83 177.28 78.7 130.16 94.57 83.05"/><polygon class="cls-4" points="73.74 181.6 50.18 195.21 26.61 208.82 24.18 177.4 21.76 145.99 47.75 163.79 73.74 181.6"/><polygon class="cls-2" points="133.39 117.16 170.46 152.09 207.54 187.02 177.61 181.65 147.68 176.27 140.53 146.72 133.39 117.16"/><polygon class="cls-3" points="166.23 240.56 139.69 233.52 113.16 226.48 131.93 209.25 150.71 192.01 158.47 216.29 166.23 240.56"/><polygon class="cls-4" points="141.26 125.35 179.27 119.95 217.28 114.56 201.66 141.1 186.04 167.65 163.65 146.5 141.26 125.35"/><polygon class="cls-1" points="227.09 178.81 206.53 173.13 185.97 167.46 207.45 129.72 228.92 91.98 228.01 135.39 227.09 178.81"/><polygon class="cls-6" points="304.28 211.85 330.08 156 257.55 143.91 304.28 211.85"/><polygon class="cls-5" points="273.52 142.8 261.1 150.39 250.21 157.05 226.91 171.31 227.36 145.86 227.81 120.42 250.66 131.61 273.52 142.8"/><polygon class="cls-1" points="365.01 122.81 304.28 211.85 322.55 154.82 365.01 122.81"/><polygon class="cls-6" points="186.16 166.76 206.47 172.6 226.77 178.45 214.78 181.9 202.8 185.35 194.48 176.06 186.16 166.76"/><polygon class="cls-3" points="305.07 211.85 207.54 183.15 261.84 149.82 305.07 211.85"/><polygon class="cls-4" points="207.54 183.15 285.47 249.9 301.26 210.73 207.54 183.15"/><polygon class="cls-6" points="285.47 249.9 207.54 183.15 185.97 214.56 285.47 249.9"/><polygon class="cls-1" points="212.67 183.54 188.64 211.45 164.62 239.37 155.25 207 145.87 174.64 179.27 179.09 212.67 183.54"/><polygon class="cls-6" points="285.47 249.9 301.26 210.73 331.85 220.54 285.47 249.9"/><polygon class="cls-5" points="301.26 210.73 383.96 187.59 331.85 220.54 301.26 210.73"/><polygon class="cls-4" points="305.93 209.42 365.01 122.81 383.96 187.59 305.93 209.42"/><polygon class="cls-3" points="400.59 242.42 383.96 187.59 331.85 220.54 400.59 242.42"/><polygon class="cls-5" points="365.01 122.81 445.95 140.05 447.76 147.68 383.96 187.59 365.01 122.81"/><polygon class="cls-3" points="412.43 97.3 365.01 122.81 488.71 111.55 412.43 97.3"/><polygon class="cls-1" points="445.95 140.05 488.71 111.55 365.01 122.81 445.95 140.05"/><polygon class="cls-6" points="383.96 187.59 447.76 147.68 461.36 200.8 383.96 187.59"/><polygon class="cls-1" points="400.59 242.42 461.36 200.8 383.96 187.59 400.59 242.42"/><polygon class="cls-2" points="445.95 140.05 488.71 111.55 541.18 121.26 532.4 134.7 445.95 140.05"/><polygon class="cls-3" points="511.56 167.33 532.4 134.7 445.95 140.05 447.76 147.68 511.56 167.33"/><polygon class="cls-2" points="461.36 200.8 447.76 147.68 511.56 167.33 461.36 200.8"/><polygon class="cls-6" points="496.2 258.13 511.56 167.33 461.36 200.8 496.2 258.13"/><polygon class="cls-1" points="511.56 167.33 543.37 249.9 496.2 258.13 511.56 167.33"/><polygon class="cls-6" points="534.6 160.76 511.56 167.33 543.37 249.9 534.6 160.76"/><polygon class="cls-3" points="591.55 273.49 543.37 249.9 591.55 203.82 591.55 273.49"/><polygon class="cls-4" points="591.55 146.22 591.55 203.82 543.37 249.9 534.6 160.76 591.55 146.22"/><polygon class="cls-1" points="591.55 131.13 591.55 146.22 534.6 160.76 591.55 131.13"/><polygon class="cls-1" points="532.4 134.7 534.6 160.76 591.55 131.13 532.4 134.7"/><polygon class="cls-2" points="511.56 167.33 532.4 134.7 534.6 160.76 511.56 167.33"/><polygon class="cls-2" points="532.4 134.7 541.18 121.26 591.55 131.13 532.4 134.7"/><polygon class="cls-6" points="591.55 131.13 576.29 105.63 551.33 122.81 591.55 131.13"/><polygon class="cls-1" points="564.77 85.06 576.29 105.63 551.33 122.81 541.18 121.26 564.77 85.06"/><polygon class="cls-1" points="591.55 97.3 591.55 131.13 576.29 105.63 591.55 97.3"/><polygon class="cls-6" points="564.77 85.06 576.29 105.63 591.55 97.3 591.55 44.19 564.77 85.06"/><polygon class="cls-2" points="554.62 68.05 564.77 85.06 591.55 44.19 554.62 68.05"/><polygon class="cls-1" points="488.71 111.55 541.18 44.19 554.62 68.05 488.71 111.55"/><polygon class="cls-3" points="591.55 44.19 591.55 34.31 541.18 44.19 554.62 68.05 591.55 44.19"/><polygon class="cls-1" points="591.55 0 591.55 34.31 541.18 44.19 591.55 0"/><polygon class="cls-4" points="554.62 68.05 564.77 85.06 541.18 121.26 488.71 111.55 554.62 68.05"/><polygon class="cls-5" points="513.96 269.55 519.78 260.89 526.74 269.55 513.96 269.55"/><polygon class="cls-2" points="241.78 240.56 246.11 275.28 253.11 248.23 241.78 240.56"/><polygon class="cls-5" points="212.67 234.24 212.67 242.42 218.8 238.33 212.67 234.24"/><polygon class="cls-7" points="173.49 254.56 193.14 270.88 195.81 249.9 173.49 254.56"/><polygon class="cls-2" points="49.89 62.34 58.35 57.67 65.22 69.33 49.89 62.34"/><polygon class="cls-2" points="125.52 99.65 138.65 108.31 156.85 99.65 125.52 99.65"/><polygon class="cls-7" points="262.44 104.64 271.43 111.55 276.43 101.31 262.44 104.64"/><polygon class="cls-7" points="354.05 93.32 406.39 68.05 404.36 91.98 354.05 93.32"/><polygon class="cls-5" points="474.32 68.05 474.32 93.32 489.18 93.32 474.32 68.05"/><polygon class="cls-2" points="523.08 36.02 530.95 44.19 541.18 29.02 523.08 36.02"/><path class="cls-8" d="M337.7,229.81a2.91,2.91,0,0,0-1.25.66,1.24,1.24,0,0,0-.2,1.35l-.39.12c0-.06-.09-.12-.22-.19a.45.45,0,0,0-.39-.06l-.12-.05c-1,.3-1.45.86-1.21,1.69a.12.12,0,0,0,.08.1.15.15,0,0,1,.08.11,1.86,1.86,0,0,1,1.11-.78q.82-.28,1.32-.42l.13.46a2.5,2.5,0,0,1-.06.52,1.75,1.75,0,0,1-.17.55l0,.08.06.23a4.28,4.28,0,0,1,.82.27,3,3,0,0,1,.75.38l.07.23,0,.15a.09.09,0,0,0,.12,0,1.58,1.58,0,0,1,0,1,8.64,8.64,0,0,0-.29,1.21l-1.14-.26a3.1,3.1,0,0,1,.07.41,2.94,2.94,0,0,0,.08.48.81.81,0,0,0,.44.58,1,1,0,0,0,.6.08,2.73,2.73,0,0,1,.64,0,1,1,0,0,1,.63.36.26.26,0,0,1-.13.29,1.46,1.46,0,0,0-.25.24,2.52,2.52,0,0,0-.65,2.54c0,.05.12.16.31.33a.59.59,0,0,0,.36.14l0,.16a.33.33,0,0,0,.1.14.31.31,0,0,1,.09.14,1.3,1.3,0,0,1-.39,1.42,1.15,1.15,0,0,0-.44,1.25,2.14,2.14,0,0,0,.94,1.24,2.29,2.29,0,0,1,1,1.32,2.25,2.25,0,0,1,0,.53,1.87,1.87,0,0,0,0,.46,5.81,5.81,0,0,1,.15,1.09c0,.47.05.92.07,1.36s0,.83.07,1.16,0,.5-.07.52l-1.08.31.83,2.87a1,1,0,0,1,1.17.38,3.33,3.33,0,0,1,.68,1.27.66.66,0,0,0,0,.34.29.29,0,0,0,0,.26l0,.07-.43-.38a.89.89,0,0,0-.5-.27c0,.05-.08.1-.27.16a4.27,4.27,0,0,0,.55,1.19c.25.37.7.46,1.36.28.13.46.37,1.16.71,2.1a14.48,14.48,0,0,1,.72,2.9,7.81,7.81,0,0,1-.05,2.78,2.23,2.23,0,0,1-1.74,1.72l-.25-.85-.29.08-.54,1.83a9.78,9.78,0,0,0-4.88.06,5.14,5.14,0,0,0-1.41.83,6.07,6.07,0,0,0-1.38,1.32,3.76,3.76,0,0,0-.19-1,2.29,2.29,0,0,0-.34-.83c0-.05-.18-.13-.5-.23l-.95-.36a7.4,7.4,0,0,0-1.38-.36q-.19.06-.57.63c-.24.38-.43.58-.56.62a1.16,1.16,0,0,1-.53-.18c-.29-.14-.46-.29-.5-.45l.69-.53-.62-2.17-1.18.34-.2-.7a4.51,4.51,0,0,0-1,.37,2.62,2.62,0,0,1-.71.29.66.66,0,0,1-.6,0,1.87,1.87,0,0,1-.36-.32l-.31-.33a.41.41,0,0,0-.44-.08c-.4.12-.57.5-.52,1.16a8.61,8.61,0,0,0,.13,1.22c-.13,0-.28-.06-.45-.29a2.17,2.17,0,0,1-.31-.5l-1.13-3.95c-.06-.21-.22-.29-.49-.24a7.58,7.58,0,0,1-.93.1,2.07,2.07,0,0,1-1.1-.31,2.94,2.94,0,0,1-1-1.56l-.2.06,1,3.49-.4.45a9.14,9.14,0,0,1-1.42-1.06,2.79,2.79,0,0,1-.76-1.34,1.86,1.86,0,0,1,.16-1.09c.19-.47.39-.94.62-1.39a10.79,10.79,0,0,1,.66-1.2c.22-.35.29-.53.21-.57l-2.31-1,.73,2.56c-.52.15-.77.38-.76.68a1.5,1.5,0,0,1-.55,1l-.91-.58-1.07-3.72c-.07-.26-.29-.34-.65-.23l-.74.21a4,4,0,0,0-1.53.77c-.37.33-.26.89.32,1.67l-1.83-.06-.05-.15a2.09,2.09,0,0,1,.48-1.69,7.9,7.9,0,0,0,.91-1.65,1.63,1.63,0,0,0-.84-.34,6.6,6.6,0,0,0-1.2-.08,11.3,11.3,0,0,1-1.29-.05,2,2,0,0,1-1.06-.37l.55,1.94c-.7-.24-1.48-.54-2.32-.88s-1.6-.68-2.26-1l-.58.92a2.87,2.87,0,0,0-.46.26,1.88,1.88,0,0,0-.44.33l-.68,5.4.17.62a1.7,1.7,0,0,0,.53.9,2,2,0,0,1,.55,1,1.24,1.24,0,0,1,0,.88,9.89,9.89,0,0,1-.77,1.19,40,40,0,0,0,1.89,4.2,22.09,22.09,0,0,1,1.72,4.33,12.4,12.4,0,0,1,.57,3.28,4.49,4.49,0,0,1-1.44,2.93l0-.15,0-.16.5-1.23a.42.42,0,0,0-.06-.37l-.15-.33a2,2,0,0,1-1,.13,1.33,1.33,0,0,0-.83.07c0,.05,0,.08-.08.1a.34.34,0,0,1-.18.14,11.44,11.44,0,0,1,.22,2.41c0,.82-.65,1.4-1.89,1.76l-.3.08a8.43,8.43,0,0,0-1.28-1.31c-.41-.33-.8-.62-1.16-.88a4.75,4.75,0,0,1-1-1,5.1,5.1,0,0,1-.74-1.68,3.67,3.67,0,0,1-.17-1.67,3.25,3.25,0,0,0-.11-1.52,9,9,0,0,0-1.61-3,9.2,9.2,0,0,1-1.66-3.17,3.41,3.41,0,0,1-.12-1.52,3.25,3.25,0,0,0-.11-1.52c-.17-.57-.42-1.32-.76-2.26s-.71-1.88-1.13-2.82-.82-1.81-1.22-2.59a4.07,4.07,0,0,0-1.13-1.52l.79-.23a2,2,0,0,0-.73-1.05,2.19,2.19,0,0,1-.75-1.12c-.09-.31,0-.5.37-.57s.45-.31.33-.73a1,1,0,0,0-.77-.82c-.38-.09-.65-.42-.82-1a2.91,2.91,0,0,1-.06-1.32,3,3,0,0,0-.06-1.33c-.1-.36-.4-.52-.89-.5a1.72,1.72,0,0,1-1.3-.46,8.25,8.25,0,0,0-1.27-2.37,6.45,6.45,0,0,1-1.12-2.24.61.61,0,0,1,.08-.65,1.82,1.82,0,0,1,.45-.29,2,2,0,0,0,.45-.3.52.52,0,0,0,.1-.57l-.09-.31a1.36,1.36,0,0,0-.36-.32,1.36,1.36,0,0,1-.36-.32,3.78,3.78,0,0,1,.11-.74c.08-.45.19-.89.31-1.35s.24-.88.37-1.28.23-.61.3-.63a1.25,1.25,0,0,1,.79.53c.14.24.47.28,1,.13a3.87,3.87,0,0,0,1.86-1.12,3.52,3.52,0,0,1,1.76-1.09l.88-.26c-.19.06-.26.22-.18.47a1.38,1.38,0,0,0,.5.83,1.78,1.78,0,0,0,.71.25,3.15,3.15,0,0,1,.69.18.85.85,0,0,1,.44.59.8.8,0,0,1-.19.81.28.28,0,0,0,.38.23l.35-.27.35-.27a1.53,1.53,0,0,1,.36,0c.18,0,.29.06.32.16l.81,1.36a.91.91,0,0,0,.9.33,3.46,3.46,0,0,1,1.25.1,3.05,3.05,0,0,1,1.41,1,8.72,8.72,0,0,1,1.36,3.09.6.6,0,0,0,.47-.43,2.18,2.18,0,0,0,0-.68,4.2,4.2,0,0,1-.05-.7q0-.33.51-.48.28-.08.72.3a9.93,9.93,0,0,1,.9.92,11.12,11.12,0,0,1,.84,1.06,3.62,3.62,0,0,1,.43.75,4.11,4.11,0,0,1,1-.32,6.57,6.57,0,0,1,1.39-.15,3.67,3.67,0,0,1,1.3.26,1.21,1.21,0,0,1,.76.79l-.15.21-.15.21a.22.22,0,0,0-.06.19l.18.62a6.34,6.34,0,0,1,2-.36.91.91,0,0,1,.72.47,7.16,7.16,0,0,1,.46,1,3.05,3.05,0,0,0,1.17,1.3,2.7,2.7,0,0,1,2.22,0,9.08,9.08,0,0,1,2.68,1.37,11.81,11.81,0,0,1,2.18,2,2.6,2.6,0,0,1,.8,1.87l.64-1.11a7.26,7.26,0,0,1,1.47.67,14,14,0,0,1,1.52,1c.5.39,1,.77,1.34,1.13a4,4,0,0,1,.81,1,2.38,2.38,0,0,1,1.6-.37,4.56,4.56,0,0,1,1.24.44l1.13.6a2.06,2.06,0,0,0,1.37.15l0-.16,0-.07a1.68,1.68,0,0,1-.28-.6,3.19,3.19,0,0,0-.32-.74c-.14-.24-.29-.51-.44-.8l-.59.17a1.34,1.34,0,0,1,.09-.61,5.94,5.94,0,0,1,.4-1,10.48,10.48,0,0,1,.57-1,2.59,2.59,0,0,1,.46-.6l-1-3.49a1,1,0,0,1,.06-.35.75.75,0,0,0,0-.43c0-.1-.14-.34-.31-.71a2.58,2.58,0,0,0-.41-.68l-.22-.77a22.05,22.05,0,0,1-.57-2.53,20.28,20.28,0,0,0-.56-2.52l-.11-.39c0-.1-.15-.4-.37-.9a3.22,3.22,0,0,0-.46-.87c-.05-.16,0-.27.23-.32a4.42,4.42,0,0,1,.55-.12,1.17,1.17,0,0,1,.6,0,1.42,1.42,0,0,0,.14-.8q0-.59-.09-1.23c-.05-.43-.12-.85-.2-1.24a9.12,9.12,0,0,0-.2-.91l0-.15a5.51,5.51,0,0,0-1.46-.63,1.65,1.65,0,0,1-1.1-1.24.47.47,0,0,1,.14-.46,2.53,2.53,0,0,1,.51-.44,1.77,1.77,0,0,0,.5-.48.81.81,0,0,0,.06-.73l1.28-.37c-.31-1.08-.66-2.1-1-3.06a30,30,0,0,1-1-2.9l-.09-.31.08-1.2c.36,0,.67.26.95.74a6.56,6.56,0,0,1,.47.87l.79-.23a6.16,6.16,0,0,0-1-2,5.76,5.76,0,0,1-1-2,1.28,1.28,0,0,1,.28-1.42,3.92,3.92,0,0,1,1.53-.78,1.2,1.2,0,0,1,1.15.09,2.79,2.79,0,0,1,.57.72c.15.27.29.52.44.76a.47.47,0,0,0,.6.24l1,3.34c0,.05.27.16.78.32s.87.26,1.1.31l.1,0c.65-.19,1-.42,1.13-.7a1.42,1.42,0,0,0,0-.84l-.24-.86c-.09-.28.05-.56.4-.83l.17-.13.12,0a5.18,5.18,0,0,1,.5.61c.23.33.49.67.77,1a6.26,6.26,0,0,0,.93,1,2.34,2.34,0,0,0,1,.57L333.87,228l.22.78a4.59,4.59,0,0,0,1.35.07,7.27,7.27,0,0,0,1.51-.13Zm-53,11.94c-.15,0-.21,0-.17.17a.18.18,0,0,0,.25.14c.12-.09.17-.18.15-.25S284.85,241.71,284.72,241.75Zm4.52,20.6c-.14,0-.2,0-.16.17a.18.18,0,0,0,.25.14C289.54,262.38,289.51,262.27,289.24,262.35Zm6.27,20.35c-.14,0-.19.06-.15.22s.13.21.26.17C295.68,282.8,295.64,282.67,295.51,282.7Zm2.26-23.64c.1-.14.07-.19-.09-.14s-.23.12-.2.23a.31.31,0,0,0,.24.1C297.78,259.23,297.8,259.17,297.77,259.06Zm-.2-4.05.49-.14-.13-.47Zm.59,9.48a.78.78,0,0,0,.29-.84l-.49.14Zm0-7.39c.06.21.11.39.15.55s.26.26.63.32l-.56-1.94c-.31.15-.44.32-.38.53S298.12,257,298.17,257.1Zm.36,4.6.59-.17-.25-.85-.59.17Zm2.57-12.57.38.22-.29-1q-.1,0-.15.21a.43.43,0,0,0,0,.26l0,.15Zm.33,6.37a4.16,4.16,0,0,0,.6,1.16,1.12,1.12,0,0,0,1.34.38.28.28,0,0,0,.2-.4,5.15,5.15,0,0,0-.77-1.37c-.42-.61-.81-.91-1.17-.93a6.22,6.22,0,0,0-.26.58A1.29,1.29,0,0,0,301.43,255.5Zm.4,21.78c-.33.1-.46.26-.39.49s.26.31.59.21.26-.2.2-.43S302,277.23,301.83,277.28Zm-.09-25.9c-.15,0-.2.05-.15.21s.13.21.26.17a.28.28,0,0,0,0-.26C301.85,251.4,301.81,251.36,301.74,251.38Zm5,5.11-.11-.38-.39.11Zm2.25-.31c-.14,0-.19.07-.14.25s.14.26.28.22a.31.31,0,0,0,.12-.33A.19.19,0,0,0,309,256.18Zm6.07.36c-.15,0-.2.06-.16.21s.13.22.27.18C315.4,256.58,315.36,256.45,315,256.54Zm.31,1.09c-.33.09-.46.27-.38.53s.27.34.6.24a.35.35,0,0,0,.28-.5A.35.35,0,0,0,315.35,257.63Zm1.59.72q-.49.13-.39.48c.06.24.26.31.59.21s.26-.2.19-.43S317.13,258.29,316.94,258.35Zm4.86,1.37a7.11,7.11,0,0,0-.7.7c-.35.39-.49.7-.42,1l1.48-.42Zm4.63-38c-.13,0-.16.18-.08.44s.17.37.31.33c.32-.09.45-.27.38-.53S326.76,221.62,326.43,221.72Zm.12,14.48c-.2.06-.26.22-.19.47s.21.36.41.31.26-.22.18-.48S326.74,236.15,326.55,236.2Zm1.66,12.11c-.13,0-.16.16-.11.37s.16.29.29.25.36-.21.3-.42S328.47,248.24,328.21,248.31Zm2.83-1.65a.41.41,0,1,0,.22.78q.19-.06.09-.45C331.27,246.74,331.17,246.62,331,246.66Zm.49,22.85.39-.11-.31-1.08-.39.11Zm.19-28.25c-.16-.06-.21,0-.16.17s.14.26.27.22a.29.29,0,0,0,0-.26C331.84,241.29,331.79,241.24,331.72,241.26Zm.54,11.51a.41.41,0,1,0,.5.28A.36.36,0,0,0,332.26,252.77Zm.73-25.63a1.82,1.82,0,0,0,.71-2l-1.18.34Zm-.14,8.76c-.14,0-.16.22-.07.53s.2.44.33.4.35-.26.26-.57S333.11,235.83,332.85,235.9Zm.57,24.26c-.19.06-.26.2-.19.43s.2.32.39.27.26-.2.2-.44S333.62,260.1,333.42,260.16Zm-.08-16.59.69-.2-.48-.2Zm.74,1.46c-.13,0-.16.18-.09.41s.16.33.29.29.26-.2.2-.43S334.28,245,334.08,245Zm.05,25,.27-.16.62-.43-1,.28Zm.38-23.52.26-.58-.4.11Zm.62-11.93.59-.17-.68-.14Zm.44,1.55c.1-.14.06-.18-.14-.13s-.28.14-.25.24a.28.28,0,0,0,.29.09A.14.14,0,0,0,335.57,236.13Zm.15,31.68c.2.67.44,1.08.73,1.22a2.4,2.4,0,0,0,1.51-.1,1.89,1.89,0,0,0-.7-1A1.65,1.65,0,0,0,335.72,267.81Zm.64-27.46c-.13,0-.17.16-.11.37s.15.29.29.25.26-.18.2-.39A.28.28,0,0,0,336.36,240.35Zm2.64,7.72c-.16-.07-.2.06-.11.37s.19.42.31.33a.49.49,0,0,0,.17-.51A.26.26,0,0,0,339,248.07Zm.51,20.33q-.39.11-.27.54c.08.28.25.39.52.31s.15-.2.07-.48S339.64,268.36,339.51,268.4Z"/><path class="cls-8" d="M341.61,224.16a1.53,1.53,0,0,1,.21-.73,2.13,2.13,0,0,1,.44-.72,1.58,1.58,0,0,1,.56.68,2.21,2.21,0,0,0,.59.75l.23.44a2.07,2.07,0,0,1-.83.07,2.46,2.46,0,0,1-.7-.22C341.79,224.3,341.62,224.21,341.61,224.16Zm40.56,34.18-.87.67-.29-1a1.94,1.94,0,0,0-.5.27,2.14,2.14,0,0,1-.51.27c-.07,0-.17-.08-.3-.29a1,1,0,0,0-.32-.37l-.29.08-.3.09a2.71,2.71,0,0,0-.49.31,2.56,2.56,0,0,0-.48.39l-.39.11-.49.14c-.07,0-.15.1-.25.24s-.18.25-.23.32a2.26,2.26,0,0,1-.09.44q-.08.11-.06.15s0,.07-.07.14a.2.2,0,0,0-.05.18l-1,.32-1,.33-1.24.31-.94.23c-.15,0-.54-.08-1.18-.21a3.89,3.89,0,0,1-1.22-.36l.33,1.16-3,.43-.33-1.16-.24-.1-.36-.15-.3.09-.3.08a3.76,3.76,0,0,0-.73.42,4,4,0,0,1-.63.39c-.06,0-.15.17-.24.45a1.6,1.6,0,0,0-.13.5.87.87,0,0,1-.13.29l-.15.21-.29.08-.3.09a4.11,4.11,0,0,1-.53,0,.56.56,0,0,1-.34-.07.35.35,0,0,0-.22,0l-.2.06-.29.08a3.19,3.19,0,0,0-.63.6,2.38,2.38,0,0,1-.73.63l-.49.14-.49.14c-.15,0-.59,0-1.33,0a8.44,8.44,0,0,1-1.45-.05l-.15-.54-.18-.62.08-.11.15-.21a1.16,1.16,0,0,1,.25-.24l-.14-.47-.11-.38a1.31,1.31,0,0,1-.4-.1l-.3-.12a1.34,1.34,0,0,0-.52,0,5.57,5.57,0,0,0-.6.14l-.2-.7a.93.93,0,0,1,0-.76,3.48,3.48,0,0,1-.07-.61,6.19,6.19,0,0,0-.11-.93c-.05-.32-.1-.61-.14-.88a3.38,3.38,0,0,0-.09-.48c0-.05-.07-.25-.16-.58s-.2-.69-.3-1.05-.2-.7-.29-1l-.18-.62a5.85,5.85,0,0,1,0-1,5.12,5.12,0,0,0-.06-1.11c0-.11-.12-.47-.26-1.1s-.28-1.15-.4-1.57c0-.05-.05-.19-.12-.43a4.86,4.86,0,0,0-.26-.72,5.29,5.29,0,0,1-.27-.76c-.07-.26-.13-.44-.16-.54a1.86,1.86,0,0,1-.6-.25,4,4,0,0,0-.5-.27.28.28,0,0,1-.15-.13.28.28,0,0,1-.16-.2.38.38,0,0,1,0-.34.21.21,0,0,1,.05-.19,1.46,1.46,0,0,0,.08-.65,3.39,3.39,0,0,0,0-.7l-.07-.23,0-.08c0-.1-.2-.15-.52-.14a3.09,3.09,0,0,0-.67.06l-.54,1.84-.1,0-.39.12c0-.05-.1-.1-.26-.14s-.23-.09-.25-.14a3,3,0,0,1-.64,0c-.37,0-.56-.08-.57-.13l-.16-.55-.18-.62a2.73,2.73,0,0,1,.28-.7,7.73,7.73,0,0,1,.45-.85c0-.05.1-.21.34-.47s.36-.43.34-.48.11-.31.21-.56a3.1,3.1,0,0,1,.24-.49c0-.05,0-.12.1-.2s.12-.14.1-.19l-.93-3.26c0-.17.1-.64.23-1.41a4.86,4.86,0,0,0,.14-1.38l-.05-.16,0-.15a2.89,2.89,0,0,0-.68-.69,4.84,4.84,0,0,0-.87-.63A2.4,2.4,0,0,0,345,233a2.16,2.16,0,0,1-.32-.54,4.21,4.21,0,0,0-.29-.63c-.16-.32-.34-.65-.55-1s-.4-.71-.57-1.06A4.73,4.73,0,0,1,343,229l-.2-.7-.14-.47c.05-.07.17-.21.36-.43s.36-.46.54-.7.34-.48.5-.69.22-.35.2-.4a.52.52,0,0,0,0-.41q-.09-.31-.21-.36a1.5,1.5,0,0,0,.88.29,2.88,2.88,0,0,0,.91,0c.07,0,.21-.15.42-.41a2.84,2.84,0,0,0,.44-.68c0-.12.08-.27.14-.45a.83.83,0,0,0,0-.43,1,1,0,0,0,.27.38.74.74,0,0,0,.45.25,1,1,0,0,0,.65-.31,1.65,1.65,0,0,1,.54-.37,5.61,5.61,0,0,1-.09-.85,2.1,2.1,0,0,0-.23-1,4,4,0,0,0-.6-.62A3.77,3.77,0,0,0,347,220l0-.15-.05-.15A4.48,4.48,0,0,0,347,219a4.09,4.09,0,0,1,.12-.7,2.4,2.4,0,0,0,0-.89,6.6,6.6,0,0,0-.11-.93l.53-.4a4.26,4.26,0,0,0,0-.72,3,3,0,0,0-.06-.61l.59-.17,0,.16,0,.15c0,.05.06.07.13.05a1.39,1.39,0,0,1,.47.37,1.35,1.35,0,0,1,.26.34,4,4,0,0,1,1.07,0c.59.06,1,.11,1.22.16l.19-.06.4-.11a4.44,4.44,0,0,1,.41-.42l.68-.61.63-.56c.2-.17.3-.28.28-.33a1.65,1.65,0,0,0,.54-.37,1.94,1.94,0,0,1,.43-.33l.3-.08.19-.06,1,.18a1.82,1.82,0,0,1,.76.25c.13,0,.28,0,.45.25a.8.8,0,0,0,.46.33.91.91,0,0,0,.53.14,1.84,1.84,0,0,0,.57,0c.13,0,.26-.21.38-.53l-.22-.77a1.05,1.05,0,0,1,.06-.52,1.58,1.58,0,0,0,.09-.45l.27-.16H360l1,.4a2.21,2.21,0,0,0,.92.24l.22,0,.17-.14a2.52,2.52,0,0,0,.46-.25,2.3,2.3,0,0,1,.56-.29,2.12,2.12,0,0,1,.71-.5,2.45,2.45,0,0,0,.63-.39l.49-.14.59-.17-.42.58a1,1,0,0,1-.46.43.26.26,0,0,0,.14.13.24.24,0,0,0,.15.12,3.22,3.22,0,0,1,.73,0c.36,0,.56,0,.61-.09a1.32,1.32,0,0,0,.49-.35,5.42,5.42,0,0,0,.44-.5l.09,0a.34.34,0,0,0,.18-.14l.15-.21a2.79,2.79,0,0,0,.06-.73,1.53,1.53,0,0,1,.08-.65l.07-.11a.74.74,0,0,1,.21,0,.75.75,0,0,0,.21,0l.1,0c.06,0,.14,0,.24.1a.94.94,0,0,0,.26.18,3.88,3.88,0,0,1,.74-1.14c.42-.51.72-.85.88-1,0-.05.08-.1.27-.16l.5-.14.39-.11c.2-.06.3-.06.32,0s.38.09.74.37a4.68,4.68,0,0,0,.67.48l.92.41.91.41a2.26,2.26,0,0,0,.27-.54.87.87,0,0,0,.08-.48c0-.05-.1-.11-.27-.18a.66.66,0,0,0-.43,0c0-.05.05-.14.19-.27a.72.72,0,0,0,.26-.37l.2,0,.29-.09c.1.09.37.11.82.06a5.33,5.33,0,0,1,.89,0l.4-.12.59-.17c.06,0,.13-.09.2-.22a2.3,2.3,0,0,0,.15-.38l.2-.06.2,0,2.69,1.23,3.34-2.46,2.09,4.68-2.15,1.8c.08,0,0,.24-.19.64a7.14,7.14,0,0,1-.46.8s0,.09-.07.11l-.2.05-.2.06a.09.09,0,0,1-.12-.05,1.89,1.89,0,0,0-.54-.05,2.07,2.07,0,0,0-.63.05l-.3.42a2.68,2.68,0,0,0,.16.38c.09.19.11.33.06.4a.43.43,0,0,1-.11.36c-.1.15-.18.23-.25.24l-.48.18a3.59,3.59,0,0,1-.58.21c-.13,0-.33.08-.6.13l-.5.11c-.08,0-.27-.12-.55-.27l-.56-.26c-.37-.06-.83-.11-1.37-.15a5.4,5.4,0,0,0-.92,0c-.13,0-.32.28-.59.72a3.21,3.21,0,0,1-.57.79l-.29.08-.2.06a6.47,6.47,0,0,1-.88.46l-1.54.74-1.55.74a8.66,8.66,0,0,1-.9.38l-1.47.42a2.09,2.09,0,0,0-.44.34,1.47,1.47,0,0,1-.44.33,2.54,2.54,0,0,1-.7.33c-.35.13-.72.28-1.1.44s-.74.32-1.09.44l-.63.23a3.19,3.19,0,0,0-.42.2c-.22.12-.46.25-.74.38l-.8.4-.46.22a3.1,3.1,0,0,1-.63,0c-.28,0-.6,0-.95,0a8.5,8.5,0,0,1-1,0,2.71,2.71,0,0,1-.61-.08l-.44-1.55a.37.37,0,0,0-.28-.22,2.1,2.1,0,0,1-.35-.11.26.26,0,0,0-.25.07.77.77,0,0,1-.32.18l.72,2.48-1,.25a4.12,4.12,0,0,1-1,.16,1.65,1.65,0,0,0-.34-.07.26.26,0,0,1-.26-.17l-.25,1-6.68,1.92-.45.29a.45.45,0,0,1-.27.17.32.32,0,0,0-.18.13l.11.39.14.46a1.83,1.83,0,0,0,.35.11c.15,0,.24.09.25.14a7.65,7.65,0,0,0,.88-.09c.38,0,.6-.08.66-.1l.49,1.7c0,.06.06.07.12.05l.2-.05.29-.09.49-.35a1.69,1.69,0,0,0,.39-.32l.39-.11.1,0a4.3,4.3,0,0,1,.45.08c.15,0,.23.09.25.14l.58,2a2.5,2.5,0,0,1,.52,0,.91.91,0,0,1,.57.13l0,.08.07.23q0,.27-.09,1a4.26,4.26,0,0,0,0,.89s.13.13.34.24a2.24,2.24,0,0,1,.45.28,1.11,1.11,0,0,0,.32.21l.31.12,0,.16.07.23c-.05.07-.21.25-.48.55s-.39.51-.36.61l.45,1.55a2.23,2.23,0,0,1-.29.67,4.52,4.52,0,0,0-.36.78l.13.46.09.31.89-.59a1.73,1.73,0,0,0,.37.52,1.55,1.55,0,0,0,.56.47l.39-.11.69-.2a10.22,10.22,0,0,0,1-.4,6,6,0,0,0,.93-.47.36.36,0,0,1,.07-.32,1.06,1.06,0,0,0,.16-.34,1,1,0,0,0,.29-.5,1.89,1.89,0,0,1,.18-.47s.09.13.22.23.24.14.31.12l1.57-.45.24.1.24.1a1.23,1.23,0,0,1,.36-.06,1.22,1.22,0,0,0,.35-.06l.2-.06c.06,0,.09,0,.07-.1.14,0,.3-.21.5-.52a2.59,2.59,0,0,1,.46-.6l.18-.13a.35.35,0,0,1,.22,0,6.57,6.57,0,0,1,.9.2,3,3,0,0,0,.79.15,1,1,0,0,0,.55-.12l.53-.19.42.34a1,1,0,0,1,.32.37L373.6,234c.07,0,.13-.17.2-.44a1.34,1.34,0,0,0,.05-.56l-.45-1.55c0,.06.1.11.27.18a.56.56,0,0,0,.34.07,6.11,6.11,0,0,0,.92.24,8.09,8.09,0,0,1,.8.19,2.49,2.49,0,0,0,.35.11.65.65,0,0,0,.32,0,2.68,2.68,0,0,0,.39.6,1.91,1.91,0,0,0,.46.5s.17.08.45.08a2,2,0,0,1,.67.1l0,.16.07.23a.4.4,0,0,0-.21.19l-.19.26a1.41,1.41,0,0,0-.12.54c0,.28-.07.44-.13.45a.48.48,0,0,1-.46.05.93.93,0,0,0-.39-.05,3.55,3.55,0,0,1-.05.56c-.06.32,0,.52.06.61l.6.21a3.32,3.32,0,0,0,.69.17c-.12.1-.28.24-.47.43a1.23,1.23,0,0,1-.48.35,1.58,1.58,0,0,1-.68.24l-.8.18a2.15,2.15,0,0,0-.43.34,1.62,1.62,0,0,1-.44.33l-2.06.6a6,6,0,0,0-.94.43c-.5.26-.84.44-1,.55l-.84.57-1.43,1-1.43,1a4.24,4.24,0,0,0-.75.55,6.58,6.58,0,0,1-1,.5,9,9,0,0,0-1,.5c-.31.15-.82.44-1.51.86s-1.1.68-1.22.77a1.2,1.2,0,0,0-.45.63c-.07,0-.09.19-.07.52a2.33,2.33,0,0,1,0,.68,3.78,3.78,0,0,1,0,.88,5,5,0,0,1-.11.92l-.23.31c-.1.15-.14.24-.13.29a.76.76,0,0,0,0,.42l.15.54a3.89,3.89,0,0,0,.2.49,4.05,4.05,0,0,1,.19.49,1.43,1.43,0,0,1,.59,0l.6.08,1.81.74.42,0L365,253a.34.34,0,0,0,.18-.14c.06,0,.16-.1.3-.25a.79.79,0,0,1,.3-.25l.19-.06.2-.06a3.22,3.22,0,0,1,.71.05l1.27.18,1.28.18.82.1a2,2,0,0,0,.55.05c.28,0,.44.06.47.16s.33.17.56.47a2.68,2.68,0,0,1,.39.6,3.55,3.55,0,0,1,.29-.63c.17-.3.28-.45.35-.47a3.27,3.27,0,0,1,1.09-.28,9.09,9.09,0,0,0,.92-.13l0-.6-.72-.3c-.15,0-.45-.07-.9-.16a2.41,2.41,0,0,0-.88-.08,1.4,1.4,0,0,1,.39-.5,1.75,1.75,0,0,1,.54-.36,1.61,1.61,0,0,1,.56.09,4.07,4.07,0,0,0,.68.14l.19,0,.3-.09.57-.41a2.14,2.14,0,0,0,.55-.5l.42,1.48a1.81,1.81,0,0,0,.34.07.62.62,0,0,0,.52-.07,5.66,5.66,0,0,0,.31-.59q.23-.48.42-.54l.5-.14.49-.14a.33.33,0,0,1,.34.07.88.88,0,0,0,.26.17l-.19.27a1.09,1.09,0,0,0-.17.34,2.1,2.1,0,0,0-.19.43,1.13,1.13,0,0,0-.1.41l.16.54.09.31.6.25.29-.09.2,0,.23-.32a1.16,1.16,0,0,1,.25-.24,3.12,3.12,0,0,0,0-.87,1.73,1.73,0,0,1,0-.79c0-.13.2-.27.51-.44s.45-.29.44-.34a6,6,0,0,0,.09-.78,3,3,0,0,0,0-.76l4.52-1.29.79-1.32,4.13-1.19a2.86,2.86,0,0,0,.27.55,1,1,0,0,0,.46.5,1.9,1.9,0,0,0,.81.23,5.23,5.23,0,0,1,.91.2l1.08-.31c.07,0,.16,0,.29.09a3.16,3.16,0,0,0,.31.16c.08,0,.13.19.14.46s0,.41.11.39a6.77,6.77,0,0,1,.77-.09,2.6,2.6,0,0,1,.79,0,4.25,4.25,0,0,1,.53.73,4.74,4.74,0,0,0,.53.73,2.36,2.36,0,0,0,.56.3l.67.27.38-.53a3.75,3.75,0,0,1-.72-.47,4.1,4.1,0,0,0-.72-.46l-.05-.16,0-.15a6.7,6.7,0,0,0,0-1.34,2.49,2.49,0,0,1,0-.93c.1-.14.22-.33.37-.56s.27-.43.37-.57a.88.88,0,0,1,.36-.23l.48-.18a2.67,2.67,0,0,0,.23.44,3,3,0,0,1,.26.51s.08.1.2.15l.3.13.3-.09.39-.11c.07-.24.21-.62.42-1.13a8.3,8.3,0,0,1,.64-1.27c.23-.35.42-.47.59-.38s.2.6.11,1.52l.69,2.4c.36-.49.66-.75.9-.76s.41.12.49.41a2.31,2.31,0,0,1-.08,1.19,5.73,5.73,0,0,1-.64,1.49,7.57,7.57,0,0,0,0,.88,1.54,1.54,0,0,1-.13.84,3.12,3.12,0,0,1-.31.59c-.17.27-.38.55-.61.85s-.44.56-.62.8l-.34.48.11.39,1.08-.31-.61,1.93-4.13,1.19c0-.11-.23-.23-.59-.38a1.66,1.66,0,0,0-.64-.19l-2,.56c-.13,0-.36,0-.7-.22a1.47,1.47,0,0,0-.6-.24l-.49.14.51,1.78c-.13,0-.47.11-1,.21s-.94.18-1.2.26a8,8,0,0,1-1.43,0l-1.76,0a.41.41,0,0,1-.29-.08c-.13-.08-.21-.14-.22-.19s-.12-.09-.15-.34-.06-.39-.07-.44-.31-.22-.8-.19a1,1,0,0,1-.55,0,1.07,1.07,0,0,0-.45-.08l-.29.08-.3.09a2.9,2.9,0,0,1,0,.87,5.37,5.37,0,0,1-.08.82.71.71,0,0,0-.13.29c0,.12-.09.19-.16.21l-1,.79c-.44.35-.71.57-.83.65a1.7,1.7,0,0,1-.4-.3c-.19-.17-.34-.29-.43-.38a1,1,0,0,1-.25-.14,2.1,2.1,0,0,0-.26-.13l-.39.11ZM343.78,220.6a.57.57,0,0,1,0-.34.69.69,0,0,0,0-.26,11.15,11.15,0,0,0,1.16.34c.61.16,1,.27,1.16.33s.25.26.46.5a1.86,1.86,0,0,1,.37.53l.18.62-.2.05-.2.06a.09.09,0,0,1-.12-.05s-.08-.11-.21-.19a1.72,1.72,0,0,1-.34-.24c-.06,0-.21,0-.43-.21a2.61,2.61,0,0,0-.46-.29s-.2-.15-.56-.3a1.67,1.67,0,0,1-.57-.3.09.09,0,0,1-.12,0A.28.28,0,0,1,343.78,220.6Zm9.61-3.6-.13-.46-.59.17Zm-.06,17.22a.38.38,0,0,0-.27.54c.08.29.25.39.51.32a.38.38,0,0,0,.28-.54C353.76,234.25,353.59,234.15,353.33,234.22Zm.38-13.87.23-.32a1.51,1.51,0,0,0,.21-.39l-.09-.31-.11-.39-.36-.11a.87.87,0,0,1-.37-.19Zm.45-8.44c.13,0,.21,0,.24.1a.26.26,0,0,1-.13.29q-.34.27-.42,0C353.8,212.12,353.9,212,354.16,211.91Zm2.16,45.71q0-.27-.36-.15c-.27.07-.37.19-.33.34a.37.37,0,0,0,.39.06A.41.41,0,0,0,356.32,257.62Zm.14-43.26c-.33.09-.46.26-.39.49s.26.3.59.21.36-.23.29-.47S356.72,214.28,356.46,214.36ZM359,263.72a.41.41,0,1,0,.5.28A.36.36,0,0,0,359,263.72Zm11.43-54c0,.11.13.19.29.25l.36.15a2.28,2.28,0,0,0,.34-.68l-.09-.31a.45.45,0,0,1,0-.25.33.33,0,0,0,0-.17l-.59.17c-.06.07-.13.17-.24.28a.35.35,0,0,0-.12.33l0,.15Zm1.29,27.83.59-.17-.2-.7-.59.17ZM374,208.74c0-.13-.06-.16-.29-.09s-.29.14-.2.23.13.21.27.17A.32.32,0,0,0,374,208.74Zm-.15,5.75s0,.06.12,0,.09.08.24.09a1.21,1.21,0,0,1,.34.08,1.08,1.08,0,0,0,.29-.47.86.86,0,0,0,.05-.56c-.06-.2-.28-.25-.68-.14a.32.32,0,0,1-.12.12s-.08.05-.13.12l-.15.21v.34Zm1.64,37.62a.45.45,0,0,0,.25.86c.19-.06.25-.23.17-.51S375.69,252.06,375.49,252.11Zm.75-37.05c.33-.1.54,0,.62.28s0,.48-.37.57-.34-.06-.42-.34S376.05,215.11,376.24,215.06Zm.65-7.4c-.2.05-.26.21-.19.47s.21.36.41.3.45-.27.38-.53S377.22,207.56,376.89,207.66Zm.8,23.93c0-.05,0-.18-.06-.4a4.69,4.69,0,0,0-.08-.48,10.69,10.69,0,0,1,1.29.26,10.88,10.88,0,0,1,1.1.31,4.83,4.83,0,0,1,.58.89,8,8,0,0,1,.47.91l-.76.13a4.08,4.08,0,0,1-.88.09c-.09-.09-.22-.22-.38-.4a1.44,1.44,0,0,1-.26-.34,1.26,1.26,0,0,1-.34-.07c-.21,0-.32,0-.34-.07a1.7,1.7,0,0,0-.17-.41A3.35,3.35,0,0,1,377.69,231.59Zm1.24,3.93c.32-.09.53,0,.61.28s0,.48-.37.57-.43,0-.52-.31A.38.38,0,0,1,378.93,235.52Zm1.45-6-.39.11-.11-.39Zm1.2.08c.14,0,.23.06.25.13s0,.17-.14.25-.2.05-.25-.13S381.43,229.54,381.58,229.56Zm.58,2a.53.53,0,0,1,.31.37.51.51,0,0,1-.07.48c-.12.09-.22,0-.32-.37S382,231.56,382.16,231.57Zm2.07-2.78c.13,0,.24.09.32.37s.06.45-.07.49c-.33.09-.54,0-.62-.29S383.9,228.89,384.23,228.79ZM386,206.65c-.13,0-.17.14-.12.32s.14.23.26.14.26-.21.23-.32S386.17,206.64,386,206.65Zm0,3.84a4.59,4.59,0,0,0,.89-.8,4.33,4.33,0,0,0,.75-.92.51.51,0,0,0,.3-.26,1.81,1.81,0,0,1,.18-.3.77.77,0,0,0,.22-.53,1.53,1.53,0,0,0,0-.46,6.82,6.82,0,0,0-.79-.53l-.57-.51a.6.6,0,0,1-.25-.51c-.83.57-1,.61-.6.13a12.09,12.09,0,0,1,1.86-1.67l-1.73-.09q-.11,0,.45-.3a3.14,3.14,0,0,0,.52-.4,1.59,1.59,0,0,1,.26-.75c.21-.39.34-.63.39-.7a1.43,1.43,0,0,1,0-.45,1.3,1.3,0,0,0,0-.46l1.48-.42.08.31c0,.13-.1.37-.21.73a1.71,1.71,0,0,0-.12.71c.06.21.34.3.82.27l.1,0,.3-.09.19-.26a1.54,1.54,0,0,0,.17-.34,2.68,2.68,0,0,1,.18-.47A.84.84,0,0,0,391,201a2.56,2.56,0,0,1,.38.22,3.57,3.57,0,0,1,.41.31c.09.31.26.43.52.35a3.36,3.36,0,0,0,.77-.47,5,5,0,0,1,.67-.45,1,1,0,0,0,.33.41,2.23,2.23,0,0,0,.41.31l.49-.15.4-.11a9.08,9.08,0,0,0,1-.79,3.69,3.69,0,0,1,.92-.68l1.74.13a7,7,0,0,1,1.67.23l-2.56.74c.05.15.11.43.19.82s.14.82.19,1.25.1.84.14,1.22a6.12,6.12,0,0,0,.12.8,1.3,1.3,0,0,0-.12.5.7.7,0,0,1-.22.52c0-.05-.1-.09-.25-.13s-.25-.11-.28-.22-.15-.22-.21-.57-.11-.56-.14-.67a2.18,2.18,0,0,1-.5-.61,4.27,4.27,0,0,1-.42-.72l-.44-.42a1,1,0,0,0-.51-.31l-.2.05-.1,0a3.63,3.63,0,0,0,0,.73c0,.37-.07.59-.18.68a5,5,0,0,1-.55.87,3.44,3.44,0,0,1-.59.72l.22.77.27.93.31.17a.42.42,0,0,0,.29.08,2.21,2.21,0,0,1-.37.57c-.21.25-.37.45-.47.59l-.29.09-.1,0a2.53,2.53,0,0,0-.68-.3c-.35-.13-.57-.2-.65-.24a3.42,3.42,0,0,0-.46.26c-.24.15-.35.26-.33.31a3.75,3.75,0,0,0-.4.83c-.17.41-.27.67-.31.8l-.29.08-.3.09c-.06,0-.17,0-.31-.17s-.25-.18-.31-.16a3.43,3.43,0,0,0-1,.3,2.69,2.69,0,0,1-.94.27,3.26,3.26,0,0,1-.51.06,1.61,1.61,0,0,1-.66-.06l-.36-.15C386.13,210.68,386,210.6,386,210.49Zm3.35-3.56c0,.06.12.12.32.2l.42.18c0-.13.13-.43.27-.92l.32-1.1,0-.15-.05-.16a2.24,2.24,0,0,0-.4-.09,2.27,2.27,0,0,1-.4-.1l-.21.9a6.6,6.6,0,0,1-.3,1l0,.16Zm2.67,49,.49-.14a.47.47,0,0,0-.31-.33l-.4-.3Zm3.42-50.75c.33-.09.53,0,.62.29s-.05.47-.37.57a.45.45,0,0,1-.25-.86Zm.6,38.43c.16.07.19.18.09.31a.44.44,0,0,1-.49.15c-.21,0-.22-.09,0-.29S396,243.53,396,243.61Zm-.23,4.77c.07,0,.13-.11.19-.26s.13-.25.19-.27l0-.08c0-.05,0-.08,0-.09s0,0,0-.09l0-.15-.59.17Zm.18-44.61a.44.44,0,0,1,.63.32c.09.31,0,.51-.36.61-.13,0-.24-.1-.33-.41S395.86,203.81,396,203.77Zm1.47,48.5a.41.41,0,1,0,.51.28A.37.37,0,0,0,397.46,252.27Zm.06-9.08c.32-.09.53,0,.61.29s0,.47-.37.56-.33,0-.42-.34S397.32,243.25,397.52,243.19Zm3.9,3.58.28-.5-.5-.27Zm1.47-.42.38-.53-.73.8Zm2.63-4.2c0-.05-.13-.15-.36-.31s-.35-.29-.38-.4a1.74,1.74,0,0,1-.32-.58c-.12-.3-.2-.5-.23-.6l1-.26c.57-.13.92-.22,1.05-.26a1.82,1.82,0,0,0,.51-.27c.2-.14.32-.16.35-.06.43.5.42.89,0,1.18s-.71.43-.79.4l0,.26.18.28c.44.05.84.1,1.22.16a3.46,3.46,0,0,1,.88.12c.24.07.39.13.48.16a5.63,5.63,0,0,0-.6.51l-.5.48,0,.15a2.23,2.23,0,0,1-.19.64c-.1.26-.19.39-.25.41a3.38,3.38,0,0,1-.79.06,4,4,0,0,0-.68,0Zm.1,7.78c.2-.06.33,0,.41.3s0,.42-.18.47-.53,0-.61-.24S405.29,250,405.62,249.93Zm4.57-12.64c0,.05,0,.13.07.23a.66.66,0,0,1,0,.34l-.11.37a.29.29,0,0,0,0,.26.24.24,0,0,1-.06.18c0,.05.05.17.1.35s.12.39.18.62.13.45.19.66.1.33.11.39a2.14,2.14,0,0,1-.36.6,3.21,3.21,0,0,1-.47.56,3.58,3.58,0,0,0-.36-.7l-.66-1c-.24-.35-.46-.68-.65-1a3.92,3.92,0,0,0-.44-.59l-.16-.54Z"/><path class="cls-8" d="M446.8,241.38a3.3,3.3,0,0,0-1,.45,3.59,3.59,0,0,1-1.09.48,1,1,0,0,1-1-.25,4.13,4.13,0,0,1-.79-1.07,10.85,10.85,0,0,1-.62-1.42c-.18-.5-.33-1-.45-1.38-.28-1-.48-1.82-.61-2.51s-.28-1.6-.46-2.72q.6-.84.54-1.08a3.12,3.12,0,0,0-.69-.35,2.87,2.87,0,0,0-.76-.24s-.06-.09-.14-.13c.13,0,.41-.13.82-.28s.67-.34.74-.58a2.72,2.72,0,0,1-1.81-1.29,9.33,9.33,0,0,1-.81-1.91,13.37,13.37,0,0,1-.56-3.24,7.09,7.09,0,0,1,.91-3.32.76.76,0,0,1-.27-.21.32.32,0,0,0-.35-.11l0,.07-.1,0c-.06,0-.1,0-.11,0s0,0-.11,0a1.58,1.58,0,0,0-.77.64,8.87,8.87,0,0,1-.95-1.45,9.75,9.75,0,0,1-.91-2,1.51,1.51,0,0,1,.1-1.33,2.44,2.44,0,0,1,.85-.75c.34-.18.65-.34.93-.47s.39-.31.33-.52-.31-.26-.74-.17-.7,0-.8-.39c-.06-.21-.07-.35,0-.42a1.92,1.92,0,0,1,.2-.23,1.25,1.25,0,0,0,.24-.27.66.66,0,0,0,0-.55c-.24-.83-.31-1.31-.21-1.45a.67.67,0,0,0,0-.6,9.78,9.78,0,0,1-2-.68,3.26,3.26,0,0,1-1.17-.93,4.55,4.55,0,0,1-.69-1.27c-.17-.48-.35-1.06-.55-1.73a5.77,5.77,0,0,1-.21-1.11,5.29,5.29,0,0,0-.21-1.12,1.32,1.32,0,0,0-.75-.92,2.51,2.51,0,0,0-1.16-.17,6.77,6.77,0,0,0-1.17.21,1.55,1.55,0,0,0-.61.26q-.37.19-1.77.72l-3,1.16-3,1.16c-.93.35-1.53.56-1.79.64a3.56,3.56,0,0,1-1.64-.16,4.15,4.15,0,0,1-1.44-.55l.27,1.68a20.15,20.15,0,0,1-2.4.9q-1.47.47-5.4,1.59l1.42-1a5.74,5.74,0,0,1-2,.22,1.21,1.21,0,0,1-1.22-.91c-.07-.25.06-.43.38-.52a2,2,0,0,1,.41-.08,1.76,1.76,0,0,0,.4-.07,1.43,1.43,0,0,0,.76-.51c.18-.25.17-.71,0-1.38a4.08,4.08,0,0,0-.48-1.12c-.19-.29-.43-.69-.73-1.22l-.69.53-.34-1.16c0-.05-.25-.12-.7-.22a3.66,3.66,0,0,0-.65-.06l.69-.54a.83.83,0,0,1,0-.24,1.24,1.24,0,0,0,0-.33,2.42,2.42,0,0,0-.56-1,2,2,0,0,1-.49-.79A1.05,1.05,0,0,1,404,199c.13-.29.26-.46.39-.49l3.47-1.25c.15.52.41.79.77.83a3.87,3.87,0,0,0,1.34-.18,1.63,1.63,0,0,0-.19-.45.84.84,0,0,1-.13-.29c-.08-.26.21-.6.88-1a1.52,1.52,0,0,1,.53.39.67.67,0,0,0,.69.18c.33-.1.52-.26.55-.49a1.45,1.45,0,0,0,0-.59l1.87-.54,0,.68a2.49,2.49,0,0,0-.2.6,1.51,1.51,0,0,1-.22.53,2.62,2.62,0,0,0,1.29-.67q.32-.37.78-1c.34,0,.58.2.73.71a.76.76,0,0,1-.09.62.86.86,0,0,0-.07.69,1.73,1.73,0,0,0,.37.52,3,3,0,0,1,.34.45c.39-.11.62-.25.68-.4a1,1,0,0,0,0-.63,2.11,2.11,0,0,0-.18-.45c-.08-.14-.26-.2-.53-.18a1.66,1.66,0,0,0,.93-.48.64.64,0,0,0,.07-.48.42.42,0,0,0-.09-.14.33.33,0,0,1-.1-.14c-.09-.31.1-.53.56-.67a1.36,1.36,0,0,1,.77.29,2.65,2.65,0,0,0,1,.38,1.91,1.91,0,0,0,.51-.28,2.11,2.11,0,0,1,.41-.24c.13,0,.24.06.35.28a7.34,7.34,0,0,1,.27.76,3,3,0,0,0,.32.75c.13.21.26.3.39.26.58-.72,1.09-1.4,1.55-2s.8-1,1.13-1.42.57-.67.71-.71a.71.71,0,0,1,.86.22,2.51,2.51,0,0,1,.38,1,5.82,5.82,0,0,1,.12,1.14,3.69,3.69,0,0,0,0,.62c.42-.51.77-.94,1.06-1.31s.64-.8,1.06-1.31A1.89,1.89,0,0,0,430,192a2.25,2.25,0,0,0,0-1,.93.93,0,0,1,.68.35,4.74,4.74,0,0,1,.47.7,3.72,3.72,0,0,0,.46.67.55.55,0,0,0,.63.15,7.14,7.14,0,0,0,.76-.3,3.56,3.56,0,0,0,.74-.38c-.09-.09-.19-.18-.29-.29a.94.94,0,0,0-.28-.22l-.07.11a2.8,2.8,0,0,1,.15-.76,4.92,4.92,0,0,1,.46-1.18q0,.08.33,0c.2,0,.32,0,.35.11a3.49,3.49,0,0,1,.15.88,3,3,0,0,0,.14.88.94.94,0,0,0,.73-.63,1.06,1.06,0,0,1,.82-.65l.22,0,.2-.06a2.05,2.05,0,0,0-.15,1,.86.86,0,0,0,.14.29,2.19,2.19,0,0,1,.2.53,2.35,2.35,0,0,0,1.22-.76,3.16,3.16,0,0,0,.58-1.14,4.41,4.41,0,0,0,.13-1.21,4.74,4.74,0,0,0-.16-1.09,4.28,4.28,0,0,0-1-2c-.38-.31-1.28-.26-2.72.16-.06-.21-.05-.34,0-.4a5.36,5.36,0,0,1,.57-.24c.29-.11.65-.27,1.09-.48a12.51,12.51,0,0,0,1.62-1l.35-.1c.29-.09.46-.05.51.1l-.29.5,1,3.34c.06.2.22.27.48.19.85-.24,1.28-.61,1.28-1.12a5.75,5.75,0,0,0-.18-1.37c-.15-.52-.41-.79-.77-.83a.81.81,0,0,1-.73-.67,5,5,0,0,1,2.21-.09,17.15,17.15,0,0,1,1.81.36,1.19,1.19,0,0,1,0,.33,1,1,0,0,0,.06.4,8.24,8.24,0,0,0,.44,1.17c.19.42.4.83.61,1.21a3.2,3.2,0,0,0,.75.92.88.88,0,0,0,.81.23,4.34,4.34,0,0,0,1.07-.52.78.78,0,0,0,.43-.92l-.73-2.56a2.15,2.15,0,0,0-.38.15,1.56,1.56,0,0,1-.39.15c-.52.16-.83.08-.92-.23a4.75,4.75,0,0,0,1.22-1.32,2,2,0,0,0,.26-1q0-.41,0-.66c0-.16.11-.28.38-.36a4.3,4.3,0,0,1,1.17-.17.75.75,0,0,1,.76.62l-1.08.31.75,1.13a2.28,2.28,0,0,1,.4-.66c.28-.39.58-.8.92-1.23s.67-.82,1-1.17a2.74,2.74,0,0,1,.59-.54l.66,2.32a3.88,3.88,0,0,0,1.53-1.15A4.37,4.37,0,0,1,456,179.5a2.9,2.9,0,0,1,1.22,0q.74.13.84.51c.1.37-.12.78-.66,1.24a4,4,0,0,1-1.3.84,1.08,1.08,0,0,1-.48,0,1.41,1.41,0,0,1-.39-.1.91.91,0,0,1,0,.25,1.62,1.62,0,0,0,.06.4c.12.42.35.57.67.48a1.1,1.1,0,0,0,.41-.24,1.88,1.88,0,0,0,.29-.3,2,2,0,0,0,0,.76c.14.52.61.66,1.4.44s1-.52.9-.94c-.07-.25-.25-.33-.54-.22s-.47,0-.54-.22.05-.35.3-.59.54-.49.86-.75a9,9,0,0,0,.83-.78c.25-.27.34-.51.28-.71a.58.58,0,0,0-.37-.36.58.58,0,0,1-.37-.36c0-.15.12-.32.49-.51a5.17,5.17,0,0,1,.95-.4,4.14,4.14,0,0,1,.06,2,3,3,0,0,1-1.5,1.81,3,3,0,0,1,1.07.24,1.47,1.47,0,0,0,.94.11,1.24,1.24,0,0,0,.5-.48,1.24,1.24,0,0,1,.5-.48,1.14,1.14,0,0,1,1.32.5,5,5,0,0,1,.73,1.43.7.7,0,0,0,.68.52,8.17,8.17,0,0,0,1.23,0,3.32,3.32,0,0,1,1.27.18,1.23,1.23,0,0,1,.79.91,2,2,0,0,1,.14,1q-.1.24-1.47.63a2,2,0,0,1-1,.11,1.33,1.33,0,0,0-.68,0,5.78,5.78,0,0,0-1.51,1.06,4,4,0,0,1-1.75,1l-.2-.7-.9.38-1.79.81c-.66.3-1.28.59-1.87.88a8.59,8.59,0,0,0-1.07.55,1.37,1.37,0,0,0-.35.27,1.1,1.1,0,0,1-.35.27,2.07,2.07,0,0,1-1.28,0,2.07,2.07,0,0,0-1.28,0,.94.94,0,0,0-.79.94.88.88,0,0,1-.7.91c-.19.06-.38,0-.55-.26a1,1,0,0,0-.7-.39,2.43,2.43,0,0,0-.78,1.74l-3.54,1a4.69,4.69,0,0,0-.64-.19,1.8,1.8,0,0,0-.49-.07c-.4.12-.77.56-1.12,1.33a2.83,2.83,0,0,0-.38,1.62,3.66,3.66,0,0,0,.62,1.25,4,4,0,0,1,.67,1.4,4.49,4.49,0,0,1,.2,1.79,4.15,4.15,0,0,0,.17,1.71,1.92,1.92,0,0,0,.3.67l-.56.46q-.39.32-.81.69c-.29.25-.62.57-1,1a.84.84,0,0,0,.32.37,1.32,1.32,0,0,1,.3.29l0,.08.4-.28a.66.66,0,0,0,.28-.33l0,.15.05.16c0,.05.05.07.12.05a1.18,1.18,0,0,1-.18.89,5,5,0,0,1-.68.95,2.54,2.54,0,0,1,.66.06c.45.09.68.17.7.22a2.2,2.2,0,0,1-.1.78,2.53,2.53,0,0,0-.09.78c0,.28,0,.53,0,.76l.32.16a.43.43,0,0,0,.38.06.69.69,0,0,0,.5-.48,2.43,2.43,0,0,0,.11-.75,3.72,3.72,0,0,0-.18-1,.5.5,0,0,1,.57.3c.09.22.2.47.32.74a7.18,7.18,0,0,0,.4.85,1,1,0,0,0,.69.56l.39,2.82a.3.3,0,0,1-.18.14,1.44,1.44,0,0,1-1-.25,1.39,1.39,0,0,0-1-.25c-.06,0-.09,0-.08.07s0,0-.09.06l-.1,0a4.35,4.35,0,0,0,1.32,2,3.44,3.44,0,0,0,2.77.76,1.18,1.18,0,0,0,.49-.35,1.49,1.49,0,0,1,.58-.38,7.87,7.87,0,0,0-.56,1c-.23.45-.46.93-.71,1.42s-.5.92-.74,1.3-.44.59-.57.62l.62,2.17a1.09,1.09,0,0,0-.43.34c-.16.19-.23.33-.2.43a2.07,2.07,0,0,0,1.18,1.13,2.37,2.37,0,0,0,1.78.29,1.54,1.54,0,0,0,.5-.31,1.72,1.72,0,0,1,.59-.34l-2.1,3a1.69,1.69,0,0,0-.52.06.83.83,0,0,0-.61.47,1.91,1.91,0,0,0-.09.78q0,.47,0,.87a1.68,1.68,0,0,1-.11.71,8.64,8.64,0,0,0,.39,1c.19.45.38.92.57,1.43s.35,1,.51,1.41.26.75.32,1,.17.41.29.46a1.84,1.84,0,0,0,.36.11,2.79,2.79,0,0,1,.35.11c.12.05.21.2.29.46a1.92,1.92,0,0,1-.17.89,14.44,14.44,0,0,1-.61,1.39c-.25.5-.51,1-.76,1.44a4.41,4.41,0,0,1-.64.94,1.16,1.16,0,0,1,1,.21c0,.1,0,.23-.16.38a3,3,0,0,1-.37.36,1.17,1.17,0,0,1-.87-.05l-.79-.36-.9-.33A1.74,1.74,0,0,0,446.8,241.38ZM404.85,199q.18.63.87.42t.51-.81Zm2,3.29,3.11-.65-1.21-2.75Zm2,2.79.28-.5-1.38-1.12Zm.47-2.82a.27.27,0,0,0-.21.39,3.32,3.32,0,0,0,.59.76c.36.4.61.58.74.54s.24-.28.33-.72a2.69,2.69,0,0,0,.08-.82q0-.16-.69-.18A3.11,3.11,0,0,0,409.3,202.3Zm1.5,3.76a1.29,1.29,0,0,0-.74.93c-.17.52-.3.88-.38,1.07a2.71,2.71,0,0,0,2-.57C412,207.1,411.75,206.63,410.8,206.06Zm.48-6.51a4.23,4.23,0,0,0,.46-.26,7.39,7.39,0,0,0,.74-.55l.74-.59a2.65,2.65,0,0,0,.42-.37c0-.05-.15-.08-.4-.1a6.21,6.21,0,0,0-.84,0c-.31,0-.71.07-1.2.1l-.17.13Zm.83.68c-.2.06-.26.19-.2.4s.18.28.38.22a.27.27,0,0,0,.21-.39A.28.28,0,0,0,412.11,200.23Zm.51.28a.27.27,0,0,0-.21.39,3.32,3.32,0,0,0,.41.51c.26.29.46.42.59.38s.1-.21-.1-.52a6.19,6.19,0,0,1-.31-.54A.28.28,0,0,0,412.62,200.51Zm2.58.09c.26-.07.43,0,.5.07a1,1,0,0,1,.12.26,4.65,4.65,0,0,0-.2-.53.53.53,0,0,0-.58-.34l-.3.43Zm.46,4.57.39-.11-.09-.31-.39.11Zm.73-1.89.31-.42-.4.11Zm2.53-4.16c-.13,0-.32.34-.58.92a2.83,2.83,0,0,0-.35,1,3.4,3.4,0,0,0,1.47-.63c.13-.18.12-.5,0-1a1,1,0,0,0-.18-.24A.32.32,0,0,0,418.92,199.12Zm.42-1.89c-.2.06-.26.19-.21.4s.17.2.37.15.27-.17.22-.32A.28.28,0,0,0,419.34,197.23Zm1.11,2.37c0,.18.06.28.24.31a2.24,2.24,0,0,1,.4.09.24.24,0,0,1,.06-.18,1.1,1.1,0,0,0-.24-.27.51.51,0,0,0-.51-.1Zm3.83-1.85a.27.27,0,0,0-.21.39.31.31,0,1,0,.59-.17A.28.28,0,0,0,424.28,197.75Zm-.08-3.25.39-.11-.31.42Zm8.59,7.69c0-.05-.09-.06-.22,0s-.19.08-.18.13.11.14.25.1S432.82,202.29,432.79,202.19Zm-.22-8.17.4-.11-.07-.23-.39.11ZM436.43,209q-.19,0-.15.21c0,.15.13.21.26.17s.08-.1,0-.26S436.49,208.93,436.43,209Zm.93,1.74a.32.32,0,0,0,.18.62c.19-.05.26-.18.2-.39A.28.28,0,0,0,437.36,210.69Zm1.51-18.47c-.14,0-.33.34-.59.92a3.07,3.07,0,0,0-.35,1,3.27,3.27,0,0,0,1.47-.63c.13-.17.13-.5,0-1a.7.7,0,0,0-.17-.24A.33.33,0,0,0,438.87,192.22Zm.2,2.2a.28.28,0,0,0-.2.4.31.31,0,1,0,.59-.17A.29.29,0,0,0,439.07,194.42Zm.27,29.13a.28.28,0,0,0-.2.39c.06.21.19.29.38.23a.28.28,0,0,0,.21-.39A.28.28,0,0,0,439.34,223.55Zm1.92,1.13a4,4,0,0,0-1.52.81,1.3,1.3,0,0,0-.39,1.42,3.6,3.6,0,0,0,1.51-.86A1.28,1.28,0,0,0,441.26,224.68Zm-1.08,3.25c-.14,0-.19.08-.18.13s.11.14.24.1.09,0,.08-.11S440.24,227.91,440.18,227.93Zm.49-7.19a.72.72,0,0,0,.51-.44.86.86,0,0,0,.07-.49l-.78.23Zm-.06-32.46a.8.8,0,0,0,1.13.6c.39-.12.62-.32.67-.62a.93.93,0,0,0-1-.18C441,188.17,440.74,188.24,440.61,188.28Zm1.28,4.08q-.3.07-.27.75a5,5,0,0,0,.14,1c1-.29,1.37-.79,1.17-1.51a.55.55,0,0,0-.27-.39A1.41,1.41,0,0,0,441.89,192.36Zm.61,5.11.39-.11-.48-.2Zm.21,2.2.49-.14c-.07-.25-.3-.41-.67-.48Zm.91-10.16a.48.48,0,0,0,.22.19.37.37,0,0,0,.29.08l.56-.62a.56.56,0,0,0,.06-.56,1.41,1.41,0,0,0-.76-.79c-.08.25-.16.56-.26,1A2,2,0,0,0,443.62,189.51Zm.87,3q-.3.09-.18.48c.06.2.18.28.38.22s.26-.2.2-.43S444.69,192.48,444.49,192.53Zm1.08-1.06a1,1,0,0,0-.83.28,1.17,1.17,0,0,0-.22.52,1.4,1.4,0,0,0,0,.42c0,.1,0,0-.06-.23s0-.58.24-.66a.93.93,0,0,1,.41,0,1,1,0,0,0,.32,0C445.57,191.72,445.61,191.62,445.57,191.47Zm-.57-1.6q-.35.27-.33.51a1.86,1.86,0,0,0,.09.48l1-.28A1.12,1.12,0,0,0,445,189.87Zm1.68,29.56c-.14,0-.19.11-.16.21s.11.14.25.1.08-.08.05-.18S446.74,219.41,446.68,219.43Zm.56,3.45.39-.11-.06-.24-.4.12Zm.46-4.33c-.2.06-.26.19-.21.4s.17.2.37.14.27-.16.22-.31A.27.27,0,0,0,447.7,218.55ZM452.52,186a14.25,14.25,0,0,0,.54,1.49,7.77,7.77,0,0,0,.72,1.42,1.91,1.91,0,0,0,1-.92,1.41,1.41,0,0,0,.23-1l-1.47.42-.45-1.55Zm.58-2.43c0-.1-.11-.14-.24-.1s-.18.11-.15.21.11.14.24.1S453.13,183.71,453.1,183.6Zm.84,5.89q-.19,0-.15.21c0,.1.11.13.24.1s.08-.08.05-.19S454,189.47,453.94,189.49Zm.64-3.71a.27.27,0,0,0-.21.39q.08.24.36.15c.2-.06.28-.16.23-.32A.28.28,0,0,0,454.58,185.78Zm.43-1.47c0-.05-.09-.06-.22,0s-.19.08-.17.13.1.14.24.1S455,184.42,455,184.31Zm1.34-4.24a.27.27,0,0,0-.21.39q.06.24.36.15c.2-.06.27-.16.23-.32A.28.28,0,0,0,456.35,180.07ZM459.6,184c-.23.18-.32.35-.28.5s.09.31.13.47l.79-.23Zm2.76-.79a1.07,1.07,0,0,0,.37.56c.19.17.35.24.48.2a.58.58,0,0,0,.33-.34.75.75,0,0,0,.08-.45.32.32,0,0,0-.39-.26,3.65,3.65,0,0,0-.5.1.5.5,0,0,0-.19.1Zm2.89,1.18a1,1,0,0,0-.81.91,4.26,4.26,0,0,0,.14,1.22l.79-.23c.06,0,.07-.31,0-.88S465.28,184.5,465.25,184.39Zm.46.12q-.3.09-.18.48c.06.2.18.28.38.22a.28.28,0,0,0,.21-.39C466,184.56,465.91,184.46,465.71,184.51Z"/><image width="750" height="281" transform="translate(122.45 152.71) scale(0.23)" xlink:href="1176-1.png"/></svg>