<svg xmlns="http://www.w3.org/2000/svg" xmlns:xlink="http://www.w3.org/1999/xlink" viewBox="0 0 24 28">
  <defs>
    <style>
      .cls-1 {
        fill: rgba(255,180,170,0.45);
      }

      .cls-2 {
        clip-path: url(#clip-højtaler);
      }

      .cls-3 {
        clip-path: url(#clip-path);
      }
    </style>
    <clipPath id="clip-path">
      <circle id="Mask" class="cls-1" cx="12" cy="12" r="12"/>
    </clipPath>
    <clipPath id="clip-højtaler">
      <rect width="24" height="28"/>
    </clipPath>
  </defs>
  <g id="højtaler" class="cls-2">
    <g id="Bitmap" transform="translate(-0.5 1.407)">
      <circle id="Mask-2" data-name="Mask" class="cls-1" cx="12" cy="12" r="12"/>
      <g id="Bitmap-2" data-name="Bitmap" class="cls-3">
        <g id="speaker-01" transform="translate(5.5 6.5)">
          <path id="Shape" class="cls-1" d="M6,11H2.25a.7.7,0,0,1-.75-.733V7.557l-.976-.22A.876.876,0,0,1,0,6.6V3.674a.888.888,0,0,1,.525-.733l10.5-2.93A1.146,1.146,0,0,1,11.182,0,.749.749,0,0,1,12,.744V9.462a.777.777,0,0,1-.768.765.667.667,0,0,1-.207-.033L6.75,9.022v1.246A.7.7,0,0,1,6,11ZM3,8V9.535H5.25V8.656Z"/>
        </g>
      </g>
    </g>
  </g>
</svg>
