<svg xmlns="http://www.w3.org/2000/svg" xmlns:xlink="http://www.w3.org/1999/xlink" viewBox="0 0 356 153">
  <defs>
    <style>
      .cls-1 {
        clip-path: url(#clip-kunst_5);
      }

      .cls-2 {
        fill: #ea847c;
      }

      .cls-3 {
        fill: #f7cac6;
      }

      .cls-4 {
        fill: #f7a39b;
      }

      .cls-5 {
        fill: #ffb4aa;
      }

      .cls-6 {
        fill: #ea5045;
      }

      .cls-7 {
        fill: #d37b79;
      }

      .cls-8 {
        fill: #f79d94;
      }

      .cls-9 {
        fill: none;
      }
    </style>
    <clipPath id="clip-kunst_5">
      <rect width="356" height="153"/>
    </clipPath>
  </defs>
  <g id="kunst_5" data-name="kunst – 5" class="cls-1">
    <g id="Artboard_6" data-name="Artboard 6" transform="matrix(0.966, -0.259, 0.259, 0.966, -63.159, -6.676)">
      <path id="Path_4450" data-name="Path 4450" class="cls-2" d="M59.2,208.541l-29.6-.9-29.6-.9,15.606-26.094L31.219,154.55l13.993,27Z" transform="translate(0 -47.474)"/>
      <path id="Path_4451" data-name="Path 4451" class="cls-3" d="M115.059,196.24,90.931,210.165,66.81,224.1,61.2,186.518,55.59,148.94l29.735,23.653Z" transform="translate(-17.903 -45.98)"/>
      <path id="Path_4452" data-name="Path 4452" class="cls-4" d="M50.174,157.1,35.327,146.824,20.48,136.546,46.154,115.32,71.834,94.1,61,125.6Z" transform="translate(-6.596 -27.674)"/>
      <path id="Path_4453" data-name="Path 4453" class="cls-5" d="M84.2,149.687l16.088-14.128,16.094-14.128,8.535,25.952,8.535,25.952L108.83,161.51Z" transform="translate(-27.117 -36.595)"/>
      <path id="Path_4454" data-name="Path 4454" class="cls-6" d="M132.289,180.95l-11.22,14.644-11.22,14.644-18.325-25.66L73.2,158.91l29.545,11.023Z" transform="translate(-23.575 -48.887)"/>
      <path id="Path_4455" data-name="Path 4455" class="cls-2" d="M84.348,92.95,99.29,103.085l14.942,10.135-25.7,21.8-25.7,21.8,10.759-31.938Z" transform="translate(-20.235 -27.3)"/>
      <path id="Path_4456" data-name="Path 4456" class="cls-5" d="M57,180.028l-15.972,9.22-15.979,9.227-1.647-21.3L21.76,155.88l17.62,12.074Z" transform="translate(-7.008 -47.84)"/>
      <path id="Path_4457" data-name="Path 4457" class="cls-3" d="M133.39,127.05l25.131,23.681,25.138,23.687-20.291-3.647-20.291-3.641-4.847-20.04Z" transform="translate(-42.959 -38.415)"/>
      <path id="Path_4458" data-name="Path 4458" class="cls-4" d="M149.138,234.817l-17.993-4.773-17.986-4.773,12.725-11.681,12.732-11.681,5.261,16.454Z" transform="translate(-36.444 -63.039)"/>
      <path id="Path_4459" data-name="Path 4459" class="cls-5" d="M141.26,131.772l25.769-3.661L192.8,124.45l-10.589,18-10.589,17.993L156.439,146.11Z" transform="translate(-45.494 -37.512)"/>
      <path id="Path_4460" data-name="Path 4460" class="cls-2" d="M213.847,160.736l-13.939-3.844-13.938-3.844,14.562-25.592,14.555-25.586-.617,29.436Z" transform="translate(-59.893 -30.207)"/>
      <path id="Path_4461" data-name="Path 4461" class="cls-7" d="M289.23,199.863,306.721,162l-49.171-8.19Z" transform="translate(-82.946 -47.182)"/>
      <path id="Path_4462" data-name="Path 4462" class="cls-6" d="M258.509,145.482l-8.42,5.146-7.383,4.515-15.8,9.667.305-17.247.305-17.254,15.491,7.586Z" transform="translate(-73.078 -39.425)"/>
      <path id="Path_4463" data-name="Path 4463" class="cls-2" d="M345.451,132.7,304.28,193.064,316.666,154.4Z" transform="translate(-97.996 -40.342)"/>
      <path id="Path_4464" data-name="Path 4464" class="cls-7" d="M186.16,176.66l13.769,3.959,13.762,3.959-8.129,2.339-8.122,2.346-5.641-6.3Z" transform="translate(-59.954 -54.488)"/>
      <path id="Path_4465" data-name="Path 4465" class="cls-4" d="M273.66,201.763l-66.12-19.457,36.812-22.6Z" transform="translate(-66.84 -49.092)"/>
      <path id="Path_4466" data-name="Path 4466" class="cls-5" d="M207.54,193.04,260.372,238.3l10.7-26.562Z" transform="translate(-66.84 -60.182)"/>
      <path id="Path_4467" data-name="Path 4467" class="cls-7" d="M253.425,238.3,200.593,193.04,185.97,214.334Z" transform="translate(-59.893 -60.182)"/>
      <path id="Path_4468" data-name="Path 4468" class="cls-2" d="M191.157,190.567,174.866,209.5l-16.284,18.921-6.352-21.938L145.87,184.54l22.643,3.017Z" transform="translate(-46.979 -57.445)"/>
      <path id="Path_4469" data-name="Path 4469" class="cls-7" d="M285.47,247.182l10.7-26.562,20.738,6.651Z" transform="translate(-91.938 -69.065)"/>
      <path id="Path_4470" data-name="Path 4470" class="cls-6" d="M301.26,213.171l56.066-15.681L322,219.821Z" transform="translate(-97.023 -61.345)"/>
      <path id="Path_4471" data-name="Path 4471" class="cls-5" d="M305.93,191.423,345.983,132.7l12.847,43.924Z" transform="translate(-98.527 -40.331)"/>
      <path id="Path_4472" data-name="Path 4472" class="cls-4" d="M378.452,234.662,367.178,197.49,331.85,219.821Z" transform="translate(-106.875 -61.616)"/>
      <path id="Path_4473" data-name="Path 4473" class="cls-6" d="M365.01,132.7l54.873,11.695,1.227,5.166-43.253,27.063Z" transform="translate(-117.554 -40.251)"/>
      <path id="Path_4474" data-name="Path 4474" class="cls-4" d="M397.158,107.19,365.01,124.484l83.861-7.634Z" transform="translate(-117.554 -31.803)"/>
      <path id="Path_4475" data-name="Path 4475" class="cls-2" d="M419.883,140.768l28.989-19.328-83.861,7.634Z" transform="translate(-117.554 -36.467)"/>
      <path id="Path_4476" data-name="Path 4476" class="cls-7" d="M383.96,184.633l43.253-27.063,9.22,36.019Z" transform="translate(-123.657 -48.358)"/>
      <path id="Path_4477" data-name="Path 4477" class="cls-2" d="M395.234,234.662l41.2-28.216L383.96,197.49Z" transform="translate(-123.657 -61.616)"/>
      <path id="Path_4478" data-name="Path 4478" class="cls-3" d="M445.95,140.768l28.989-19.328,35.572,6.583-5.952,9.112Z" transform="translate(-143.622 -36.467)"/>
      <path id="Path_4479" data-name="Path 4479" class="cls-4" d="M490.43,166.711l14.128-22.121-58.608,3.634,1.227,5.166Z" transform="translate(-143.622 -44.046)"/>
      <path id="Path_4480" data-name="Path 4480" class="cls-3" d="M456.98,193.589l-9.22-36.019,43.253,13.322Z" transform="translate(-144.204 -48.358)"/>
      <path id="Path_4481" data-name="Path 4481" class="cls-7" d="M484.98,238.777l10.413-61.557-34.033,22.7Z" transform="translate(-148.584 -55.088)"/>
      <path id="Path_4482" data-name="Path 4482" class="cls-2" d="M506.613,177.22,528.179,233.2,496.2,238.777Z" transform="translate(-159.805 -55.088)"/>
      <path id="Path_4483" data-name="Path 4483" class="cls-7" d="M527.18,170.65,511.56,175.1l21.565,55.978Z" transform="translate(-164.752 -52.972)"/>
      <path id="Path_4484" data-name="Path 4484" class="cls-4" d="M576.033,260.942,543.37,244.95l32.663-31.24Z" transform="translate(-174.996 -66.839)"/>
      <path id="Path_4485" data-name="Path 4485" class="cls-5" d="M573.209,156.11v39.049L540.546,226.4,534.6,165.967Z" transform="translate(-172.172 -48.289)"/>
      <path id="Path_4486" data-name="Path 4486" class="cls-2" d="M573.209,141.03v10.223L534.6,161.111Z" transform="translate(-172.172 -42.874)"/>
      <path id="Path_4487" data-name="Path 4487" class="cls-2" d="M532.4,143.443l1.491,17.667L572.5,141.03Z" transform="translate(-171.463 -42.874)"/>
      <path id="Path_4488" data-name="Path 4488" class="cls-3" d="M511.56,166.711l14.128-22.121,1.491,17.667Z" transform="translate(-164.752 -44.046)"/>
      <path id="Path_4489" data-name="Path 4489" class="cls-3" d="M532.4,140.262l5.952-9.112,34.148,6.7Z" transform="translate(-171.463 -39.607)"/>
      <path id="Path_4490" data-name="Path 4490" class="cls-7" d="M578.6,132.814,568.251,115.52,551.33,127.167Z" transform="translate(-177.56 -34.525)"/>
      <path id="Path_4491" data-name="Path 4491" class="cls-2" d="M557.173,94.95l7.81,13.945-16.921,11.647-6.881-1.051Z" transform="translate(-174.291 -27.823)"/>
      <path id="Path_4492" data-name="Path 4492" class="cls-2" d="M586.635,107.19v22.942L576.29,112.837Z" transform="translate(-185.599 -31.819)"/>
      <path id="Path_4493" data-name="Path 4493" class="cls-7" d="M564.77,81.787l7.81,13.945,10.345-5.647V54.08Z" transform="translate(-181.888 -14.479)"/>
      <path id="Path_4494" data-name="Path 4494" class="cls-3" d="M554.62,70.256,561.5,81.787,579.656,54.08Z" transform="translate(-178.62 -14.457)"/>
      <path id="Path_4495" data-name="Path 4495" class="cls-2" d="M488.71,99.746,524.282,54.08l9.112,16.176Z" transform="translate(-157.393 -14.486)"/>
      <path id="Path_4496" data-name="Path 4496" class="cls-4" d="M575.328,50.9V44.21L541.18,50.9l9.112,16.176Z" transform="translate(-174.291 -11.053)"/>
      <path id="Path_4497" data-name="Path 4497" class="cls-2" d="M575.328,9.89V33.157L541.18,39.848Z" transform="translate(-174.291 0)"/>
      <path id="Path_4498" data-name="Path 4498" class="cls-5" d="M533.393,77.94l6.881,11.532-15.993,24.542L488.71,107.43Z" transform="translate(-157.393 -22.283)"/>
      <path id="Path_4499" data-name="Path 4499" class="cls-6" d="M513.96,276.658l3.946-5.878,4.718,5.878Z" transform="translate(-165.525 -85.219)"/>
      <path id="Path_4500" data-name="Path 4500" class="cls-3" d="M241.78,250.45l2.935,23.538,4.746-18.332Z" transform="translate(-77.867 -78.672)"/>
      <path id="Path_4501" data-name="Path 4501" class="cls-6" d="M212.67,244.13v5.552l4.156-2.78Z" transform="translate(-68.492 -76.636)"/>
      <path id="Path_4502" data-name="Path 4502" class="cls-8" d="M173.49,262.952l13.322,11.071,1.81-14.223Z" transform="translate(-55.874 -81.683)"/>
      <path id="Path_4503" data-name="Path 4503" class="cls-3" d="M49.89,70.729l5.735-3.159,4.657,7.9Z" transform="translate(-16.067 -18.838)"/>
      <path id="Path_4504" data-name="Path 4504" class="cls-3" d="M125.52,109.54l8.9,5.871,12.339-5.871Z" transform="translate(-40.425 -32.541)"/>
      <path id="Path_4505" data-name="Path 4505" class="cls-8" d="M262.44,113.468l6.095,4.678,3.39-6.935Z" transform="translate(-84.521 -33.089)"/>
      <path id="Path_4506" data-name="Path 4506" class="cls-8" d="M354.05,95.072,389.533,77.94l-1.376,16.223Z" transform="translate(-114.024 -22.242)"/>
      <path id="Path_4507" data-name="Path 4507" class="cls-6" d="M474.32,77.94V95.072h10.074Z" transform="translate(-152.758 -22.242)"/>
      <path id="Path_4508" data-name="Path 4508" class="cls-3" d="M523.08,43.659l5.335,5.539,6.935-10.278Z" transform="translate(-168.462 -9.349)"/>
      <rect id="Rectangle_791" data-name="Rectangle 791" class="cls-9" width="116.945" height="43.815" transform="translate(83.014 112.55)"/>
    </g>
  </g>
</svg>
