<svg xmlns="http://www.w3.org/2000/svg" width="511.63" height="626.31" viewBox="0 0 511.63 626.31"><defs><style>.cls-1{fill:#ececec;}.cls-2{fill:#dedede;}.cls-3{fill:#dfdfdf;}.cls-4{fill:#dcdcdc;}.cls-5{fill:#f6f6f6;}.cls-6{fill:#6c6a6a;}.cls-7{fill:#706e6e;}.cls-8{fill:#716f6f;}.cls-9{fill:#e3e3e3;}.cls-10{fill:#e7e7e7;}.cls-11{fill:#787676;}.cls-12{fill:#737171;}.cls-13{fill:#7c7a7a;}.cls-14{fill:#747272;}.cls-15{fill:#6e6c6c;}.cls-16{fill:#8b8a8a;}.cls-17{fill:#8c8b8b;}.cls-18{fill:#a09f9f;}.cls-19{fill:#6d6b6b;}.cls-20{fill:#d7d7d7;}.cls-21{fill:#747373;}.cls-22{fill:#6a6868;}.cls-23{fill:#6b6969;}.cls-24{fill:#6f6d6d;}.cls-25{fill:#eaeaea;}.cls-26{fill:#727070;}.cls-27{fill:#797878;}.cls-28{fill:#787777;}.cls-29{fill:#767474;}.cls-30{fill:#817f7f;}.cls-31{fill:#8a8888;}.cls-32{fill:#878585;}.cls-33{fill:#7a7878;}.cls-34{fill:#dadada;}.cls-35{fill:#929191;}.cls-36{fill:#8e8c8c;}.cls-37{fill:#afaeae;}.cls-38{fill:#858484;}.cls-39{fill:#8e8d8d;}.cls-40{fill:#e6e6e6;}.cls-41{fill:#e9e9e9;}.cls-42{fill:#e1e1e1;}</style></defs><title>Asset 1</title><g id="Layer_2" data-name="Layer 2"><g id="Layer_1-2" data-name="Layer 1"><path class="cls-1" d="M.38,87.5V47a3.15,3.15,0,0,1,2.32-.72c.92,0,1.83,0,2.75,0q250.53,0,501.06,0c1.63,0,3.34-.45,4.87.57a2.81,2.81,0,0,1,.24,1.69q0,18.78,0,37.56a3.21,3.21,0,0,1-.18,1.47,3.12,3.12,0,0,1-2.34.64c-.91,0-1.83,0-2.75,0q-250.44,0-500.89,0C3.75,88.21,1.93,88.72.38,87.5Z" transform="translate(-0.38 -0.47)"/><path class="cls-1" d="M.38,46V5.5A3.15,3.15,0,0,1,2.7,4.78c.92,0,1.83,0,2.75,0q250.53,0,501.06,0c1.63,0,3.34-.45,4.87.57a2.81,2.81,0,0,1,.24,1.69q0,18.78,0,37.55a3.2,3.2,0,0,1-.18,1.47c-.89.67-1.92.42-2.9.42H3.53C2.46,46.49,1.34,46.74.38,46Z" transform="translate(-0.38 -0.47)"/><path class="cls-1" d="M.38,294.5V254a3.15,3.15,0,0,1,2.32-.72c.92,0,1.83,0,2.75,0q250.53,0,501.06,0c1.63,0,3.34-.45,4.87.57a2.81,2.81,0,0,1,.24,1.69q0,18.78,0,37.56a3.21,3.21,0,0,1-.18,1.47,3.12,3.12,0,0,1-2.34.64c-.91,0-1.83,0-2.75,0q-250.44,0-500.89,0C3.75,295.21,1.93,295.72.38,294.5Z" transform="translate(-0.38 -0.47)"/><path class="cls-1" d="M.38,543V502.5a3.15,3.15,0,0,1,2.32-.72c.92,0,1.83,0,2.75,0q250.53,0,501.06,0c1.63,0,3.34-.45,4.87.57a2.81,2.81,0,0,1,.24,1.69q0,18.78,0,37.56a3.21,3.21,0,0,1-.18,1.47,3.12,3.12,0,0,1-2.34.64c-.91,0-1.83,0-2.75,0q-250.44,0-500.89,0C3.76,543.71,1.93,544.22.38,543Z" transform="translate(-0.38 -0.47)"/><path class="cls-1" d="M.38,253V213a3,3,0,0,1,2.3-.75h2q251.3,0,502.59,0c1.38,0,2.86-.41,4.11.59a2.81,2.81,0,0,1,.24,1.69q0,18.52,0,37a3.2,3.2,0,0,1-.18,1.47c-.89.66-1.92.42-2.9.42H3.52C2.46,253.49,1.34,253.74.38,253Z" transform="translate(-0.38 -0.47)"/><path class="cls-1" d="M.38,377V337a2.93,2.93,0,0,1,2.3-.75c.67,0,1.33,0,2,0q251.3,0,502.6,0c1.37,0,2.85-.42,4.1.59a2.81,2.81,0,0,1,.24,1.69q0,18.52,0,37.06a3.2,3.2,0,0,1-.18,1.47,2.25,2.25,0,0,1-1.57.65c-.67,0-1.33,0-2,0H4.18C2.88,377.74,1.48,378.08.38,377Z" transform="translate(-0.38 -0.47)"/><path class="cls-1" d="M.38,418.5v-40a2.93,2.93,0,0,1,2.3-.75c.67,0,1.33,0,2,0q251.3,0,502.6,0c1.37,0,2.85-.42,4.1.59a2.81,2.81,0,0,1,.24,1.69q0,18.52,0,37.06a3.2,3.2,0,0,1-.18,1.47,2.25,2.25,0,0,1-1.57.65c-.67,0-1.33,0-2,0H4.18C2.88,419.24,1.48,419.58.38,418.5Z" transform="translate(-0.38 -0.47)"/><path class="cls-1" d="M.38,335.5v-40C1.59,294.66,3,295,4.27,295q118.35,0,236.72,0,133.23,0,266.46,0c1.31,0,2.67-.32,3.93.35a2.81,2.81,0,0,1,.24,1.69q0,18.53,0,37.05a3.21,3.21,0,0,1-.18,1.47,2.65,2.65,0,0,1-2.07.66H4.18C2.88,336.24,1.48,336.57.38,335.5Z" transform="translate(-0.38 -0.47)"/><path class="cls-1" d="M.38,584V544c1.21-.84,2.59-.48,3.89-.48q119.1,0,238.22,0,132.48,0,265,0c1.31,0,2.67-.32,3.93.35a2.82,2.82,0,0,1,.24,1.69q0,18.53,0,37.05a3.21,3.21,0,0,1-.18,1.47,2.65,2.65,0,0,1-2.07.66H4.18C2.88,584.74,1.48,585.07.38,584Z" transform="translate(-0.38 -0.47)"/><path class="cls-1" d="M.38,460V420a2.93,2.93,0,0,1,2.3-.75c.67,0,1.33,0,2,0q251.3,0,502.6,0c1.37,0,2.85-.42,4.1.59a2.81,2.81,0,0,1,.24,1.69q0,18.52,0,37.06a3.2,3.2,0,0,1-.18,1.47,2.25,2.25,0,0,1-1.57.65c-.67,0-1.33,0-2,0H4.18C2.88,460.74,1.48,461.08.38,460Z" transform="translate(-0.38 -0.47)"/><path class="cls-1" d="M.38,128.5v-40C1.59,87.66,3,88,4.27,88q118.61,0,237.22,0,133,0,266,0c1.31,0,2.67-.32,3.93.35a2.82,2.82,0,0,1,.24,1.69q0,18.52,0,37.05a3.21,3.21,0,0,1-.18,1.47,2.65,2.65,0,0,1-2.07.66H4.18C2.88,129.24,1.48,129.57.38,128.5Z" transform="translate(-0.38 -0.47)"/><path class="cls-1" d="M.38,625.5v-40a3,3,0,0,1,2.3-.75H4.93q251.06,0,502.09,0c1.46,0,3-.44,4.36.59a2.81,2.81,0,0,1,.24,1.69q0,18.53,0,37.05a3.2,3.2,0,0,1-.18,1.47c-.89.66-1.92.42-2.9.42H3.53C2.46,626,1.34,626.24.38,625.5Z" transform="translate(-0.38 -0.47)"/><path class="cls-1" d="M.38,501.5v-40a3,3,0,0,1,2.3-.75h2q251.3,0,502.59,0c1.38,0,2.86-.41,4.11.59a2.81,2.81,0,0,1,.24,1.69q0,18.52,0,37.05a3.2,3.2,0,0,1-.18,1.47c-.89.66-1.92.42-2.9.42H3.53C2.46,502,1.34,502.24.38,501.5Z" transform="translate(-0.38 -0.47)"/><path class="cls-1" d="M.38,211.5v-40a2.93,2.93,0,0,1,2.3-.75c.67,0,1.33,0,2,0q251.3,0,502.6,0c1.37,0,2.85-.42,4.1.59a2.81,2.81,0,0,1,.24,1.69q0,18.52,0,37.06a3.2,3.2,0,0,1-.18,1.47,2.25,2.25,0,0,1-1.57.65c-.67,0-1.33,0-2,0H4.18C2.88,212.24,1.48,212.58.38,211.5Z" transform="translate(-0.38 -0.47)"/><path class="cls-1" d="M.38,170V130a2.93,2.93,0,0,1,2.3-.75c.67,0,1.33,0,2,0q251.3,0,502.6,0c1.37,0,2.85-.42,4.1.59a2.81,2.81,0,0,1,.24,1.69q0,18.52,0,37.06a3.2,3.2,0,0,1-.18,1.47,2.25,2.25,0,0,1-1.57.65c-.67,0-1.33,0-2,0H4.18C2.88,170.74,1.48,171.08.38,170Z" transform="translate(-0.38 -0.47)"/><path class="cls-1" d="M.38,4.5c0-4,0-4,4-4h507a6.34,6.34,0,0,1-.12,4.21,6.61,6.61,0,0,1-3,.28H3.77C2.63,5,1.42,5.27.38,4.5Z" transform="translate(-0.38 -0.47)"/><path class="cls-2" d="M511.36,585.48l-3.25,0H.38V584H508.1l3.25,0A1.16,1.16,0,0,1,511.36,585.48Z" transform="translate(-0.38 -0.47)"/><path class="cls-2" d="M511.35,461.47l-3.5,0H.38V460H508.86l2.5,0A1.16,1.16,0,0,1,511.35,461.47Z" transform="translate(-0.38 -0.47)"/><path class="cls-2" d="M511.35,420l-3.5,0H.38v-1.5H508.11l3.24,0A1.16,1.16,0,0,1,511.35,420Z" transform="translate(-0.38 -0.47)"/><path class="cls-2" d="M511.36,378.48l-3.25,0H.38V377H508.1c1.09,0,2.17,0,3.25,0A1.16,1.16,0,0,1,511.36,378.48Z" transform="translate(-0.38 -0.47)"/><path class="cls-2" d="M.38,335.5H507.85l3.5,0a1.16,1.16,0,0,1,0,1.45l-2.5,0H.38Z" transform="translate(-0.38 -0.47)"/><path class="cls-2" d="M.38,211.5H508.86l2.5,0a1.16,1.16,0,0,1,0,1.45l-3.25,0H.38Z" transform="translate(-0.38 -0.47)"/><path class="cls-3" d="M.38,170H508.1l3.25,0a1.17,1.17,0,0,1,0,1.46l-3.25,0H.38Z" transform="translate(-0.38 -0.47)"/><path class="cls-2" d="M511.36,130l-2.5,0H.38v-1.5H508.1l3.25,0A1.16,1.16,0,0,1,511.36,130Z" transform="translate(-0.38 -0.47)"/><path class="cls-2" d="M.38,625.5H508.1l3.25,0a.7.7,0,0,1,0,1q-254.37,0-508.75-.07C2,626.43.32,627.66.38,625.5Z" transform="translate(-0.38 -0.47)"/><path class="cls-4" d="M511.35,88.47l-3,0H.38v-1H509.61l1.75,0A.63.63,0,0,1,511.35,88.47Z" transform="translate(-0.38 -0.47)"/><path class="cls-4" d="M.38,501.5H509.11l2.25,0a.65.65,0,0,1,0,1l-2,0H.38Z" transform="translate(-0.38 -0.47)"/><path class="cls-4" d="M.38,46H509.11l2.25,0a.65.65,0,0,1,0,1l-2,0H.38Z" transform="translate(-0.38 -0.47)"/><path class="cls-4" d="M.38,253H508.86l2.5,0a.65.65,0,0,1,0,1l-1.75,0H.38Z" transform="translate(-0.38 -0.47)"/><path class="cls-4" d="M.38,4.5h508l3,0a.63.63,0,0,1,0,1l-1.75,0H.38Z" transform="translate(-0.38 -0.47)"/><path class="cls-4" d="M511.36,295.48l-2.25,0H.38v-1h509l2,0A.65.65,0,0,1,511.36,295.48Z" transform="translate(-0.38 -0.47)"/><path class="cls-4" d="M511.36,544l-2.5,0H.38v-1H509.61l1.75,0A.65.65,0,0,1,511.36,544Z" transform="translate(-0.38 -0.47)"/><path class="cls-5" d="M511.36,544V501.52q0-20,0-40c0-.48,0-1,0-1.45q0-20,0-40c0-.49,0-1,0-1.46v-40c0-.49,0-1,0-1.46q0-20,0-40c0-.49,0-1,0-1.45q0-20,0-40V253q0-20,0-40.05c0-.48,0-1,0-1.45q0-20,0-40V170q0-20,0-40c0-.49,0-1,0-1.45v-40c0-.32,0-.64,0-1v-82c0-.32,0-.64,0-1l0-4c.15.11.52-.25.5.25,0,.67,0,1.33,0,2q0,310.76,0,621.5c0,.73.57,1.7-.47,2.25l0-1q0-20,0-40c0-.49,0-1,0-1.45Q511.35,564,511.36,544Z" transform="translate(-0.38 -0.47)"/><path class="cls-6" d="M14.35,71a18.59,18.59,0,0,0,1.33-1.77c.25-.42.3-.81-.43-1.09-3.68-1.43-4.08-3.4-1.35-6.17,1-.43,1.16.19,1.23.94a12.26,12.26,0,0,0,.24,2.85c.46-1.07.13-2,.25-2.85s.27-1.37,1.24-.94c3.46,3.48,2.47,7.5-2.4,9.71C14.13,71.46,14.07,71.23,14.35,71Z" transform="translate(-0.38 -0.47)"/><path class="cls-6" d="M56.86,61.9c3.51,3.18,2.68,7.27-2,9.62-.54.2-.62-.06-.51-.51A5.17,5.17,0,0,0,56,68.15c-1.44,0-2.94-.06-3.49-1.69A3.88,3.88,0,0,1,53.88,62c.88-.52,1.22,0,1.34.75a13.41,13.41,0,0,0,.24,2.93,14.86,14.86,0,0,0,.16-2.81C55.69,62.11,55.91,61.54,56.86,61.9Z" transform="translate(-0.38 -0.47)"/><path class="cls-7" d="M69.67,70.93c.43-2.32-.93-3.43-2.71-4.3.67-.88,1.78-1.3,1.5-2.53s-1.53-.92-2.5-1.33c1.25-1.15,2.53-1.48,3.89-.6s1.21,1.85.33,3c-.46.59.17.85.44,1.21C72,68.17,71.5,69.67,69.67,70.93Z" transform="translate(-0.38 -0.47)"/><path class="cls-8" d="M29.38,62c2.25,2.29,2.5,5,1.42,7.83-.57,1.54-1.58,2.55-3.42,2.1a.7.7,0,0,1,0-.77c1.24-2.35.37-4.89.67-7.32C28.18,63.1,27.45,61.52,29.38,62Z" transform="translate(-0.38 -0.47)"/><path class="cls-8" d="M36.88,62c2.25,2.29,2.5,5,1.42,7.83-.57,1.54-1.58,2.55-3.42,2.1a.7.7,0,0,1,0-.77c1.24-2.35.37-4.89.67-7.32C35.68,63.1,35,61.52,36.88,62Z" transform="translate(-0.38 -0.47)"/><path class="cls-9" d="M29.38,62c-.65,0-.69.19-.64.88.17,2.32.17,4.66.18,7,0,1-.18,1.9-1.54,1.65-2.31-2.6-1.25-5.58-.95-8.46a10.47,10.47,0,0,1,.44-1.16A1.83,1.83,0,0,1,29.38,62Z" transform="translate(-0.38 -0.47)"/><path class="cls-9" d="M36.88,62c-.65,0-.69.19-.64.88.17,2.32.17,4.66.18,7,0,1-.18,1.9-1.54,1.65-2.31-2.6-1.25-5.58-1-8.46a10.47,10.47,0,0,1,.44-1.16A1.83,1.83,0,0,1,36.88,62Z" transform="translate(-0.38 -0.47)"/><path class="cls-6" d="M76.38,62c2.93,1.77,3.52,7.32,1,9.44a2.39,2.39,0,0,1-3.16.16,1.58,1.58,0,0,1,.48-.58c1.45-.63,1.24-2,1.41-3.2.23-1.74-.44-3.46-.17-5.21A1.22,1.22,0,0,1,76.38,62Z" transform="translate(-0.38 -0.47)"/><path class="cls-6" d="M26.87,61.89c.93,1.31-.19,2.61,0,4,.25,1.87-.15,3.81.52,5.66a2.8,2.8,0,0,0,0,.41C23.89,70.09,23.61,64.52,26.87,61.89Z" transform="translate(-0.38 -0.47)"/><path class="cls-6" d="M34.37,61.89c.93,1.31-.19,2.61,0,4,.25,1.87-.15,3.81.52,5.66a2.8,2.8,0,0,0,0,.41C31.39,70.09,31.11,64.52,34.37,61.89Z" transform="translate(-0.38 -0.47)"/><path class="cls-6" d="M74.92,71.49l-.72.07c-2.94-3-2.61-7.62.68-9.62a1.46,1.46,0,0,1,.48.71C75.07,65.58,75.69,68.57,74.92,71.49Z" transform="translate(-0.38 -0.47)"/><path class="cls-10" d="M16.86,61.93c-1.81.31-.16,1.37-.42,2.06-.41,1.08.78,3.22-.81,3.24s-1-2.18-1.3-3.45c-.14-.61,1.24-1.64-.43-1.85A2.43,2.43,0,0,1,16.86,61.93Z" transform="translate(-0.38 -0.47)"/><path class="cls-9" d="M56.86,61.9c-1.48.94.17,2.16-.29,3.22-.31.74.5,2.13-.81,2.2-1.1.06-1.17-1.26-1.25-2.12a8,8,0,0,1,.2-2.44c.17-.85-.34-.74-.83-.76A2.36,2.36,0,0,1,56.86,61.9Z" transform="translate(-0.38 -0.47)"/><path class="cls-11" d="M45.76,69.53c-.83-.18-2,.34-1.9-1.07.07-1.16,1.06-.86,1.74-.85s1.85-.32,1.79,1S46.26,69.27,45.76,69.53Z" transform="translate(-0.38 -0.47)"/><path class="cls-12" d="M68.7,71.81a5,5,0,0,1-2.84.19c-.71-.16-1.28-.53-1-1.35s1-.69,1.59-.31S67.79,71.21,68.7,71.81Z" transform="translate(-0.38 -0.47)"/><path class="cls-13" d="M22.9,66.15a1.11,1.11,0,0,1-1,1.18,1.16,1.16,0,0,1-1.32-1.16,1.06,1.06,0,0,1,1-1.16A1.15,1.15,0,0,1,22.9,66.15Z" transform="translate(-0.38 -0.47)"/><path class="cls-14" d="M63,66.25a1.12,1.12,0,1,1-2.23-.18,1,1,0,0,1,1.33-1C62.74,65.13,63,65.63,63,66.25Z" transform="translate(-0.38 -0.47)"/><path class="cls-14" d="M22.94,70.35c-.13,1.36-.55,1.7-1.19,1.7a1,1,0,0,1-1.18-1.2,1.06,1.06,0,0,1,1.36-1A1.86,1.86,0,0,1,22.94,70.35Z" transform="translate(-0.38 -0.47)"/><path class="cls-15" d="M62.93,70.91a1,1,0,0,1-1,1.11,1,1,0,0,1-1.1-1,1,1,0,0,1,1-1.09A1,1,0,0,1,62.93,70.91Z" transform="translate(-0.38 -0.47)"/><path class="cls-16" d="M54.39,71l.51.51a2.09,2.09,0,0,1-2.44.23Z" transform="translate(-0.38 -0.47)"/><path class="cls-17" d="M14.35,71c0,.23.07.45.11.68a1.47,1.47,0,0,1-1.75.18A2.53,2.53,0,0,1,14.35,71Z" transform="translate(-0.38 -0.47)"/><path class="cls-18" d="M74.94,62.55l-.06-.61a.86.86,0,0,1,1.5,0l-.07.59A1.6,1.6,0,0,1,74.94,62.55Z" transform="translate(-0.38 -0.47)"/><path class="cls-6" d="M54.39,30c.75-.77,1.61-1.47,1.59-2.86-1.41,0-2.91-.06-3.46-1.69A3.88,3.88,0,0,1,53.88,21c.88-.52,1.21,0,1.34.75a12.67,12.67,0,0,0,.25,2.91,15.31,15.31,0,0,0,.15-2.79c.07-.76.29-1.33,1.24-1,3.51,3.18,2.68,7.27-2,9.62C54.36,30.72,54.28,30.46,54.39,30Z" transform="translate(-0.38 -0.47)"/><path class="cls-19" d="M13.75,25.54c-2-1.95-2-2.63.13-4.57,2-.63.81,1.54,1.84,1.93.34-.81-.79-1.56-.24-2.35,3.29,1,3.32,1,1.78,4.06-.44.85.34,1,.63,1.36,1.75,2.43,1,4.38-2,5a.79.79,0,0,1-.2-.62c.64-1.65-.42-2.63-1.42-3.63C14,26.32,14.28,25.76,13.75,25.54Z" transform="translate(-0.38 -0.47)"/><path class="cls-15" d="M29.47,30.38c.19-2.45-.5-4-2.51-4.62,2.17-2.58,2-3.35-1-3.92A2.64,2.64,0,0,1,29.45,21c1.41.69,1.51,1.83.65,3.08-.51.74.27,1,.55,1.41C31.82,27.28,31.25,28.68,29.47,30.38Z" transform="translate(-0.38 -0.47)"/><path class="cls-8" d="M36.88,21c2.25,2.29,2.5,5,1.42,7.83-.57,1.54-1.58,2.55-3.42,2.1a.7.7,0,0,1,0-.77c1.24-2.35.37-4.89.67-7.32C35.68,22.1,35,20.52,36.88,21Z" transform="translate(-0.38 -0.47)"/><path class="cls-9" d="M36.88,21c-.65,0-.69.19-.64.88.17,2.32.17,4.66.18,7,0,1-.18,1.9-1.54,1.65-2.31-2.6-1.25-5.58-1-8.46a10.47,10.47,0,0,1,.44-1.16A1.83,1.83,0,0,1,36.88,21Z" transform="translate(-0.38 -0.47)"/><path class="cls-8" d="M68.88,20.94c2.94,1.78,3.54,7.34,1,9.47a2.39,2.39,0,0,1-3.17.16,1.7,1.7,0,0,1,.48-.58c1.7-1.11,1.3-2.89,1.4-4.48.08-1.32-.57-2.62-.17-4A1.4,1.4,0,0,1,68.88,20.94Z" transform="translate(-0.38 -0.47)"/><path class="cls-6" d="M76.38,21c2.93,1.77,3.52,7.32,1,9.44a2.39,2.39,0,0,1-3.16.16,1.58,1.58,0,0,1,.48-.58c1.45-.63,1.24-2,1.41-3.2.23-1.74-.44-3.46-.17-5.21A1.22,1.22,0,0,1,76.38,21Z" transform="translate(-0.38 -0.47)"/><path class="cls-6" d="M34.37,20.89c.93,1.31-.19,2.61,0,4,.25,1.87-.15,3.81.52,5.66a2.8,2.8,0,0,0,0,.41C31.39,29.09,31.11,23.52,34.37,20.89Z" transform="translate(-0.38 -0.47)"/><path class="cls-6" d="M67.43,30.48l-.74.09c-2.93-3.08-2.6-7.63.69-9.63a1.47,1.47,0,0,1,.48.7C67.57,24.58,68.18,27.57,67.43,30.48Z" transform="translate(-0.38 -0.47)"/><path class="cls-6" d="M74.92,30.49l-.72.07c-2.94-3-2.61-7.62.68-9.62a1.46,1.46,0,0,1,.48.71C75.07,24.58,75.69,27.57,74.92,30.49Z" transform="translate(-0.38 -0.47)"/><path class="cls-9" d="M56.86,20.9c-1.48.94.17,2.16-.29,3.22-.31.74.5,2.13-.81,2.2-1.1.06-1.17-1.26-1.25-2.12a8,8,0,0,1,.2-2.44c.17-.85-.34-.74-.83-.76A2.36,2.36,0,0,1,56.86,20.9Z" transform="translate(-0.38 -0.47)"/><path class="cls-8" d="M15.89,30.62c0,.11,0,.21,0,.32-1.38.32-2.69.16-3.37-1.2a2.38,2.38,0,0,1,1.08-3.33c.38-.23.17-.57.16-.87a1,1,0,0,1,.65,1C14.92,27.91,14.74,29.51,15.89,30.62Z" transform="translate(-0.38 -0.47)"/><path class="cls-20" d="M15.48,20.55a1.87,1.87,0,0,0,.27.4c.95.86,1.45,1.82.77,3.08a.55.55,0,0,1-.81.29c-1.14-.65-1.71-1.5-1.15-2.88.16-.39-.38-.41-.68-.47A1.48,1.48,0,0,1,15.48,20.55Z" transform="translate(-0.38 -0.47)"/><path class="cls-11" d="M45.62,26.58c.76.1,1.86-.27,1.76,1.09-.08,1.18-1.1.79-1.75.79s-1.67.4-1.77-.78C43.75,26.33,44.85,26.67,45.62,26.58Z" transform="translate(-0.38 -0.47)"/><path class="cls-21" d="M28.47,30.72a4.15,4.15,0,0,1-3,.22c-.57-.16-1.11-.53-.85-1.23s.93-.84,1.6-.45A11.92,11.92,0,0,0,28.47,30.72Z" transform="translate(-0.38 -0.47)"/><path class="cls-14" d="M21.69,28.78c.77.16,1.21.48,1.18,1.16A1,1,0,0,1,21.6,31a1,1,0,0,1-1.05-1.1A1.18,1.18,0,0,1,21.69,28.78Z" transform="translate(-0.38 -0.47)"/><path class="cls-13" d="M21.77,26.4c-.74-.22-1.3-.58-1.22-1.37a1.07,1.07,0,0,1,1.18-1,1.12,1.12,0,0,1,1.15,1.31C22.83,26,22.29,26.23,21.77,26.4Z" transform="translate(-0.38 -0.47)"/><path class="cls-14" d="M61.79,26.35a1.14,1.14,0,0,1-1.07-1.18A1.06,1.06,0,0,1,62,24a1,1,0,0,1,.92,1.25A1.1,1.1,0,0,1,61.79,26.35Z" transform="translate(-0.38 -0.47)"/><path class="cls-15" d="M61.81,28.88c.67,0,1.1.32,1.11,1a1,1,0,0,1-1,1.12,1,1,0,0,1-1.1-1C60.75,29.29,61.14,29,61.81,28.88Z" transform="translate(-0.38 -0.47)"/><path class="cls-16" d="M54.39,30l.51.51a2.09,2.09,0,0,1-2.44.23Z" transform="translate(-0.38 -0.47)"/><path class="cls-18" d="M74.94,21.55l-.06-.61a.86.86,0,0,1,1.5,0l-.07.59A1.6,1.6,0,0,1,74.94,21.55Z" transform="translate(-0.38 -0.47)"/><path class="cls-18" d="M67.44,21.55l-.06-.61a.87.87,0,0,1,1.5,0l-.07.62A1.64,1.64,0,0,1,67.44,21.55Z" transform="translate(-0.38 -0.47)"/><path class="cls-7" d="M17.16,279.4h-4a2.06,2.06,0,0,0,1.35-2.06c-.12-2,.43-4.19-.27-6.15s1-1.35,1.57-1.65c1.22-.64,1,.48,1.06,1.17C17,273.56,16.56,276.44,17.16,279.4Z" transform="translate(-0.38 -0.47)"/><path class="cls-22" d="M24.19,279.44H20.4c1.38-2.64.9-5.4.53-8.14-.05-.39-.88-.79-.19-1.17a4.91,4.91,0,0,1,2.34-.65c.52,0,.3.82.31,1.28,0,2,0,4,0,6C23.4,277.73,23.25,278.79,24.19,279.44Z" transform="translate(-0.38 -0.47)"/><path class="cls-23" d="M60.45,270.29l2.8-1c.82,3.4-.64,6.9,1,10.11H60C61.65,278,61.93,272.73,60.45,270.29Z" transform="translate(-0.38 -0.47)"/><path class="cls-24" d="M36.35,277.45c-.08-1.74-1.25-2.6-2.76-3.25.48-1,2.13-1.36,1.5-2.83-.45-1.05-1.47-.87-2.61-.95,1.28-1.31,2.55-1.57,3.89-.82s1.36,1.8.52,2.93c-.42.57,0,.8.26,1.22,1.39,1.85,1.08,3.51-.75,4.91A.93.93,0,0,1,36.35,277.45Z" transform="translate(-0.38 -0.47)"/><path class="cls-8" d="M43.8,279a2.1,2.1,0,0,1-2.71.34c-2-1.21-2.41-3.25-2.17-5.39.21-1.93.36-4,3-4.41.06.1.12.2.19.3.15,2,0,3.92,0,5.88,0,.9-.1,1.87,1.14,2.11A1.05,1.05,0,0,1,43.8,279Z" transform="translate(-0.38 -0.47)"/><path class="cls-25" d="M88.39,269.54a2.13,2.13,0,0,1,3,0c.14,3,.86,6-.19,9a1.55,1.55,0,0,1-2.56,0C87.49,275.57,88.25,272.55,88.39,269.54Z" transform="translate(-0.38 -0.47)"/><path class="cls-25" d="M80.89,269.54a2.13,2.13,0,0,1,3,0c.14,3,.86,6-.19,9a1.55,1.55,0,0,1-2.56,0C80,275.57,80.75,272.55,80.89,269.54Z" transform="translate(-0.38 -0.47)"/><path class="cls-15" d="M88.39,269.54c.5,0,1-.14.79.72-.61,2.69-.27,5.42-.2,8.13.08.51-.08.78-.64.64C85.78,276.11,85.8,272.93,88.39,269.54Z" transform="translate(-0.38 -0.47)"/><path class="cls-15" d="M80.89,269.54c.5,0,1-.14.79.72-.61,2.69-.27,5.42-.2,8.13.08.51-.08.78-.64.64C78.28,276.11,78.3,272.93,80.89,269.54Z" transform="translate(-0.38 -0.47)"/><path class="cls-6" d="M83.27,278.38c.09-2.71.41-5.43-.19-8.12-.19-.84.29-.74.79-.72,2.55,3.33,2.57,6.67,0,9.48C83.35,279.15,83.19,278.88,83.27,278.38Z" transform="translate(-0.38 -0.47)"/><path class="cls-6" d="M90.77,278.38c.09-2.71.41-5.43-.19-8.12-.19-.84.29-.74.79-.72,2.55,3.33,2.57,6.67,0,9.48C90.85,279.15,90.69,278.88,90.77,278.38Z" transform="translate(-0.38 -0.47)"/><path class="cls-6" d="M43.8,279l-.47-1.07a3,3,0,0,1-.74-2.54,20.09,20.09,0,0,0-.72-5.88v0c1.53-.66,2.28.41,2.91,1.44C46.2,273.23,45.71,276.82,43.8,279Z" transform="translate(-0.38 -0.47)"/><path class="cls-26" d="M69.62,275.45c1.55-3.46,1.22-4.22-2.2-4.66,1.06-1.65,2.44-2.12,4-1.15s1.63,2.59.72,4.11a11.26,11.26,0,0,1-1.66,1.8A.65.65,0,0,1,69.62,275.45Z" transform="translate(-0.38 -0.47)"/><path class="cls-23" d="M69,277.46a16.79,16.79,0,0,1,2.46,0c.5.08,1.52-1.14,1.5.51,0,1-.35,1.54-1.46,1.5-1.55-.05-3.11,0-4.79,0,0-1,.81-1.4,1.29-2A.69.69,0,0,1,69,277.46Z" transform="translate(-0.38 -0.47)"/><path class="cls-27" d="M52.08,277c-.67-.12-1.64.27-1.66-.9,0-1.33,1-1,1.77-1s1.84-.28,1.77,1S52.76,276.83,52.08,277Z" transform="translate(-0.38 -0.47)"/><path class="cls-26" d="M35.35,279.36a5.33,5.33,0,0,1-3,.11c-.71-.19-1.28-.62-.9-1.44.31-.66.94-.57,1.5-.26.79.45,1.42,1.18,2.39,1.28Z" transform="translate(-0.38 -0.47)"/><path class="cls-28" d="M77.31,273.81c-.24.66-.67,1.16-1.44,1a1.07,1.07,0,0,1-.94-1.25,1.11,1.11,0,0,1,1.41-1A1.19,1.19,0,0,1,77.31,273.81Z" transform="translate(-0.38 -0.47)"/><path class="cls-14" d="M29.65,278.35c0,.63-.29,1.11-1,1.19s-1.16-.16-1.28-.87a1.05,1.05,0,0,1,1.07-1.36C29.11,277.26,29.5,277.68,29.65,278.35Z" transform="translate(-0.38 -0.47)"/><path class="cls-29" d="M28.59,272.51a1.07,1.07,0,0,1,1,1.14,1.12,1.12,0,0,1-1.25,1.18,1,1,0,0,1-1-1.14A1.1,1.1,0,0,1,28.59,272.51Z" transform="translate(-0.38 -0.47)"/><path class="cls-26" d="M77.28,278.5a1.12,1.12,0,0,1-1.17,1.05,1.12,1.12,0,1,1,.09-2.23A1.13,1.13,0,0,1,77.28,278.5Z" transform="translate(-0.38 -0.47)"/><path class="cls-30" d="M69,277.46l-1,.06,1.66-2.07.85.1Z" transform="translate(-0.38 -0.47)"/><path class="cls-31" d="M83.27,278.38l.64.64a2.18,2.18,0,0,1-3.07,0l.64-.64C82.08,279.13,82.68,279.09,83.27,278.38Z" transform="translate(-0.38 -0.47)"/><path class="cls-31" d="M90.77,278.38l.64.64a2.18,2.18,0,0,1-3.07,0l.64-.64C89.58,279.13,90.18,279.09,90.77,278.38Z" transform="translate(-0.38 -0.47)"/><path class="cls-32" d="M35.35,279.36a.8.8,0,0,1,0-.31l1-1.6c0,.4,0,.8,0,1.21Z" transform="translate(-0.38 -0.47)"/><path class="cls-19" d="M22.57,520.06c.61-.95,1.08-2.55,2.28-2.26s.43,1.86.56,2.86c.18,1.33-.06,2.6.73,4,.52.9-.57,2.38-1.5,3.31-.12.12-.69,0-.7,0-.37-2.75-3.2-1.39-4.35-2.66a1.14,1.14,0,0,1,.78-1.74C22.58,523.32,23,522,22.57,520.06Z" transform="translate(-0.38 -0.47)"/><path class="cls-7" d="M16.7,517.86c.44,3.17-.26,6.33.4,9.4.19.94-.43.71-.81.73-1,0-2,0-3.36,0,1.07-.62,1.59-1.12,1.56-2.07-.06-1.73.37-3.58-.11-5.18C13.66,518.34,14.87,518.06,16.7,517.86Z" transform="translate(-0.38 -0.47)"/><path class="cls-22" d="M65.53,527.94H61.34c1.6-2.3,1.32-5,.7-7.24-.73-2.63.66-2.45,2.36-3,0,1.91-.09,3.64,0,5.35S63.75,526.54,65.53,527.94Z" transform="translate(-0.38 -0.47)"/><path class="cls-15" d="M37.08,526.9c.31-2.23-.82-3.43-2.63-4.17C37,520,36,519,33.42,518.81a2.79,2.79,0,0,1,3.64-.75,1.81,1.81,0,0,1,.58,3c-.52.74.14,1,.45,1.44C39.36,524.22,38.76,525.63,37.08,526.9Z" transform="translate(-0.38 -0.47)"/><path class="cls-8" d="M84.8,527.47a2.1,2.1,0,0,1-2.71.34c-2-1.21-2.41-3.25-2.17-5.39.21-1.93.36-4,3-4.41.06.1.12.2.19.3.15,2,0,3.92,0,5.88,0,.9-.1,1.87,1.14,2.11A1.05,1.05,0,0,1,84.8,527.47Z" transform="translate(-0.38 -0.47)"/><path class="cls-8" d="M92.3,527.47a2.1,2.1,0,0,1-2.71.34c-2-1.21-2.41-3.25-2.17-5.39.21-1.93.36-4,3-4.41.06.1.12.2.19.3.15,2,0,3.92,0,5.88,0,.9-.1,1.87,1.14,2.11A1.05,1.05,0,0,1,92.3,527.47Z" transform="translate(-0.38 -0.47)"/><path class="cls-8" d="M44.38,518c2.25,2.29,2.5,5,1.42,7.83-.57,1.54-1.58,2.55-3.42,2.1a.7.7,0,0,1,0-.77c1.24-2.35.37-4.89.67-7.32C43.18,519.1,42.45,517.52,44.38,518Z" transform="translate(-0.38 -0.47)"/><path class="cls-9" d="M44.38,518c-.65,0-.69.19-.64.88.17,2.32.17,4.66.18,7,0,1-.18,1.9-1.54,1.65-2.31-2.6-1.25-5.58-1-8.46a10.47,10.47,0,0,1,.44-1.16A1.83,1.83,0,0,1,44.38,518Z" transform="translate(-0.38 -0.47)"/><path class="cls-6" d="M41.87,517.89c.93,1.31-.19,2.61,0,4,.25,1.87-.15,3.81.52,5.66a2.8,2.8,0,0,0,0,.41C38.89,526.09,38.61,520.52,41.87,517.89Z" transform="translate(-0.38 -0.47)"/><path class="cls-6" d="M92.3,527.47l-.47-1.07a3,3,0,0,1-.74-2.54,20.09,20.09,0,0,0-.72-5.88v0c1.53-.66,2.28.41,2.91,1.44C94.7,521.73,94.21,525.32,92.3,527.47Z" transform="translate(-0.38 -0.47)"/><path class="cls-6" d="M84.8,527.47l-.47-1.07a3,3,0,0,1-.74-2.54,20.09,20.09,0,0,0-.72-5.88v0c1.53-.66,2.28.41,2.91,1.44C87.2,521.73,86.71,525.32,84.8,527.47Z" transform="translate(-0.38 -0.47)"/><path class="cls-24" d="M72.33,526.5c.37-2-.8-2.84-2.42-3.07-2.1-.28-2.44-1.21-1.47-2.92.13-.25.25-.24.38,0,.39.75,1.17.47,1.76.64,3,.85,3.68,2.48,2.3,5.36C72.7,526.71,72.51,526.73,72.33,526.5Z" transform="translate(-0.38 -0.47)"/><path class="cls-33" d="M68.82,520.5h-.38c.54-2.54,2-3.39,4.58-2.64.44.13.8.24.66.79a1.41,1.41,0,0,1-1.35,1.21C71.15,520,69.82,519.35,68.82,520.5Z" transform="translate(-0.38 -0.47)"/><path class="cls-34" d="M22.57,520.06c1.5,1,1,2.6.49,3.63-.42.83-1.82.82-2.69-.15l.63-1.23c.43-.71,1.17-1.21,1.39-2.06A.27.27,0,0,1,22.57,520.06Z" transform="translate(-0.38 -0.47)"/><path class="cls-11" d="M53.15,525.51c-.72-.16-1.87.36-1.79-1,.07-1.16,1.06-.86,1.74-.85s1.86-.32,1.78,1C54.82,525.85,53.8,525.35,53.15,525.51Z" transform="translate(-0.38 -0.47)"/><path class="cls-21" d="M36.42,527.61a4.59,4.59,0,0,1-3.49.31c-.56-.16-1.07-.55-.78-1.27a1,1,0,0,1,1.43-.48C34.44,526.58,35,527.43,36.42,527.61Z" transform="translate(-0.38 -0.47)"/><path class="cls-24" d="M70.83,527.91a2.64,2.64,0,0,1-.49.08c-1,.06-2.18.29-2.89-.78a.74.74,0,0,1,.27-1.07c1.1-.46,1.8.46,2.65.88C70.63,527.26,71.13,527.38,70.83,527.91Z" transform="translate(-0.38 -0.47)"/><path class="cls-13" d="M29.1,521a1.15,1.15,0,0,1,1.29,1.19,1.08,1.08,0,0,1-1.05,1.16,1.18,1.18,0,0,1-1.3-1.19A1.11,1.11,0,0,1,29.1,521Z" transform="translate(-0.38 -0.47)"/><path class="cls-14" d="M30.36,527.19c-.1.63-.59.94-1.35.84a1,1,0,0,1-.94-1.18,1.07,1.07,0,0,1,1.36-1C30.06,526,30.43,526.34,30.36,527.19Z" transform="translate(-0.38 -0.47)"/><path class="cls-14" d="M77,528.06A1,1,0,0,1,75.85,527a1,1,0,0,1,1-1.16A1.06,1.06,0,0,1,78.13,527,1,1,0,0,1,77,528.06Z" transform="translate(-0.38 -0.47)"/><path class="cls-29" d="M77.08,523.36c-.65,0-1.12-.31-1.21-1a1.08,1.08,0,0,1,1-1.36,1,1,0,0,1,1.2.94C78.24,522.75,77.74,523.13,77.08,523.36Z" transform="translate(-0.38 -0.47)"/><path class="cls-35" d="M70.83,527.91l-.46-.89a3.22,3.22,0,0,0,2-.52h.55A2.59,2.59,0,0,1,70.83,527.91Z" transform="translate(-0.38 -0.47)"/><path class="cls-36" d="M22.39,520.25A1.88,1.88,0,0,1,21,522.31,3,3,0,0,1,22.39,520.25Z" transform="translate(-0.38 -0.47)"/><path class="cls-7" d="M66.87,238a2.31,2.31,0,0,0,1.1-2.51c-.18-2,.32-4.06-.37-6.11-.46-1.33,1.1-1.09,1.78-1.39,1.07-.49.93.45,1,1.08.13,2.72-.3,5.46.25,8.15.18.88-.32.76-.76.77C68.84,238,67.86,238,66.87,238Z" transform="translate(-0.38 -0.47)"/><path class="cls-7" d="M16.72,227.87c.41,3.35-.26,6.66.43,9.95a11.54,11.54,0,0,1-3.67.13c1.91-2.25,1.15-4.94.84-7.27S14.72,228.05,16.72,227.87Z" transform="translate(-0.38 -0.47)"/><path class="cls-22" d="M20.57,228.69l2.62-.92c.74,3.41-.6,6.87.89,10.1H20.42C21.78,234.91,21.46,231.88,20.57,228.69Z" transform="translate(-0.38 -0.47)"/><path class="cls-23" d="M64.2,238H60c1.65-1.47,1.91-6.77.43-9.14l2.8-1.05C64.05,231.18,62.67,234.66,64.2,238Z" transform="translate(-0.38 -0.47)"/><path class="cls-15" d="M82.69,237.35c.68-2.65-.38-3.87-2.21-4.58,2.15-2.65,2-3.28-1-4.13,1.21-.95,2.41-1.31,3.69-.53s1.27,1.82.47,3c-.52.73.25,1,.52,1.42C85.21,234.26,85,235.23,82.69,237.35Z" transform="translate(-0.38 -0.47)"/><path class="cls-8" d="M36.3,237.47a2.1,2.1,0,0,1-2.71.34c-2-1.21-2.41-3.25-2.17-5.39.21-1.93.36-4,3-4.41.06.1.12.2.19.3.15,2,0,3.92,0,5.88,0,.9-.1,1.87,1.14,2.11A1.05,1.05,0,0,1,36.3,237.47Z" transform="translate(-0.38 -0.47)"/><path class="cls-8" d="M43.8,237.47a2.1,2.1,0,0,1-2.71.34c-2-1.21-2.41-3.25-2.17-5.39.21-1.93.36-4,3-4.41.06.1.12.2.19.3.15,2,0,3.92,0,5.88,0,.9-.1,1.87,1.14,2.11A1.05,1.05,0,0,1,43.8,237.47Z" transform="translate(-0.38 -0.47)"/><path class="cls-6" d="M89.88,228c2.93,1.77,3.52,7.32,1,9.44a2.39,2.39,0,0,1-3.16.16,1.58,1.58,0,0,1,.48-.58c1.45-.63,1.24-2,1.41-3.2.23-1.74-.44-3.46-.17-5.21A1.22,1.22,0,0,1,89.88,228Z" transform="translate(-0.38 -0.47)"/><path class="cls-6" d="M43.8,237.47l-.47-1.07a3,3,0,0,1-.74-2.54,20.09,20.09,0,0,0-.72-5.88v0c1.53-.66,2.28.41,2.91,1.44C46.2,231.73,45.71,235.32,43.8,237.47Z" transform="translate(-0.38 -0.47)"/><path class="cls-6" d="M36.3,237.47l-.47-1.07a3,3,0,0,1-.74-2.54,20.09,20.09,0,0,0-.72-5.88v0c1.53-.66,2.28.41,2.91,1.44C38.7,231.73,38.21,235.32,36.3,237.47Z" transform="translate(-0.38 -0.47)"/><path class="cls-6" d="M88.42,237.49l-.72.07c-2.94-3.05-2.61-7.62.68-9.62a1.46,1.46,0,0,1,.48.71C88.57,231.58,89.19,234.57,88.42,237.49Z" transform="translate(-0.38 -0.47)"/><path class="cls-27" d="M52.13,235.51c-.66-.15-1.64.31-1.71-.85-.09-1.32,1-1.07,1.72-1.06s1.83-.31,1.82,1S52.81,235.34,52.13,235.51Z" transform="translate(-0.38 -0.47)"/><path class="cls-21" d="M82,237.71a4,4,0,0,1-2.91.25c-.68-.2-1.26-.61-.84-1.42.3-.59.89-.64,1.48-.32C80.46,236.65,81,237.42,82,237.71Z" transform="translate(-0.38 -0.47)"/><path class="cls-14" d="M76.29,237.59c-.05.24-.54.55-1.29.43a1,1,0,0,1-.93-1.18,1.08,1.08,0,0,1,1.37-1C76.06,236,76.44,236.35,76.29,237.59Z" transform="translate(-0.38 -0.47)"/><path class="cls-14" d="M28.46,235.8a1.1,1.1,0,0,1,1.17,1.06,1.06,1.06,0,0,1-1.25,1.19,1,1,0,0,1-1-1.15C27.35,236.17,27.83,235.9,28.46,235.8Z" transform="translate(-0.38 -0.47)"/><path class="cls-13" d="M75.21,233.39c-.68-.21-1.24-.58-1.16-1.37a1.07,1.07,0,0,1,1.18-1,1.11,1.11,0,0,1,1.14,1.31C76.32,233,75.82,233.27,75.21,233.39Z" transform="translate(-0.38 -0.47)"/><path class="cls-29" d="M28.58,231a1.08,1.08,0,0,1,1,1.14,1.11,1.11,0,0,1-1.25,1.18,1,1,0,0,1-1-1.14A1.1,1.1,0,0,1,28.58,231Z" transform="translate(-0.38 -0.47)"/><path class="cls-18" d="M88.44,228.55l-.06-.61a.86.86,0,0,1,1.5,0l-.07.59A1.6,1.6,0,0,1,88.44,228.55Z" transform="translate(-0.38 -0.47)"/><path class="cls-7" d="M16.7,351.86c.44,3.19-.25,6.35.4,9.44.19.92-.47.67-.85.69-.9.05-1.81,0-2.84,0,2-2.29,1.23-5,.91-7.29S14.9,352.05,16.7,351.86Z" transform="translate(-0.38 -0.47)"/><path class="cls-22" d="M65.39,361.93h-4c1.29-2.65.91-5.41.46-8.16-.06-.4-.84-.8-.12-1.16a5.27,5.27,0,0,1,2.34-.62c.46,0,.26.85.27,1.31,0,2,0,4,0,6C64.4,360.26,64.24,361.32,65.39,361.93Z" transform="translate(-0.38 -0.47)"/><path class="cls-7" d="M72.22,360.92c.31-2.26-.92-3.45-3-4.37,1.18-.72,2.07-1.41,1.67-2.67s-1.51-.72-2.45-1.1c1.23-1.14,2.5-1.49,3.87-.63s1.27,1.83.38,3c-.46.58.11.85.39,1.22C74.49,358.12,74,359.62,72.22,360.92Z" transform="translate(-0.38 -0.47)"/><path class="cls-15" d="M34.19,356.68c1-.93,2-1.44,1.68-2.66s-1.52-.88-2.57-1.26c1.37-1.07,2.57-1.43,3.85-.65s1.25,1.83.46,3c-.52.73.26,1,.53,1.41,1.07,1.78.86,2.78-1.14,4.55C37.16,358.92,36.46,357.4,34.19,356.68Z" transform="translate(-0.38 -0.47)"/><path class="cls-8" d="M92.3,361.47c-1.61,1.15-2.89.66-3.94-.82a6.64,6.64,0,0,1,1.48-8.73c.46-.13.66.13.8.51.07,1.9-.08,3.8,0,5.7,0,.9-.12,1.9,1.13,2.17A1.05,1.05,0,0,1,92.3,361.47Z" transform="translate(-0.38 -0.47)"/><path class="cls-8" d="M84.8,361.47c-1.61,1.15-2.89.66-3.94-.82a6.64,6.64,0,0,1,1.48-8.73c.46-.13.66.13.8.51.07,1.9-.08,3.8,0,5.7,0,.9-.12,1.9,1.13,2.17A1.05,1.05,0,0,1,84.8,361.47Z" transform="translate(-0.38 -0.47)"/><path class="cls-8" d="M44.38,352c2.25,2.29,2.5,5,1.42,7.83-.57,1.54-1.58,2.55-3.42,2.1a.7.7,0,0,1,0-.77c1.24-2.35.37-4.89.67-7.32C43.18,353.1,42.45,351.52,44.38,352Z" transform="translate(-0.38 -0.47)"/><path class="cls-9" d="M44.38,352c-.65,0-.69.19-.64.88.17,2.32.17,4.66.18,7,0,1-.18,1.9-1.54,1.65-2.31-2.6-1.25-5.58-1-8.46a10.47,10.47,0,0,1,.44-1.16A1.83,1.83,0,0,1,44.38,352Z" transform="translate(-0.38 -0.47)"/><path class="cls-6" d="M41.87,351.89c.93,1.31-.19,2.61,0,4,.25,1.87-.15,3.81.52,5.66a2.8,2.8,0,0,0,0,.41C38.89,360.09,38.61,354.52,41.87,351.89Z" transform="translate(-0.38 -0.47)"/><path class="cls-24" d="M21.9,359.52c-.13-.78.54-1.17.86-1.72,1.74-2.93,1.19-4.1-2.36-4.51,1.27-1.57,2.68-2.27,4.32-1s1.42,2.92.22,4.4a8.94,8.94,0,0,1-3.09,2.8Z" transform="translate(-0.38 -0.47)"/><path class="cls-6" d="M92.3,361.47l-.47-1.07c-1.45-2.44-.54-5.15-.88-7.72a1.43,1.43,0,0,1,.42-.77C94.63,353.64,95.09,358.35,92.3,361.47Z" transform="translate(-0.38 -0.47)"/><path class="cls-6" d="M84.8,361.47l-.47-1.07c-1.45-2.44-.54-5.15-.88-7.72a1.43,1.43,0,0,1,.42-.77C87.13,353.64,87.59,358.35,84.8,361.47Z" transform="translate(-0.38 -0.47)"/><path class="cls-23" d="M21.85,359.48c.79.94,1.84.4,2.77.48.69.07,1.35,0,1.3,1S25.33,362,24.59,362H19.67a3.88,3.88,0,0,1,2.23-2.48Z" transform="translate(-0.38 -0.47)"/><path class="cls-11" d="M53.18,359.53c-.79-.16-1.8.28-1.82-.93s1.09-1,1.84-1,1.65-.27,1.69.9C54.92,360,53.71,359.25,53.18,359.53Z" transform="translate(-0.38 -0.47)"/><path class="cls-21" d="M35.86,362c-.81,0-1.62,0-2.42,0a1.26,1.26,0,0,1-1.32-.89,1.06,1.06,0,0,1,.3-.85c.51-.45,1.06-.25,1.56.11S35.18,361.43,35.86,362Z" transform="translate(-0.38 -0.47)"/><path class="cls-12" d="M71.22,361.86a5.38,5.38,0,0,1-3.15.05c-.62-.21-1-.66-.69-1.32s.89-.65,1.42-.35C69.55,360.68,70.25,361.2,71.22,361.86Z" transform="translate(-0.38 -0.47)"/><path class="cls-13" d="M29.21,357.39c-.68-.21-1.24-.58-1.16-1.37a1.07,1.07,0,0,1,1.18-1,1.11,1.11,0,0,1,1.14,1.31C30.32,357,29.82,357.27,29.21,357.39Z" transform="translate(-0.38 -0.47)"/><path class="cls-14" d="M30.35,361.2a1.06,1.06,0,0,1-1.45.8,1,1,0,0,1-.81-1.26,1.09,1.09,0,0,1,1.46-.88A1.06,1.06,0,0,1,30.35,361.2Z" transform="translate(-0.38 -0.47)"/><path class="cls-14" d="M75.85,361a1,1,0,0,1,1-1.18A1.06,1.06,0,0,1,78.13,361a1.14,1.14,0,0,1-2.28,0Z" transform="translate(-0.38 -0.47)"/><path class="cls-29" d="M78.16,356.14c-.18.72-.52,1.27-1.32,1.18a1,1,0,0,1-1-1.16A1.07,1.07,0,0,1,77.11,355C77.83,355.06,78,355.63,78.16,356.14Z" transform="translate(-0.38 -0.47)"/><path class="cls-37" d="M91.37,351.91l0,.62a.7.7,0,0,1-1-.12l-.47-.49C90.35,351.42,90.85,351.27,91.37,351.91Z" transform="translate(-0.38 -0.47)"/><path class="cls-37" d="M83.87,351.91l0,.62a.7.7,0,0,1-1-.12l-.47-.49C82.85,351.42,83.35,351.27,83.87,351.91Z" transform="translate(-0.38 -0.47)"/><path class="cls-7" d="M16.71,393.32c.42,3.4-.25,6.71.44,10a11.54,11.54,0,0,1-3.67.13c1.91-2.25.85-4.87.92-7.29C14.46,394,14.22,394,16.71,393.32Z" transform="translate(-0.38 -0.47)"/><path class="cls-22" d="M65.21,403.44H61.39c1.39-2.63.91-5.4.54-8.13,0-.39-.88-.8-.19-1.18a4.84,4.84,0,0,1,2.33-.65c.53,0,.31.82.32,1.27,0,2,0,4,0,6C64.41,401.71,64.18,402.8,65.21,403.44Z" transform="translate(-0.38 -0.47)"/><path class="cls-7" d="M72.24,402.49c.3-2.27-.78-3.54-2.82-4.29.69-.92,1.91-1.42,1.51-2.73s-1.45-.86-2.44-1.11c1.14-1.22,2.38-1.56,3.75-.76a1.75,1.75,0,0,1,.51,2.92c-.45.57-.06.85.27,1.24C74.53,399.52,74,401,72.24,402.49Z" transform="translate(-0.38 -0.47)"/><path class="cls-24" d="M84.85,401.45c-.08-1.74-1.25-2.6-2.76-3.25.48-1,2.13-1.36,1.5-2.83-.44-1.05-1.47-.87-2.61-.95,1.28-1.31,2.55-1.57,3.89-.82s1.36,1.8.52,2.93c-.42.57,0,.8.26,1.22,1.39,1.85,1.08,3.51-.75,4.91A.93.93,0,0,1,84.85,401.45Z" transform="translate(-0.38 -0.47)"/><path class="cls-15" d="M24.35,403c.25-2.27,0-3.69-1.66-4.42-.67-.3-.82-.47-.21-1.2,1.6-1.95,1.29-2.53-1.52-3.08,1.15-1.23,2.38-1.53,3.73-.7a1.76,1.76,0,0,1,.5,2.79c-.51.7,0,1,.34,1.45C26.86,399.61,26.28,401.06,24.35,403Z" transform="translate(-0.38 -0.47)"/><path class="cls-8" d="M92.3,403a2.1,2.1,0,0,1-2.71.34c-2-1.21-2.41-3.25-2.17-5.39.21-1.93.36-4,3-4.41.06.1.12.2.19.3.15,2,0,3.92,0,5.88,0,.9-.1,1.87,1.14,2.11A1.05,1.05,0,0,1,92.3,403Z" transform="translate(-0.38 -0.47)"/><path class="cls-8" d="M36.88,393.49c2.25,2.29,2.5,5,1.42,7.83-.57,1.54-1.58,2.55-3.42,2.1a.7.7,0,0,1,0-.77c1.24-2.35.37-4.89.67-7.32C35.68,394.6,35,393,36.88,393.49Z" transform="translate(-0.38 -0.47)"/><path class="cls-8" d="M44.38,393.49c2.25,2.29,2.5,5,1.42,7.83-.57,1.54-1.58,2.55-3.42,2.1a.7.7,0,0,1,0-.77c1.24-2.35.37-4.89.67-7.32C43.18,394.6,42.45,393,44.38,393.49Z" transform="translate(-0.38 -0.47)"/><path class="cls-9" d="M36.88,393.49c-.65,0-.69.19-.64.88.17,2.32.17,4.66.18,7,0,1-.18,1.9-1.54,1.65-2.31-2.6-1.25-5.58-1-8.46a10.47,10.47,0,0,1,.44-1.16A1.83,1.83,0,0,1,36.88,393.49Z" transform="translate(-0.38 -0.47)"/><path class="cls-9" d="M44.38,393.49c-.65,0-.69.19-.64.88.17,2.32.17,4.66.18,7,0,1-.18,1.9-1.54,1.65-2.31-2.6-1.25-5.58-1-8.46a10.47,10.47,0,0,1,.44-1.16A1.83,1.83,0,0,1,44.38,393.49Z" transform="translate(-0.38 -0.47)"/><path class="cls-6" d="M41.87,393.39c.93,1.31-.19,2.61,0,4,.25,1.87-.15,3.81.52,5.66a2.8,2.8,0,0,0,0,.41C38.89,401.59,38.61,396,41.87,393.39Z" transform="translate(-0.38 -0.47)"/><path class="cls-6" d="M34.37,393.39c.93,1.31-.19,2.61,0,4,.25,1.87-.15,3.81.52,5.66a2.8,2.8,0,0,0,0,.41C31.39,401.59,31.11,396,34.37,393.39Z" transform="translate(-0.38 -0.47)"/><path class="cls-6" d="M92.3,403l-.47-1.07a3,3,0,0,1-.74-2.54,20.09,20.09,0,0,0-.72-5.88v0c1.53-.66,2.28.41,2.91,1.44C94.7,397.23,94.21,400.82,92.3,403Z" transform="translate(-0.38 -0.47)"/><path class="cls-11" d="M53.12,399.08c.76.1,1.86-.27,1.76,1.09-.08,1.18-1.1.79-1.75.79s-1.67.4-1.77-.78C51.25,398.83,52.35,399.17,53.12,399.08Z" transform="translate(-0.38 -0.47)"/><path class="cls-21" d="M23.65,403.34a5.55,5.55,0,0,1-3.11.12c-.58-.16-1.13-.51-.92-1.2s.89-.92,1.57-.52S22.67,402.69,23.65,403.34Z" transform="translate(-0.38 -0.47)"/><path class="cls-12" d="M71.42,403.44c-1.74.1-3.19.7-4-.67-.65-1.08.71-1.43,2.24-.47Z" transform="translate(-0.38 -0.47)"/><path class="cls-26" d="M83.85,403.36a5.33,5.33,0,0,1-3,.11c-.71-.19-1.28-.62-.9-1.44.31-.66.94-.57,1.5-.26.79.45,1.42,1.18,2.39,1.28Z" transform="translate(-0.38 -0.47)"/><path class="cls-13" d="M30.39,397.78a1.09,1.09,0,0,1-1.15,1.06,1.16,1.16,0,0,1-1.19-1.29,1.06,1.06,0,0,1,1.15-1.05A1.14,1.14,0,0,1,30.39,397.78Z" transform="translate(-0.38 -0.47)"/><path class="cls-14" d="M30.38,402.44a1,1,0,0,1-1.05,1.1,1.05,1.05,0,0,1-1.27-1.11,1.08,1.08,0,0,1,1.28-1.11A1.05,1.05,0,0,1,30.38,402.44Z" transform="translate(-0.38 -0.47)"/><path class="cls-14" d="M78.14,402.54a1.09,1.09,0,0,1-1.2,1,1,1,0,0,1-1.09-1.1,1,1,0,0,1,1.3-1.12A1.09,1.09,0,0,1,78.14,402.54Z" transform="translate(-0.38 -0.47)"/><path class="cls-29" d="M78.17,397.65c-.2.72-.55,1.27-1.35,1.17a1,1,0,0,1-1-1.18,1.08,1.08,0,0,1,1.28-1.12C77.85,396.57,78,397.15,78.17,397.65Z" transform="translate(-0.38 -0.47)"/><path class="cls-32" d="M83.85,403.36a.8.8,0,0,1,0-.31l1-1.6c0,.4,0,.8.05,1.21Z" transform="translate(-0.38 -0.47)"/><path class="cls-7" d="M12.93,320.5c1.07-.62,1.59-1.12,1.56-2.07-.06-1.73.38-3.59-.11-5.17-.77-2.46.54-2.66,2.32-2.93.44,3.2-.25,6.36.39,9.43.2.93-.41.71-.8.73C15.3,320.54,14.32,320.5,12.93,320.5Z" transform="translate(-0.38 -0.47)"/><path class="cls-22" d="M65.17,320.45H61.24c1.77-2.33,1.45-5.18.77-7.36-.84-2.68.81-2.23,2.11-2.87C65,313.63,63.47,317.2,65.17,320.45Z" transform="translate(-0.38 -0.47)"/><path class="cls-24" d="M84.85,318.45c-.08-1.74-1.25-2.6-2.76-3.25.48-1,2.13-1.36,1.5-2.83-.45-1.05-1.47-.87-2.61-.95,1.28-1.31,2.55-1.57,3.89-.82s1.36,1.8.52,2.93c-.42.57,0,.8.26,1.22,1.39,1.85,1.08,3.51-.75,4.91A.93.93,0,0,1,84.85,318.45Z" transform="translate(-0.38 -0.47)"/><path class="cls-8" d="M92.3,320a2.1,2.1,0,0,1-2.71.34c-2-1.21-2.41-3.25-2.17-5.39.21-1.93.36-4,3-4.41.06.1.12.2.19.3.15,2,0,3.92,0,5.88,0,.9-.1,1.87,1.14,2.11A1.05,1.05,0,0,1,92.3,320Z" transform="translate(-0.38 -0.47)"/><path class="cls-8" d="M44.38,310.49c2.25,2.29,2.5,5,1.42,7.83-.57,1.54-1.58,2.55-3.42,2.1a.7.7,0,0,1,0-.77c1.24-2.35.37-4.89.67-7.32C43.18,311.6,42.45,310,44.38,310.49Z" transform="translate(-0.38 -0.47)"/><path class="cls-8" d="M36.88,310.49c2.25,2.29,2.5,5,1.42,7.83-.57,1.54-1.58,2.55-3.42,2.1a.7.7,0,0,1,0-.77c1.24-2.35.37-4.89.67-7.32C35.68,311.6,35,310,36.88,310.49Z" transform="translate(-0.38 -0.47)"/><path class="cls-9" d="M44.38,310.49c-.65,0-.69.19-.64.88.17,2.32.17,4.66.18,7,0,1-.18,1.9-1.54,1.65-2.31-2.6-1.25-5.58-1-8.46a10.47,10.47,0,0,1,.44-1.16A1.83,1.83,0,0,1,44.38,310.49Z" transform="translate(-0.38 -0.47)"/><path class="cls-9" d="M36.88,310.49c-.65,0-.69.19-.64.88.17,2.32.17,4.66.18,7,0,1-.18,1.9-1.54,1.65-2.31-2.6-1.25-5.58-1-8.46a10.47,10.47,0,0,1,.44-1.16A1.83,1.83,0,0,1,36.88,310.49Z" transform="translate(-0.38 -0.47)"/><path class="cls-6" d="M34.37,310.39c.93,1.31-.19,2.61,0,4,.25,1.87-.15,3.81.52,5.66a2.8,2.8,0,0,0,0,.41C31.39,318.59,31.11,313,34.37,310.39Z" transform="translate(-0.38 -0.47)"/><path class="cls-6" d="M41.87,310.39c.93,1.31-.19,2.61,0,4,.25,1.87-.15,3.81.52,5.66a2.8,2.8,0,0,0,0,.41C38.89,318.59,38.61,313,41.87,310.39Z" transform="translate(-0.38 -0.47)"/><path class="cls-6" d="M92.3,320l-.47-1.07a3,3,0,0,1-.74-2.54,20.09,20.09,0,0,0-.72-5.88v0c1.53-.66,2.28.41,2.91,1.44C94.7,314.23,94.21,317.82,92.3,320Z" transform="translate(-0.38 -0.47)"/><path class="cls-8" d="M67.86,312.12c.81-1.42,1.87-2.2,3.46-1.84a2.41,2.41,0,0,1,2.07,2.44c0,2.23-1.4,3.45-3.34,4.69C72.41,312.24,71.07,311.78,67.86,312.12Z" transform="translate(-0.38 -0.47)"/><path class="cls-24" d="M21.9,318c-.13-.78.54-1.17.86-1.72,1.74-2.93,1.19-4.1-2.36-4.51,1.27-1.57,2.68-2.27,4.32-1s1.42,2.92.22,4.4a8.94,8.94,0,0,1-3.09,2.8Z" transform="translate(-0.38 -0.47)"/><path class="cls-23" d="M21.85,318c.79.94,1.84.4,2.77.48.69.07,1.35,0,1.3,1s-.59,1.06-1.33,1.05H19.67A3.88,3.88,0,0,1,21.9,318Z" transform="translate(-0.38 -0.47)"/><path class="cls-23" d="M73.46,319.62c-.44,1.64-1.76.71-2.67.85a25.68,25.68,0,0,1-3.43,0c.65-1.51,1.12-2.65,3-2.06a8.1,8.1,0,0,0,2.46,0C73.79,318.42,73.65,319,73.46,319.62Z" transform="translate(-0.38 -0.47)"/><path class="cls-11" d="M53.2,318c-.76-.17-1.78.31-1.84-.89-.06-1.36,1-1,1.8-1s1.66-.31,1.73.86C55,318.41,53.77,317.78,53.2,318Z" transform="translate(-0.38 -0.47)"/><path class="cls-26" d="M83.85,320.36a5.33,5.33,0,0,1-3,.11c-.71-.19-1.28-.62-.9-1.44.31-.66.94-.57,1.5-.26.79.45,1.42,1.18,2.39,1.28Z" transform="translate(-0.38 -0.47)"/><path class="cls-14" d="M76.86,320.55a1,1,0,0,1-1-1.17A1,1,0,0,1,77,318.32a1.05,1.05,0,0,1,1.13,1.3A1,1,0,0,1,76.86,320.55Z" transform="translate(-0.38 -0.47)"/><path class="cls-14" d="M30.36,319.69c-.1.63-.59.94-1.35.84a1,1,0,0,1-.94-1.18,1.07,1.07,0,0,1,1.36-1C30.06,318.45,30.43,318.84,30.36,319.69Z" transform="translate(-0.38 -0.47)"/><path class="cls-13" d="M29.32,315.87A1.25,1.25,0,0,1,28,314.64a1.06,1.06,0,0,1,1.07-1.13,1.12,1.12,0,0,1,1.28,1.18C30.41,315.36,30,315.72,29.32,315.87Z" transform="translate(-0.38 -0.47)"/><path class="cls-29" d="M78.14,314.56c-.07.76-.45,1.27-1.2,1.27a1,1,0,0,1-1.08-1.07A1.08,1.08,0,0,1,77,313.51C77.71,313.49,78,314,78.14,314.56Z" transform="translate(-0.38 -0.47)"/><path class="cls-38" d="M73.46,319.62a1.6,1.6,0,0,0-.64-1.17c.26-.3.66-.91.9-.63C74.16,318.36,73.9,319.06,73.46,319.62Z" transform="translate(-0.38 -0.47)"/><path class="cls-32" d="M83.85,320.36a.8.8,0,0,1,0-.31l1-1.6.05,1.21Z" transform="translate(-0.38 -0.47)"/><path class="cls-7" d="M17.12,568.91H13a2.06,2.06,0,0,0,1.51-2.37c-.19-2,.32-4.07-.37-6.11-.49-1.45,1.06-1.1,1.71-1.43,1-.51,1,.31,1,1C16.94,562.94,16.6,565.89,17.12,568.91Z" transform="translate(-0.38 -0.47)"/><path class="cls-22" d="M65.19,568.94H61.4c1.38-2.64.9-5.4.53-8.14,0-.39-.88-.79-.19-1.17a4.91,4.91,0,0,1,2.34-.65c.52,0,.3.82.31,1.28,0,2,0,4,0,6C64.4,567.23,64.25,568.29,65.19,568.94Z" transform="translate(-0.38 -0.47)"/><path class="cls-24" d="M84.85,567a3.5,3.5,0,0,0-2.79-3.19c.51-1.06,2.15-1.42,1.54-2.89-.45-1.09-1.52-.77-2.52-1a2.9,2.9,0,0,1,3.79-.72c1.26.7,1.36,1.8.52,2.93-.42.57,0,.8.26,1.22,1.39,1.85,1.08,3.51-.75,4.91A.93.93,0,0,1,84.85,567Z" transform="translate(-0.38 -0.47)"/><path class="cls-8" d="M92.3,568.47a2.1,2.1,0,0,1-2.71.34c-2-1.21-2.41-3.25-2.17-5.39.21-1.93.36-4,3-4.41.06.1.12.2.19.3.15,2,0,3.92,0,5.88,0,.9-.1,1.87,1.14,2.11A1.05,1.05,0,0,1,92.3,568.47Z" transform="translate(-0.38 -0.47)"/><path class="cls-8" d="M44.38,559c2.25,2.29,2.5,5,1.42,7.83-.57,1.54-1.58,2.55-3.42,2.1a.7.7,0,0,1,0-.77c1.24-2.35.37-4.89.67-7.32C43.18,560.1,42.45,558.52,44.38,559Z" transform="translate(-0.38 -0.47)"/><path class="cls-8" d="M36.88,559c2.25,2.29,2.5,5,1.42,7.83-.57,1.54-1.58,2.55-3.42,2.1a.7.7,0,0,1,0-.77c1.24-2.35.37-4.89.67-7.32C35.68,560.1,35,558.52,36.88,559Z" transform="translate(-0.38 -0.47)"/><path class="cls-9" d="M44.38,559c-.65,0-.69.19-.64.88.17,2.32.17,4.66.18,7,0,1-.18,1.9-1.54,1.65-2.31-2.6-1.25-5.58-1-8.46a10.47,10.47,0,0,1,.44-1.16A1.83,1.83,0,0,1,44.38,559Z" transform="translate(-0.38 -0.47)"/><path class="cls-9" d="M36.88,559c-.65,0-.69.19-.64.88.17,2.32.17,4.66.18,7,0,1-.18,1.9-1.54,1.65-2.31-2.6-1.25-5.58-1-8.46a10.47,10.47,0,0,1,.44-1.16A1.83,1.83,0,0,1,36.88,559Z" transform="translate(-0.38 -0.47)"/><path class="cls-6" d="M34.37,558.89c.93,1.31-.19,2.61,0,4,.25,1.87-.15,3.81.52,5.66a2.8,2.8,0,0,0,0,.41C31.39,567.09,31.11,561.52,34.37,558.89Z" transform="translate(-0.38 -0.47)"/><path class="cls-6" d="M41.87,558.89c.93,1.31-.19,2.61,0,4,.25,1.87-.15,3.81.52,5.66a2.8,2.8,0,0,0,0,.41C38.89,567.09,38.61,561.52,41.87,558.89Z" transform="translate(-0.38 -0.47)"/><path class="cls-6" d="M92.3,568.47l-.47-1.07a3,3,0,0,1-.74-2.54,20.09,20.09,0,0,0-.72-5.88v0c1.53-.66,2.28.41,2.91,1.44C94.7,562.73,94.21,566.32,92.3,568.47Z" transform="translate(-0.38 -0.47)"/><path class="cls-24" d="M68.82,561.5c.39.75,1.17.47,1.76.64,3,.85,3.68,2.48,2.3,5.36-.18.21-.37.23-.55,0,.37-2-.8-2.84-2.42-3.07-2.1-.28-2.44-1.21-1.47-2.92C68.57,561.26,68.69,561.27,68.82,561.5Z" transform="translate(-0.38 -0.47)"/><path class="cls-15" d="M21.37,561c-.09,1.55,1.26,1,1.95,1.23,2.62,1,3.26,2.55,1.8,5.36-.36-1.52-.89-2.91-2.47-3.07C20,564.25,19.92,563,21,561,21.09,560.84,21.22,560.85,21.37,561Z" transform="translate(-0.38 -0.47)"/><path class="cls-33" d="M68.82,561.5h-.38c.54-2.54,2-3.39,4.58-2.64.44.13.8.24.66.79a1.39,1.39,0,0,1-1.35,1.2C71.15,561,69.82,560.35,68.82,561.5Z" transform="translate(-0.38 -0.47)"/><path class="cls-11" d="M21.37,561H21c.46-1.81,3.2-3,4.73-2.09a.66.66,0,0,1,.32.81,1.18,1.18,0,0,1-1.17,1.08Z" transform="translate(-0.38 -0.47)"/><path class="cls-11" d="M53.07,566.51c-.68-.14-1.69.3-1.71-.91s1.09-1,1.84-1,1.66-.27,1.68.9C54.91,566.91,53.75,566.33,53.07,566.51Z" transform="translate(-0.38 -0.47)"/><path class="cls-24" d="M24.39,568.18a3.85,3.85,0,0,1-3.78.67c-.55-.14-1.06-.56-.83-1.27s.88-.72,1.4-.45A6.89,6.89,0,0,0,24.39,568.18Z" transform="translate(-0.38 -0.47)"/><path class="cls-26" d="M83.85,568.86a5.33,5.33,0,0,1-3,.11c-.71-.19-1.28-.62-.9-1.44.31-.66.94-.57,1.5-.25.79.44,1.42,1.17,2.39,1.27Z" transform="translate(-0.38 -0.47)"/><path class="cls-24" d="M70.83,568.91a2.64,2.64,0,0,1-.49.08c-1,.06-2.18.29-2.89-.78a.74.74,0,0,1,.27-1.07c1.1-.46,1.8.46,2.65.88C70.63,568.26,71.13,568.38,70.83,568.91Z" transform="translate(-0.38 -0.47)"/><path class="cls-14" d="M77,569.06a1,1,0,0,1-1.1-1.09,1,1,0,0,1,1.05-1.15A1.07,1.07,0,0,1,78.13,568,1,1,0,0,1,77,569.06Z" transform="translate(-0.38 -0.47)"/><path class="cls-14" d="M29.26,569.07c-.77-.05-1.24-.45-1.2-1.22a1.16,1.16,0,0,1,2.31.18C30.32,568.72,29.89,569,29.26,569.07Z" transform="translate(-0.38 -0.47)"/><path class="cls-13" d="M29.33,564.37A1.26,1.26,0,0,1,28,563.14,1.06,1.06,0,0,1,29.11,562a1.11,1.11,0,0,1,1.28,1.18C30.41,563.85,30,564.21,29.33,564.37Z" transform="translate(-0.38 -0.47)"/><path class="cls-29" d="M76.91,562a1.09,1.09,0,0,1,1.19,1,1.1,1.1,0,0,1-1.12,1.3,1,1,0,0,1-1.12-1A1.1,1.1,0,0,1,76.91,562Z" transform="translate(-0.38 -0.47)"/><path class="cls-35" d="M70.83,568.91l-.46-.89a3.22,3.22,0,0,0,2-.52h.55A2.59,2.59,0,0,1,70.83,568.91Z" transform="translate(-0.38 -0.47)"/><path class="cls-32" d="M83.85,568.86a.8.8,0,0,1,0-.31l1-1.6c0,.4,0,.8.05,1.21Z" transform="translate(-0.38 -0.47)"/><path class="cls-19" d="M70.31,437a6.59,6.59,0,0,1,.61-1.07c.46-.52.76-1.51,1.69-1.09.72.33.33,1.19.42,1.81.21,1.66-.32,3.32.7,5,.55.93-.58,2.32-1.35,3.29-.14.18-.77,0-1.18-.06.43-3.23-3.84-.7-4-3.23a1.44,1.44,0,0,1,.6-1.3c.7.15,1.41.8,2.07-.06.45-.95.18-2,.41-3C70.31,437.18,70.31,437.07,70.31,437Z" transform="translate(-0.38 -0.47)"/><path class="cls-7" d="M12.94,445c1.07-.61,1.58-1.13,1.55-2.08-.06-1.73.36-3.58-.11-5.18-.71-2.41.5-2.68,2.32-2.88.45,3.17-.26,6.33.4,9.41.19.93-.43.7-.82.72C15.3,445,14.31,445,12.94,445Z" transform="translate(-0.38 -0.47)"/><path class="cls-22" d="M64.2,434.91c.79,3.3-.74,6.83,1,10H61.39c1.39-3,1.08-6.06.19-9.2A6.18,6.18,0,0,1,64.2,434.91Z" transform="translate(-0.38 -0.47)"/><path class="cls-15" d="M33.34,435.73c1.42-1.1,2.67-1.4,3.91-.55s1.06,1.9.31,3c-.41.6.23.84.49,1.21,1.29,1.73.73,3.17-1,4.9,0-2.33-.65-3.94-3-4.72,1.23-.75,2.12-1.44,1.73-2.69S34.34,436.15,33.34,435.73Z" transform="translate(-0.38 -0.47)"/><path class="cls-15" d="M20.85,435.71c1.43-1.08,2.68-1.38,3.92-.52s1,1.91.28,3c-.4.6.25.85.52,1.21,1.27,1.74.71,3.17-1,4.91,0-2.23-.42-3.95-2.62-4.48.32-1.1,1.76-1.43,1.45-2.73S21.87,436.18,20.85,435.71Z" transform="translate(-0.38 -0.47)"/><path class="cls-8" d="M92.3,444.47a2.1,2.1,0,0,1-2.71.34c-2-1.21-2.41-3.25-2.17-5.39.21-1.93.36-4,3-4.41.06.1.12.2.19.3.15,2,0,3.92,0,5.88,0,.9-.1,1.87,1.14,2.11A1.05,1.05,0,0,1,92.3,444.47Z" transform="translate(-0.38 -0.47)"/><path class="cls-8" d="M84.8,444.47a2.1,2.1,0,0,1-2.71.34c-2-1.21-2.41-3.25-2.17-5.39.21-1.93.36-4,3-4.41.06.1.12.2.19.3.15,2,0,3.92,0,5.88,0,.9-.1,1.87,1.14,2.11A1.05,1.05,0,0,1,84.8,444.47Z" transform="translate(-0.38 -0.47)"/><path class="cls-8" d="M44.38,435c2.25,2.29,2.5,5,1.42,7.83-.57,1.54-1.58,2.55-3.42,2.1a.7.7,0,0,1,0-.77c1.24-2.35.37-4.89.67-7.32C43.18,436.1,42.45,434.52,44.38,435Z" transform="translate(-0.38 -0.47)"/><path class="cls-9" d="M44.38,435c-.65,0-.69.19-.64.88.17,2.32.17,4.66.18,7,0,1-.18,1.9-1.54,1.65-2.31-2.6-1.25-5.58-1-8.46a10.47,10.47,0,0,1,.44-1.16A1.83,1.83,0,0,1,44.38,435Z" transform="translate(-0.38 -0.47)"/><path class="cls-6" d="M41.87,434.89c.93,1.31-.19,2.61,0,4,.25,1.87-.15,3.81.52,5.66a2.8,2.8,0,0,0,0,.41C38.89,443.09,38.61,437.52,41.87,434.89Z" transform="translate(-0.38 -0.47)"/><path class="cls-6" d="M92.3,444.47l-.47-1.07a3,3,0,0,1-.74-2.54,20.09,20.09,0,0,0-.72-5.88v0c1.53-.66,2.28.41,2.91,1.44C94.7,438.73,94.21,442.32,92.3,444.47Z" transform="translate(-0.38 -0.47)"/><path class="cls-6" d="M84.8,444.47l-.47-1.07a3,3,0,0,1-.74-2.54,20.09,20.09,0,0,0-.72-5.88v0c1.53-.66,2.28.41,2.91,1.44C87.2,438.73,86.71,442.32,84.8,444.47Z" transform="translate(-0.38 -0.47)"/><path class="cls-11" d="M53.18,442.53c-.79-.16-1.8.28-1.82-.93s1.09-1,1.84-1,1.65-.27,1.69.9C54.92,443,53.71,442.25,53.18,442.53Z" transform="translate(-0.38 -0.47)"/><path class="cls-21" d="M23.46,444.7a3.91,3.91,0,0,1-2.65.32c-.6-.11-1.15-.33-1.21-1a1.13,1.13,0,0,1,.43-.79,1.09,1.09,0,0,1,1.36.12A8.44,8.44,0,0,0,23.46,444.7Z" transform="translate(-0.38 -0.47)"/><path class="cls-21" d="M36.45,444.61a4.66,4.66,0,0,1-3.52.3c-.57-.16-1.07-.56-.77-1.27a1,1,0,0,1,1.43-.46C34.45,443.59,35,444.43,36.45,444.61Z" transform="translate(-0.38 -0.47)"/><path class="cls-14" d="M77,442.79a1.12,1.12,0,0,1,1.17,1.07,1.06,1.06,0,0,1-1.25,1.19,1,1,0,0,1-1-1.16C75.85,443.17,76.33,442.89,77,442.79Z" transform="translate(-0.38 -0.47)"/><path class="cls-14" d="M29.26,445.07c-.77-.05-1.24-.45-1.2-1.22a1.16,1.16,0,0,1,2.31.18C30.32,444.72,29.89,445,29.26,445.07Z" transform="translate(-0.38 -0.47)"/><path class="cls-13" d="M29.22,438a1.15,1.15,0,0,1,1.15,1.32,1.05,1.05,0,0,1-1.14,1.05A1.17,1.17,0,0,1,28.05,439,1.13,1.13,0,0,1,29.22,438Z" transform="translate(-0.38 -0.47)"/><path class="cls-29" d="M76.9,438a1.08,1.08,0,0,1,1.2,1A1.12,1.12,0,0,1,77,440.34a1,1,0,0,1-1.13-1A1.09,1.09,0,0,1,76.9,438Z" transform="translate(-0.38 -0.47)"/><path class="cls-17" d="M70.85,441c-1.2.77-2.34,1.18-3-.63.08-.84.72-1.29,1.25-1.82a.43.43,0,0,1,.54.25A2.4,2.4,0,0,0,70.85,441Z" transform="translate(-0.38 -0.47)"/><path class="cls-39" d="M69.46,438.52h-.37A2,2,0,0,1,70.31,437l.11.15C70.78,438,70.47,438.52,69.46,438.52Z" transform="translate(-0.38 -0.47)"/><path class="cls-6" d="M16.86,103.43c3.46,3.48,2.47,7.5-2.4,9.71-.33-.18-.39-.41-.11-.68a18.59,18.59,0,0,0,1.33-1.77c.25-.42.3-.81-.43-1.09-3.68-1.43-4.08-3.4-1.35-6.17,1-.43,1.14.2,1.24.93s-.21,1.8.29,2.73c.4-.94.07-1.85.19-2.72S15.89,103,16.86,103.43Z" transform="translate(-0.38 -0.47)"/><path class="cls-22" d="M57.69,113.5c-1,0-2,0-3,0-.32,0-.64,0-.8-.06,1.35-2.65.9-5.41.51-8.15-.05-.39-.87-.79-.17-1.17a4.86,4.86,0,0,1,2.33-.64c.52,0,.3.83.31,1.28,0,2,0,4,0,6C56.9,111.73,56.75,112.79,57.69,113.5Z" transform="translate(-0.38 -0.47)"/><path class="cls-15" d="M25.92,104.2c1.28-1.08,2.55-1.41,3.88-.49a1.8,1.8,0,0,1,.34,2.81c-.53.72.14,1,.45,1.42,1.27,1.75.61,3.16-1.09,5.06.05-2.24-.22-3.81-2-4.49-.48-.19-.5-.44-.21-.93C28.81,104.93,28.79,104.91,25.92,104.2Z" transform="translate(-0.38 -0.47)"/><path class="cls-8" d="M84.8,113a2.1,2.1,0,0,1-2.71.34c-2-1.21-2.41-3.25-2.17-5.39.21-1.93.36-4,3-4.41.06.1.12.2.19.3.15,2,0,3.92,0,5.88,0,.9-.1,1.87,1.14,2.11A1.05,1.05,0,0,1,84.8,113Z" transform="translate(-0.38 -0.47)"/><path class="cls-8" d="M36.88,103.49c2.25,2.29,2.5,5,1.42,7.83-.57,1.54-1.58,2.55-3.42,2.1a.7.7,0,0,1,0-.77c1.24-2.35.37-4.89.67-7.32C35.68,104.6,35,103,36.88,103.49Z" transform="translate(-0.38 -0.47)"/><path class="cls-9" d="M36.88,103.49c-.65,0-.69.19-.64.88.17,2.32.17,4.66.18,7,0,1-.18,1.9-1.54,1.65-2.31-2.6-1.25-5.58-1-8.46a10.47,10.47,0,0,1,.44-1.16A1.83,1.83,0,0,1,36.88,103.49Z" transform="translate(-0.38 -0.47)"/><path class="cls-6" d="M34.37,103.39c.93,1.31-.19,2.61,0,4,.25,1.87-.15,3.81.52,5.66a2.8,2.8,0,0,0,0,.41C31.39,111.59,31.11,106,34.37,103.39Z" transform="translate(-0.38 -0.47)"/><path class="cls-6" d="M63.88,103.46c2.93,1.77,3.52,7.32,1,9.44a2.39,2.39,0,0,1-3.16.16,1.58,1.58,0,0,1,.48-.58c1.45-.63,1.24-2,1.41-3.2.23-1.74-.44-3.46-.17-5.21A1.22,1.22,0,0,1,63.88,103.46Z" transform="translate(-0.38 -0.47)"/><path class="cls-6" d="M76.38,103.46c2.93,1.77,3.52,7.32,1,9.44a2.39,2.39,0,0,1-3.16.16,1.58,1.58,0,0,1,.48-.58c1.45-.63,1.24-2,1.41-3.2.23-1.74-.44-3.46-.17-5.21A1.22,1.22,0,0,1,76.38,103.46Z" transform="translate(-0.38 -0.47)"/><path class="cls-6" d="M84.8,113l-.47-1.07a3,3,0,0,1-.74-2.54,20.09,20.09,0,0,0-.72-5.88v0c1.53-.66,2.28.41,2.91,1.44C87.2,107.23,86.71,110.82,84.8,113Z" transform="translate(-0.38 -0.47)"/><path class="cls-6" d="M74.92,113l-.72.07c-2.94-3-2.61-7.62.68-9.62a1.46,1.46,0,0,1,.48.71C75.07,107.08,75.69,110.07,74.92,113Z" transform="translate(-0.38 -0.47)"/><path class="cls-6" d="M62.42,113l-.72.07c-2.94-3-2.61-7.62.68-9.62a1.46,1.46,0,0,1,.48.71C62.57,107.08,63.19,110.07,62.42,113Z" transform="translate(-0.38 -0.47)"/><path class="cls-10" d="M16.86,103.43c-1.81.31-.16,1.37-.42,2.06-.41,1.08.78,3.22-.81,3.24s-1-2.18-1.3-3.45c-.14-.61,1.24-1.64-.43-1.85A2.43,2.43,0,0,1,16.86,103.43Z" transform="translate(-0.38 -0.47)"/><path class="cls-11" d="M45.8,111c-.78-.21-1.93.4-1.94-1,0-1.17,1-1,1.66-.92s1.84-.39,1.87,1S46.36,110.83,45.8,111Z" transform="translate(-0.38 -0.47)"/><path class="cls-21" d="M28.94,113.11a4.63,4.63,0,0,1-3.51.3c-.57-.16-1.07-.56-.77-1.27a1,1,0,0,1,1.43-.46C26.94,112.09,27.52,112.94,28.94,113.11Z" transform="translate(-0.38 -0.47)"/><path class="cls-14" d="M22.85,112.7a1.06,1.06,0,0,1-1.45.8,1,1,0,0,1-.81-1.26,1.09,1.09,0,0,1,1.46-.88A1.06,1.06,0,0,1,22.85,112.7Z" transform="translate(-0.38 -0.47)"/><path class="cls-14" d="M69.42,108.85a1.13,1.13,0,0,1-1.19-1.06,1.07,1.07,0,0,1,1.17-1.27,1,1,0,0,1,1.06,1.14A1.14,1.14,0,0,1,69.42,108.85Z" transform="translate(-0.38 -0.47)"/><path class="cls-13" d="M21.83,108.86a1.24,1.24,0,0,1-1.29-1.21,1.07,1.07,0,0,1,1.06-1.14,1.11,1.11,0,0,1,1.29,1.17C22.91,108.35,22.47,108.71,21.83,108.86Z" transform="translate(-0.38 -0.47)"/><path class="cls-15" d="M69.31,111.38c.67,0,1.1.32,1.11,1a1,1,0,0,1-1,1.12,1,1,0,0,1-1.1-1C68.25,111.79,68.64,111.45,69.31,111.38Z" transform="translate(-0.38 -0.47)"/><path class="cls-17" d="M14.35,112.46c0,.23.07.45.11.68a1.47,1.47,0,0,1-1.75.18A2.53,2.53,0,0,1,14.35,112.46Z" transform="translate(-0.38 -0.47)"/><path class="cls-18" d="M62.44,104.05l-.06-.61a.86.86,0,0,1,1.5,0l-.07.59A1.6,1.6,0,0,1,62.44,104.05Z" transform="translate(-0.38 -0.47)"/><path class="cls-18" d="M74.94,104.05l-.06-.61a.86.86,0,0,1,1.5,0l-.07.59A1.6,1.6,0,0,1,74.94,104.05Z" transform="translate(-0.38 -0.47)"/><path class="cls-7" d="M16.7,600.35c.44,3.19-.25,6.35.4,9.44.19.92-.46.68-.84.7-1,0-2,0-3.32,0,1.07-.63,1.59-1.14,1.55-2.1-.07-1.73.35-3.58-.11-5.18C13.69,600.82,14.91,600.55,16.7,600.35Z" transform="translate(-0.38 -0.47)"/><path class="cls-22" d="M65.12,610.45H61.38c1.4-3,1.08-6.07.2-9.21a6.25,6.25,0,0,1,2.66-.82C64.92,603.69,63.58,607.15,65.12,610.45Z" transform="translate(-0.38 -0.47)"/><path class="cls-8" d="M71.38,610.39c-3.16.16-4.86-2.36-3.84-5.72.58-1.92,1.69-2.93,4.17-3.66-.08,1.19-3,2.77.28,3.44a2.64,2.64,0,0,1-.82,1c-1,1.47-.69,2.88.23,4.25A.64.64,0,0,1,71.38,610.39Z" transform="translate(-0.38 -0.47)"/><path class="cls-15" d="M37.09,609.4a3.49,3.49,0,0,0-2.67-4.11c2.23-2.6,2-3.37-1-4a2.75,2.75,0,0,1,3.6-.75,1.8,1.8,0,0,1,.61,2.94c-.52.74.12,1,.43,1.45C39.35,606.7,38.77,608.12,37.09,609.4Z" transform="translate(-0.38 -0.47)"/><path class="cls-8" d="M84.8,610a2.1,2.1,0,0,1-2.71.34c-2-1.21-2.41-3.25-2.17-5.39.21-1.93.36-4,3-4.41.06.1.12.2.19.3.15,2,0,3.92,0,5.88,0,.9-.1,1.87,1.14,2.11A1.05,1.05,0,0,1,84.8,610Z" transform="translate(-0.38 -0.47)"/><path class="cls-8" d="M92.3,610a2.1,2.1,0,0,1-2.71.34c-2-1.21-2.41-3.25-2.17-5.39.21-1.93.36-4,3-4.41.06.1.12.2.19.3.15,2,0,3.92,0,5.88,0,.9-.1,1.87,1.14,2.11A1.05,1.05,0,0,1,92.3,610Z" transform="translate(-0.38 -0.47)"/><path class="cls-8" d="M44.38,600.49c2.25,2.29,2.5,5,1.42,7.83-.57,1.54-1.58,2.55-3.42,2.1a.7.7,0,0,1,0-.77c1.24-2.35.37-4.89.67-7.32C43.18,601.6,42.45,600,44.38,600.49Z" transform="translate(-0.38 -0.47)"/><path class="cls-9" d="M44.38,600.49c-.65,0-.69.19-.64.88.17,2.32.17,4.66.18,7,0,1-.18,1.9-1.54,1.65-2.31-2.6-1.25-5.58-1-8.46a10.47,10.47,0,0,1,.44-1.16A1.83,1.83,0,0,1,44.38,600.49Z" transform="translate(-0.38 -0.47)"/><path class="cls-6" d="M41.87,600.39c.93,1.31-.19,2.61,0,4,.25,1.87-.15,3.81.52,5.66a2.8,2.8,0,0,0,0,.41C38.89,608.59,38.61,603,41.87,600.39Z" transform="translate(-0.38 -0.47)"/><path class="cls-6" d="M84.8,610l-.47-1.07a3,3,0,0,1-.74-2.54,20.09,20.09,0,0,0-.72-5.88v0c1.53-.66,2.28.41,2.91,1.44C87.2,604.23,86.71,607.82,84.8,610Z" transform="translate(-0.38 -0.47)"/><path class="cls-6" d="M92.3,610l-.47-1.07a3,3,0,0,1-.74-2.54,20.09,20.09,0,0,0-.72-5.88v0c1.53-.66,2.28.41,2.91,1.44C94.7,604.23,94.21,607.82,92.3,610Z" transform="translate(-0.38 -0.47)"/><path class="cls-15" d="M21.37,602.5c-.09,1.55,1.26,1,1.95,1.23,2.62,1,3.26,2.55,1.8,5.36-.36-1.52-.89-2.91-2.47-3.07-2.61-.27-2.73-1.57-1.7-3.51C21.09,602.34,21.22,602.35,21.37,602.5Z" transform="translate(-0.38 -0.47)"/><path class="cls-19" d="M71.38,610.39c0-.1,0-.21,0-.31a15.8,15.8,0,0,1-.51-5.17l1.1-.46c1.84.34,2,1.71,1.91,3.19S73.11,610.29,71.38,610.39Z" transform="translate(-0.38 -0.47)"/><path class="cls-11" d="M21.37,602.5H21c.46-1.81,3.2-3,4.73-2.09a.66.66,0,0,1,.32.81,1.18,1.18,0,0,1-1.17,1.08Z" transform="translate(-0.38 -0.47)"/><path class="cls-11" d="M53.18,608c-.69-.18-1.85.4-1.82-1,0-1.16,1-.91,1.69-.89s1.85-.37,1.83,1C54.87,608.32,53.85,607.87,53.18,608Z" transform="translate(-0.38 -0.47)"/><path class="cls-24" d="M24.35,609.67a3.6,3.6,0,0,1-3.47.76c-.67-.11-1.33-.5-1.1-1.31s1-.74,1.59-.4A6,6,0,0,0,24.35,609.67Z" transform="translate(-0.38 -0.47)"/><path class="cls-21" d="M36,610.21a4.05,4.05,0,0,1-2.93.25c-.58-.16-1.13-.5-.92-1.19s.88-.91,1.57-.54S35,609.92,36,610.21Z" transform="translate(-0.38 -0.47)"/><path class="cls-14" d="M78.15,609.47c-.1.65-.43,1.08-1.13,1.08a1,1,0,0,1-1.17-1c0-.86.46-1.23,1.22-1.22A1.11,1.11,0,0,1,78.15,609.47Z" transform="translate(-0.38 -0.47)"/><path class="cls-14" d="M29.23,610.57c-.76-.08-1.18-.48-1.17-1.11a1.08,1.08,0,0,1,1.26-1.14,1.13,1.13,0,0,1-.09,2.25Z" transform="translate(-0.38 -0.47)"/><path class="cls-13" d="M30.4,604.54c0,.79-.4,1.23-1,1.29A1.16,1.16,0,0,1,28,604.67a1.06,1.06,0,0,1,1-1.16A1.16,1.16,0,0,1,30.4,604.54Z" transform="translate(-0.38 -0.47)"/><path class="cls-29" d="M78.15,604.67c-.16.69-.5,1.22-1.29,1.16a1,1,0,0,1-1-1.15,1.08,1.08,0,0,1,1.25-1.16C77.8,603.55,78,604.09,78.15,604.67Z" transform="translate(-0.38 -0.47)"/><path class="cls-19" d="M22.57,478.56c.61-.95,1.08-2.55,2.28-2.26s.43,1.86.56,2.86c.18,1.33-.06,2.6.73,4,.52.9-.57,2.38-1.5,3.31-.12.12-.69,0-.7,0-.37-2.75-3.2-1.39-4.35-2.66a1.14,1.14,0,0,1,.78-1.74C22.58,481.82,23,480.45,22.57,478.56Z" transform="translate(-0.38 -0.47)"/><path class="cls-19" d="M70.31,478.46a6.59,6.59,0,0,1,.61-1.07c.46-.52.76-1.51,1.69-1.09.72.33.33,1.19.42,1.81.21,1.66-.32,3.32.7,5,.55.93-.58,2.32-1.35,3.29-.14.18-.77,0-1.18-.06.43-3.23-3.84-.7-4-3.23a1.44,1.44,0,0,1,.6-1.3c.7.15,1.41.8,2.07-.06.45-.95.18-2,.41-3C70.31,478.68,70.31,478.57,70.31,478.46Z" transform="translate(-0.38 -0.47)"/><path class="cls-7" d="M13,486.5c1-.63,1.53-1.1,1.5-2-.08-2-.06-4-.1-5.94,0-.52-1.11-1.12.09-1.54.69-.24,1.37-.89,2.09-.52.55.28.24,1,.27,1.6.13,2.55-.3,5.13.25,7.65.19.89-.33.76-.76.77C15.34,486.53,14.36,486.5,13,486.5Z" transform="translate(-0.38 -0.47)"/><path class="cls-22" d="M65.1,486.45H61.24c1.77-2.33,1.45-5.18.77-7.36-.83-2.68.8-2.23,2.14-2.88C65,479.64,63.56,483.19,65.1,486.45Z" transform="translate(-0.38 -0.47)"/><path class="cls-24" d="M84.85,484.45c-.08-1.74-1.25-2.6-2.76-3.25.48-1,2.13-1.36,1.5-2.83-.44-1.05-1.47-.87-2.61-.95,1.28-1.31,2.55-1.57,3.89-.82s1.36,1.8.52,2.93c-.42.57,0,.8.26,1.22,1.39,1.85,1.08,3.51-.75,4.91A.93.93,0,0,1,84.85,484.45Z" transform="translate(-0.38 -0.47)"/><path class="cls-8" d="M92.3,486a2.1,2.1,0,0,1-2.71.34c-2-1.21-2.41-3.25-2.17-5.39.21-1.93.36-4,3-4.41.06.1.12.2.19.3.15,2,0,3.92,0,5.88,0,.9-.1,1.87,1.14,2.11A1.05,1.05,0,0,1,92.3,486Z" transform="translate(-0.38 -0.47)"/><path class="cls-8" d="M36.88,476.49c2.25,2.29,2.5,5,1.42,7.83-.57,1.54-1.58,2.55-3.42,2.1a.7.7,0,0,1,0-.77c1.24-2.35.37-4.89.67-7.32C35.68,477.6,35,476,36.88,476.49Z" transform="translate(-0.38 -0.47)"/><path class="cls-8" d="M44.38,476.49c2.25,2.29,2.5,5,1.42,7.83-.57,1.54-1.58,2.55-3.42,2.1a.7.7,0,0,1,0-.77c1.24-2.35.37-4.89.67-7.32C43.18,477.6,42.45,476,44.38,476.49Z" transform="translate(-0.38 -0.47)"/><path class="cls-9" d="M36.88,476.49c-.65,0-.69.19-.64.88.17,2.32.17,4.66.18,7,0,1-.18,1.9-1.54,1.65-2.31-2.6-1.25-5.58-1-8.46a10.47,10.47,0,0,1,.44-1.16A1.83,1.83,0,0,1,36.88,476.49Z" transform="translate(-0.38 -0.47)"/><path class="cls-9" d="M44.38,476.49c-.65,0-.69.19-.64.88.17,2.32.17,4.66.18,7,0,1-.18,1.9-1.54,1.65-2.31-2.6-1.25-5.58-1-8.46a10.47,10.47,0,0,1,.44-1.16A1.83,1.83,0,0,1,44.38,476.49Z" transform="translate(-0.38 -0.47)"/><path class="cls-6" d="M34.37,476.39c.93,1.31-.19,2.61,0,4,.25,1.87-.15,3.81.52,5.66a2.8,2.8,0,0,0,0,.41C31.39,484.59,31.11,479,34.37,476.39Z" transform="translate(-0.38 -0.47)"/><path class="cls-6" d="M41.87,476.39c.93,1.31-.19,2.61,0,4,.25,1.87-.15,3.81.52,5.66a2.8,2.8,0,0,0,0,.41C38.89,484.59,38.61,479,41.87,476.39Z" transform="translate(-0.38 -0.47)"/><path class="cls-6" d="M92.3,486l-.47-1.07a3,3,0,0,1-.74-2.54,20.09,20.09,0,0,0-.72-5.88v0c1.53-.66,2.28.41,2.91,1.44C94.7,480.23,94.21,483.82,92.3,486Z" transform="translate(-0.38 -0.47)"/><path class="cls-34" d="M22.57,478.56c1.5,1,1,2.6.49,3.63-.42.83-1.82.82-2.69-.15l.63-1.23c.43-.71,1.17-1.21,1.39-2.06A.27.27,0,0,1,22.57,478.56Z" transform="translate(-0.38 -0.47)"/><path class="cls-11" d="M53.21,482.08c.73.08,1.7-.21,1.67,1,0,1.38-1.16.88-1.88.91s-1.67.31-1.64-.9S52.51,482.23,53.21,482.08Z" transform="translate(-0.38 -0.47)"/><path class="cls-26" d="M83.85,486.36a5.33,5.33,0,0,1-3,.11c-.71-.19-1.28-.62-.9-1.44.31-.66.94-.57,1.5-.26.79.45,1.42,1.18,2.39,1.28Z" transform="translate(-0.38 -0.47)"/><path class="cls-13" d="M30.39,480.79a1.1,1.1,0,0,1-1.16,1,1.16,1.16,0,0,1-1.18-1.3,1.06,1.06,0,0,1,1.16-1A1.14,1.14,0,0,1,30.39,480.79Z" transform="translate(-0.38 -0.47)"/><path class="cls-14" d="M29.11,484.29c.72.07,1.27.34,1.26,1.16a1,1,0,0,1-1.05,1.1,1.06,1.06,0,0,1-1.24-.89C27.93,484.87,28.43,484.49,29.11,484.29Z" transform="translate(-0.38 -0.47)"/><path class="cls-14" d="M77.09,484.3a1.1,1.1,0,0,1,1,1.18,1.07,1.07,0,0,1-1.38,1c-.71-.11-1-.59-.89-1.26S76.47,484.36,77.09,484.3Z" transform="translate(-0.38 -0.47)"/><path class="cls-29" d="M78.16,480.64c-.18.72-.52,1.27-1.32,1.18a1,1,0,0,1-1-1.16,1.07,1.07,0,0,1,1.26-1.14C77.83,479.56,78,480.13,78.16,480.64Z" transform="translate(-0.38 -0.47)"/><path class="cls-17" d="M70.85,482.46c-1.2.77-2.34,1.18-3-.63.08-.84.72-1.29,1.25-1.82a.43.43,0,0,1,.54.25A2.4,2.4,0,0,0,70.85,482.46Z" transform="translate(-0.38 -0.47)"/><path class="cls-36" d="M22.39,478.75A1.88,1.88,0,0,1,21,480.81,3,3,0,0,1,22.39,478.75Z" transform="translate(-0.38 -0.47)"/><path class="cls-39" d="M69.46,480h-.37a2,2,0,0,1,1.22-1.55l.11.15C70.78,479.54,70.47,480,69.46,480Z" transform="translate(-0.38 -0.47)"/><path class="cls-32" d="M83.85,486.36a.8.8,0,0,1,0-.31l1-1.6c0,.4,0,.8.05,1.21Z" transform="translate(-0.38 -0.47)"/><path class="cls-8" d="M72.3,196.45H68c1.62-2.66,1-5.49.62-8.25,0-.36-.72-.7,0-1a5.87,5.87,0,0,1,2.1-.74c.66-.07.6.65.61,1.12,0,2,0,4,0,6C71.26,194.51,71.08,195.56,72.3,196.45Z" transform="translate(-0.38 -0.47)"/><path class="cls-7" d="M13.43,196.5c1.88-2.63,1.27-5.56.75-8.16-.41-2.07,1.05-1.55,1.69-1.82,1.33-.56.92.69,1,1.29.15,2.63-.29,5.29.25,7.9.18.85-.27.77-.73.79C15.36,196.52,14.37,196.5,13.43,196.5Z" transform="translate(-0.38 -0.47)"/><path class="cls-22" d="M66,196.43H61.45c1.28-2.65.9-5.41.45-8.16-.06-.39-.84-.8-.12-1.15a5,5,0,0,1,2.33-.63c.47,0,.27.85.28,1.31,0,2,0,4,0,6C64.39,194.78,64.33,195.79,66,196.43Z" transform="translate(-0.38 -0.47)"/><path class="cls-15" d="M34.31,191.17c.81-.88,1.94-1.44,1.53-2.72s-1.44-.89-2.44-1.08a2.71,2.71,0,0,1,3.59-.84c1.4.73,1.43,1.86.59,3.11-.5.74.34,1,.6,1.4,1.09,1.78.62,3.19-1.25,4.71C37.25,193.34,36.36,192,34.31,191.17Z" transform="translate(-0.38 -0.47)"/><path class="cls-8" d="M24.38,186.49c2.25,2.29,2.5,5,1.42,7.83-.57,1.54-1.58,2.55-3.42,2.1a.7.7,0,0,1,0-.77c1.24-2.35.37-4.89.67-7.32C23.18,187.6,22.45,186,24.38,186.49Z" transform="translate(-0.38 -0.47)"/><path class="cls-8" d="M44.38,186.49c2.25,2.29,2.5,5,1.42,7.83-.57,1.54-1.58,2.55-3.42,2.1a.7.7,0,0,1,0-.77c1.24-2.35.37-4.89.67-7.32C43.18,187.6,42.45,186,44.38,186.49Z" transform="translate(-0.38 -0.47)"/><path class="cls-25" d="M88.39,186.54a2.13,2.13,0,0,1,3,0c.14,3,.86,6-.19,9a1.55,1.55,0,0,1-2.56,0C87.49,192.57,88.25,189.55,88.39,186.54Z" transform="translate(-0.38 -0.47)"/><path class="cls-9" d="M24.38,186.49c-.65,0-.69.19-.64.88.17,2.32.17,4.66.18,7,0,1-.18,1.9-1.54,1.65-2.31-2.6-1.25-5.58-.95-8.46a10.47,10.47,0,0,1,.44-1.16A1.83,1.83,0,0,1,24.38,186.49Z" transform="translate(-0.38 -0.47)"/><path class="cls-9" d="M44.38,186.49c-.65,0-.69.19-.64.88.17,2.32.17,4.66.18,7,0,1-.18,1.9-1.54,1.65-2.31-2.6-1.25-5.58-1-8.46a10.47,10.47,0,0,1,.44-1.16A1.83,1.83,0,0,1,44.38,186.49Z" transform="translate(-0.38 -0.47)"/><path class="cls-25" d="M80.89,186.54a2.13,2.13,0,0,1,3,0c.14,3,.86,6-.19,9a1.55,1.55,0,0,1-2.56,0C80,192.57,80.75,189.55,80.89,186.54Z" transform="translate(-0.38 -0.47)"/><path class="cls-15" d="M80.89,186.54c.5,0,1-.14.79.72-.61,2.69-.27,5.42-.2,8.13.08.51-.08.78-.64.64C78.28,193.11,78.3,189.93,80.89,186.54Z" transform="translate(-0.38 -0.47)"/><path class="cls-15" d="M88.39,186.54c.5,0,1-.14.79.72-.61,2.69-.27,5.42-.2,8.13.08.51-.08.78-.64.64C85.78,193.11,85.8,189.93,88.39,186.54Z" transform="translate(-0.38 -0.47)"/><path class="cls-6" d="M90.77,195.38c.09-2.71.41-5.43-.19-8.12-.19-.84.29-.74.79-.72,2.55,3.33,2.57,6.67,0,9.48C90.85,196.15,90.69,195.88,90.77,195.38Z" transform="translate(-0.38 -0.47)"/><path class="cls-6" d="M83.27,195.38c.09-2.71.41-5.43-.19-8.12-.19-.84.29-.74.79-.72,2.55,3.33,2.57,6.67,0,9.48C83.35,196.15,83.19,195.88,83.27,195.38Z" transform="translate(-0.38 -0.47)"/><path class="cls-6" d="M41.87,186.39c.93,1.31-.19,2.61,0,4,.25,1.87-.15,3.81.52,5.66a2.8,2.8,0,0,0,0,.41C38.89,194.59,38.61,189,41.87,186.39Z" transform="translate(-0.38 -0.47)"/><path class="cls-6" d="M21.87,186.39c.93,1.31-.19,2.61,0,4,.25,1.87-.15,3.81.52,5.66a2.8,2.8,0,0,0,0,.41C18.89,194.59,18.61,189,21.87,186.39Z" transform="translate(-0.38 -0.47)"/><path class="cls-11" d="M53.16,194c-.81-.13-1.81.26-1.8-1s1.13-.94,1.87-1,1.66-.25,1.66.92C54.89,194.47,53.68,193.73,53.16,194Z" transform="translate(-0.38 -0.47)"/><path class="cls-21" d="M36.05,196.33a4.88,4.88,0,0,1-2.48.23c-.67-.09-1.35-.23-1.47-1a1.1,1.1,0,0,1,.41-.8c.55-.41,1.07-.11,1.56.23S35.35,195.85,36.05,196.33Z" transform="translate(-0.38 -0.47)"/><path class="cls-28" d="M77.3,190.45a1.25,1.25,0,0,1-1.21,1.4,1.09,1.09,0,0,1-1.16-1.06,1.13,1.13,0,0,1,1.18-1.29C76.78,189.47,77.1,190,77.3,190.45Z" transform="translate(-0.38 -0.47)"/><path class="cls-13" d="M30.39,190.79a1.1,1.1,0,0,1-1.16,1.05,1.16,1.16,0,0,1-1.18-1.3,1.06,1.06,0,0,1,1.16-1A1.14,1.14,0,0,1,30.39,190.79Z" transform="translate(-0.38 -0.47)"/><path class="cls-14" d="M29.35,196.55a1.09,1.09,0,0,1-1.3-1.1,1.16,1.16,0,0,1,2.32,0A1,1,0,0,1,29.35,196.55Z" transform="translate(-0.38 -0.47)"/><path class="cls-26" d="M76,194.3a1.15,1.15,0,0,1,1.25,1,1,1,0,0,1-1.14,1.29,1.06,1.06,0,0,1-1.16-1.06C74.89,194.77,75.36,194.47,76,194.3Z" transform="translate(-0.38 -0.47)"/><path class="cls-31" d="M90.77,195.38l.64.64a2.17,2.17,0,0,1-3.07,0l.64-.64C89.58,196.13,90.18,196.09,90.77,195.38Z" transform="translate(-0.38 -0.47)"/><path class="cls-31" d="M83.27,195.38l.64.64a2.17,2.17,0,0,1-3.07,0l.64-.64C82.08,196.13,82.68,196.09,83.27,195.38Z" transform="translate(-0.38 -0.47)"/><path class="cls-7" d="M17.11,154.92H12.93a2.05,2.05,0,0,0,1.54-2.39c-.18-2,.33-4.07-.36-6.11-.49-1.43,1.06-1.1,1.72-1.42,1-.51,1,.34,1,1C16.94,149,16.61,151.9,17.11,154.92Z" transform="translate(-0.38 -0.47)"/><path class="cls-22" d="M65.12,155H61.38c1.4-3,1.08-6.07.2-9.21a6.25,6.25,0,0,1,2.66-.82C64.92,148.19,63.58,151.65,65.12,155Z" transform="translate(-0.38 -0.47)"/><path class="cls-24" d="M84.85,153a3.48,3.48,0,0,0-2.79-3.18c.51-1.07,2.15-1.43,1.54-2.9-.45-1.09-1.52-.77-2.52-1.05a2.9,2.9,0,0,1,3.79-.72c1.26.7,1.36,1.8.52,2.93-.42.57,0,.8.26,1.22,1.39,1.85,1.08,3.51-.75,4.91A.93.93,0,0,1,84.85,153Z" transform="translate(-0.38 -0.47)"/><path class="cls-8" d="M92.3,154.47a2.1,2.1,0,0,1-2.71.34c-2-1.21-2.41-3.25-2.17-5.39.21-1.93.36-4,3-4.41.06.1.12.2.19.3.15,2,0,3.92,0,5.88,0,.9-.1,1.87,1.14,2.11A1.05,1.05,0,0,1,92.3,154.47Z" transform="translate(-0.38 -0.47)"/><path class="cls-8" d="M44.38,145c2.25,2.29,2.5,5,1.42,7.83-.57,1.54-1.58,2.55-3.42,2.1a.7.7,0,0,1,0-.77c1.24-2.35.37-4.89.67-7.32C43.18,146.1,42.45,144.52,44.38,145Z" transform="translate(-0.38 -0.47)"/><path class="cls-8" d="M36.88,145c2.25,2.29,2.5,5,1.43,7.83-.58,1.54-1.59,2.55-3.43,2.1a.7.7,0,0,1,0-.77c1.24-2.35.37-4.89.67-7.32C35.68,146.1,35,144.52,36.88,145Z" transform="translate(-0.38 -0.47)"/><path class="cls-8" d="M24.38,145c2.25,2.29,2.5,5,1.42,7.83-.57,1.54-1.58,2.55-3.42,2.1a.7.7,0,0,1,0-.77c1.24-2.35.37-4.89.67-7.32C23.18,146.1,22.45,144.52,24.38,145Z" transform="translate(-0.38 -0.47)"/><path class="cls-9" d="M44.38,145c-.65,0-.69.19-.64.88.17,2.32.17,4.66.18,7,0,1-.18,1.9-1.54,1.65-2.31-2.6-1.25-5.58-1-8.46a10.47,10.47,0,0,1,.44-1.16A1.83,1.83,0,0,1,44.38,145Z" transform="translate(-0.38 -0.47)"/><path class="cls-9" d="M36.88,145c-.65,0-.69.19-.64.88.17,2.32.17,4.66.18,7,0,1-.18,1.9-1.54,1.65-2.31-2.6-1.25-5.58-1-8.46a10.47,10.47,0,0,1,.44-1.16A1.83,1.83,0,0,1,36.88,145Z" transform="translate(-0.38 -0.47)"/><path class="cls-9" d="M24.38,145c-.65,0-.69.19-.64.88.17,2.32.17,4.66.18,7,0,1-.18,1.9-1.54,1.65-2.31-2.6-1.25-5.58-.95-8.46a10.47,10.47,0,0,1,.44-1.16A1.83,1.83,0,0,1,24.38,145Z" transform="translate(-0.38 -0.47)"/><path class="cls-6" d="M21.87,144.89c.93,1.31-.19,2.61,0,4,.25,1.87-.15,3.81.52,5.66a2.8,2.8,0,0,0,0,.41C18.89,153.09,18.61,147.52,21.87,144.89Z" transform="translate(-0.38 -0.47)"/><path class="cls-6" d="M41.87,144.89c.93,1.31-.19,2.61,0,4,.25,1.87-.15,3.81.52,5.66a2.8,2.8,0,0,0,0,.41C38.89,153.09,38.61,147.52,41.87,144.89Z" transform="translate(-0.38 -0.47)"/><path class="cls-6" d="M34.37,144.89c.93,1.31-.19,2.61,0,4,.25,1.87-.15,3.81.52,5.66a2.8,2.8,0,0,0,0,.41C31.39,153.09,31.11,147.52,34.37,144.89Z" transform="translate(-0.38 -0.47)"/><path class="cls-6" d="M71.38,145c2.93,1.77,3.52,7.32,1,9.44a2.39,2.39,0,0,1-3.16.16,1.58,1.58,0,0,1,.48-.58c1.45-.63,1.24-2,1.41-3.2.23-1.74-.44-3.46-.17-5.21A1.22,1.22,0,0,1,71.38,145Z" transform="translate(-0.38 -0.47)"/><path class="cls-6" d="M92.3,154.47l-.47-1.07a3,3,0,0,1-.74-2.54,20.09,20.09,0,0,0-.72-5.88v0c1.53-.66,2.28.41,2.91,1.44C94.7,148.73,94.21,152.32,92.3,154.47Z" transform="translate(-0.38 -0.47)"/><path class="cls-6" d="M69.92,154.49l-.72.07c-2.94-3.05-2.61-7.62.68-9.62a1.46,1.46,0,0,1,.48.71C70.07,148.58,70.69,151.57,69.92,154.49Z" transform="translate(-0.38 -0.47)"/><path class="cls-11" d="M53.18,152.51c-.69-.18-1.85.4-1.82-1,0-1.16,1-.91,1.69-.89s1.85-.37,1.83,1C54.87,152.82,53.85,152.37,53.18,152.51Z" transform="translate(-0.38 -0.47)"/><path class="cls-26" d="M83.85,154.86a5.33,5.33,0,0,1-3,.11c-.71-.19-1.28-.62-.9-1.44.31-.66.94-.57,1.5-.26.79.45,1.42,1.18,2.39,1.28Z" transform="translate(-0.38 -0.47)"/><path class="cls-14" d="M29.18,152.77c.64.14,1.15.36,1.19,1.06a1.06,1.06,0,0,1-1.17,1.22,1,1,0,0,1-1.14-1C28,153.25,28.54,152.92,29.18,152.77Z" transform="translate(-0.38 -0.47)"/><path class="cls-13" d="M29.43,150.38c-.86-.07-1.36-.51-1.39-1.24A1.06,1.06,0,0,1,29.11,148a1.12,1.12,0,0,1,1.28,1.18C30.42,149.87,29.92,150.17,29.43,150.38Z" transform="translate(-0.38 -0.47)"/><path class="cls-14" d="M78.15,154a1.09,1.09,0,0,1-1.18,1A1,1,0,0,1,75.85,154a1.05,1.05,0,0,1,1.27-1.16C77.79,152.87,78.11,153.35,78.15,154Z" transform="translate(-0.38 -0.47)"/><path class="cls-29" d="M76.91,148a1.09,1.09,0,0,1,1.19,1,1.1,1.1,0,0,1-1.12,1.3,1,1,0,0,1-1.12-1A1.1,1.1,0,0,1,76.91,148Z" transform="translate(-0.38 -0.47)"/><path class="cls-18" d="M69.94,145.55l-.06-.61a.86.86,0,0,1,1.5,0l-.07.59A1.6,1.6,0,0,1,69.94,145.55Z" transform="translate(-0.38 -0.47)"/><path class="cls-32" d="M83.85,154.86a.8.8,0,0,1,0-.31l1-1.6c0,.4,0,.8.05,1.21Z" transform="translate(-0.38 -0.47)"/><path class="cls-2" d="M74.94,62.55a1.07,1.07,0,0,1,1.37,0,20.7,20.7,0,0,1,.32,7.19c-.08.94-.13,2.17-1.71,1.75A21.22,21.22,0,0,1,74.94,62.55Z" transform="translate(-0.38 -0.47)"/><path class="cls-3" d="M15.89,30.62c-3-.44-1.73-2.43-1.49-4.06C16.94,27.65,17.26,28.53,15.89,30.62Z" transform="translate(-0.38 -0.47)"/><path class="cls-2" d="M67.44,21.55a1,1,0,0,1,1.37,0,21.4,21.4,0,0,1,.25,7.4c-.12.95-.28,1.89-1.63,1.52A20.85,20.85,0,0,1,67.44,21.55Z" transform="translate(-0.38 -0.47)"/><path class="cls-2" d="M74.94,21.55a1.07,1.07,0,0,1,1.37,0,20.7,20.7,0,0,1,.32,7.19c-.08.94-.13,2.17-1.71,1.75A21.22,21.22,0,0,1,74.94,21.55Z" transform="translate(-0.38 -0.47)"/><path class="cls-40" d="M41.87,269.48c1.37.47,1.42,1.65,1.44,2.8,0,1.87,0,3.75,0,5.62-.4.34-.37,1.16-1.15,1.1s-.79-.57-.79-1.06C41.39,275.11,40.8,272.25,41.87,269.48Z" transform="translate(-0.38 -0.47)"/><path class="cls-40" d="M82.87,518c1.37.47,1.42,1.65,1.44,2.8,0,1.87,0,3.75,0,5.62-.4.34-.37,1.16-1.15,1.1s-.79-.57-.79-1.06C82.39,523.61,81.8,520.75,82.87,518Z" transform="translate(-0.38 -0.47)"/><path class="cls-40" d="M90.37,518c1.37.47,1.42,1.65,1.44,2.8,0,1.87,0,3.75,0,5.62-.4.34-.37,1.16-1.15,1.1s-.79-.57-.79-1.06C89.89,523.61,89.3,520.75,90.37,518Z" transform="translate(-0.38 -0.47)"/><path class="cls-40" d="M34.37,228c1.37.47,1.42,1.65,1.44,2.8,0,1.87,0,3.75,0,5.62-.4.34-.37,1.16-1.15,1.1s-.79-.57-.79-1.06C33.89,233.61,33.3,230.75,34.37,228Z" transform="translate(-0.38 -0.47)"/><path class="cls-40" d="M41.87,228c1.37.47,1.42,1.65,1.44,2.8,0,1.87,0,3.75,0,5.62-.4.34-.37,1.16-1.15,1.1s-.79-.57-.79-1.06C41.39,233.61,40.8,230.75,41.87,228Z" transform="translate(-0.38 -0.47)"/><path class="cls-2" d="M88.44,228.55a1.07,1.07,0,0,1,1.37,0,20.7,20.7,0,0,1,.32,7.19c-.08.94-.13,2.17-1.71,1.75A21.22,21.22,0,0,1,88.44,228.55Z" transform="translate(-0.38 -0.47)"/><path class="cls-40" d="M90.31,352.41l1,.12c1,2.57.27,5.25.49,7.87-.41.34-.37,1.17-1.16,1.09-.63-.06-.79-.57-.78-1.07C89.91,357.75,89.29,355,90.31,352.41Z" transform="translate(-0.38 -0.47)"/><path class="cls-40" d="M82.81,352.41l1,.12c1,2.57.27,5.25.49,7.87-.41.34-.37,1.17-1.16,1.09-.63-.06-.79-.57-.78-1.07C82.41,357.75,81.79,355,82.81,352.41Z" transform="translate(-0.38 -0.47)"/><path class="cls-40" d="M90.37,393.48c1.37.47,1.42,1.65,1.44,2.8,0,1.87,0,3.75,0,5.62-.4.34-.37,1.16-1.15,1.1s-.79-.57-.79-1.06C89.89,399.11,89.3,396.25,90.37,393.48Z" transform="translate(-0.38 -0.47)"/><path class="cls-40" d="M90.37,310.48c1.37.47,1.42,1.65,1.44,2.8,0,1.87,0,3.75,0,5.62-.4.34-.37,1.16-1.15,1.1s-.79-.57-.79-1.06C89.89,316.11,89.3,313.25,90.37,310.48Z" transform="translate(-0.38 -0.47)"/><path class="cls-40" d="M90.37,559c1.37.47,1.42,1.65,1.44,2.8,0,1.87,0,3.75,0,5.62-.4.34-.37,1.16-1.15,1.1s-.79-.57-.79-1.06C89.89,564.61,89.3,561.75,90.37,559Z" transform="translate(-0.38 -0.47)"/><path class="cls-41" d="M69.46,438.52a1.51,1.51,0,0,0,1-1.41c1,1.19.29,2.57.43,3.85H68.32Z" transform="translate(-0.38 -0.47)"/><path class="cls-40" d="M90.37,435c1.37.47,1.42,1.65,1.44,2.8,0,1.87,0,3.75,0,5.62-.4.34-.37,1.16-1.15,1.1s-.79-.57-.79-1.06C89.89,440.61,89.3,437.75,90.37,435Z" transform="translate(-0.38 -0.47)"/><path class="cls-40" d="M82.87,435c1.37.47,1.42,1.65,1.44,2.8,0,1.87,0,3.75,0,5.62-.4.34-.37,1.16-1.15,1.1s-.79-.57-.79-1.06C82.39,440.61,81.8,437.75,82.87,435Z" transform="translate(-0.38 -0.47)"/><path class="cls-40" d="M82.87,103.48c1.37.47,1.42,1.65,1.44,2.8,0,1.87,0,3.75,0,5.62-.4.34-.37,1.16-1.15,1.1s-.79-.57-.79-1.06C82.39,109.11,81.8,106.25,82.87,103.48Z" transform="translate(-0.38 -0.47)"/><path class="cls-2" d="M62.44,104.05a1.07,1.07,0,0,1,1.37,0,20.7,20.7,0,0,1,.32,7.19c-.08.94-.13,2.17-1.71,1.75A21.22,21.22,0,0,1,62.44,104.05Z" transform="translate(-0.38 -0.47)"/><path class="cls-2" d="M74.94,104.05a1.07,1.07,0,0,1,1.37,0,20.7,20.7,0,0,1,.32,7.19c-.08.94-.13,2.17-1.71,1.75A21.22,21.22,0,0,1,74.94,104.05Z" transform="translate(-0.38 -0.47)"/><path class="cls-42" d="M70.89,604.91a5.29,5.29,0,0,1,.51,5.17c-1.28.18-1.67-.64-1.58-1.65C69.94,607.21,68.86,605.57,70.89,604.91Z" transform="translate(-0.38 -0.47)"/><path class="cls-40" d="M82.87,600.48c1.37.47,1.42,1.65,1.44,2.8,0,1.87,0,3.75,0,5.62-.4.34-.37,1.16-1.15,1.1s-.79-.57-.79-1.06C82.39,606.11,81.8,603.25,82.87,600.48Z" transform="translate(-0.38 -0.47)"/><path class="cls-40" d="M90.37,600.48c1.37.47,1.42,1.65,1.44,2.8,0,1.87,0,3.75,0,5.62-.4.34-.37,1.16-1.15,1.1s-.79-.57-.79-1.06C89.89,606.11,89.3,603.25,90.37,600.48Z" transform="translate(-0.38 -0.47)"/><path class="cls-41" d="M69.46,480a1.51,1.51,0,0,0,1-1.41c1,1.19.29,2.57.43,3.85-.78,0-1.58.29-2.4-.27Z" transform="translate(-0.38 -0.47)"/><path class="cls-40" d="M90.37,476.48c1.37.47,1.42,1.65,1.44,2.8,0,1.87,0,3.75,0,5.62-.4.34-.37,1.16-1.15,1.1s-.79-.57-.79-1.06C89.89,482.11,89.3,479.25,90.37,476.48Z" transform="translate(-0.38 -0.47)"/><path class="cls-40" d="M90.37,145c1.37.47,1.42,1.65,1.44,2.8,0,1.87,0,3.75,0,5.62-.4.34-.37,1.16-1.15,1.1s-.79-.57-.79-1.06C89.89,150.61,89.3,147.75,90.37,145Z" transform="translate(-0.38 -0.47)"/><path class="cls-2" d="M69.94,145.55a1.07,1.07,0,0,1,1.37,0,20.7,20.7,0,0,1,.32,7.19c-.08.94-.13,2.17-1.71,1.75A21.22,21.22,0,0,1,69.94,145.55Z" transform="translate(-0.38 -0.47)"/></g></g></svg>
