<svg xmlns="http://www.w3.org/2000/svg" xmlns:xlink="http://www.w3.org/1999/xlink" viewBox="0 0 31 36">
  <defs>
    <style>
      .cls-1 {
        clip-path: url(#clip-sted_1);
      }

      .cls-2 {
        opacity: 0.5;
      }

      .cls-3 {
        fill: none;
      }
    </style>
    <clipPath id="clip-sted_1">
      <rect width="31" height="36"/>
    </clipPath>
  </defs>
  <g id="sted_1" data-name="sted – 1" class="cls-1">
    <g id="Icon_Location_On_Rounded" data-name="Icon / Location On / Rounded" class="cls-2" transform="translate(-424 -1862)">
      <rect id="Box" class="cls-3" width="24" height="24" transform="translate(428 1868)"/>
      <path id="Path_2037" data-name="Path 2037" d="M297.9,57.8a2.5,2.5,0,1,1,2.5-2.5A2.54,2.54,0,0,1,297.9,57.8Zm0-9.5a6.957,6.957,0,0,0-7,7c0,4.2,4.4,9.9,6.2,12.1a.938.938,0,0,0,1.5,0c1.8-2.2,6.2-7.9,6.2-12.1A6.812,6.812,0,0,0,297.9,48.3Z" transform="translate(142 1822)"/>
    </g>
  </g>
</svg>
